<?xml version="1.0" encoding="utf-8"?><!DOCTYPE svg PUBLIC "-//W3C//DTD SVG 1.1//EN" "http://www.w3.org/Graphics/SVG/1.1/DTD/svg11.dtd"><svg width="125" height="152" viewBox="0 0 125 152" xmlns="http://www.w3.org/2000/svg" xmlns:xlink="http://www.w3.org/1999/xlink"><svg width="43.313" height="26.496" viewBox="0 0 43.313 26.496" id="goDown" x="81"><path fill="#E0E0E0" d="M21.657 20.623L4.8 0H0s13.1 26.496 21.657 26.496C30.212 26.496 43.313 0 43.313 0H38.51L21.658 20.623z"/></svg><svg width="7" height="3" viewBox="0 0 7 3" id="journey__year" x="81" y="26.496"><path fill="#499210" d="M5.368 0H0l.74 1.354L0 3h7V0"/></svg><svg width="77.533" height="77.579" viewBox="0 0 77.533 77.579" id="logo_cuc" y="74"><path fill="#D1B526" d="M39.604.005C17.95-.325.637 16.563.017 37.62c-.645 21.9 16.59 39.532 37.822 39.952 21.887.433 39.375-16.668 39.69-38.612C77.826 18.1 60.5.324 39.603.005zM44.64 43.07c1.383 1.774 1.372 3.79 1.12 5.893-.132-.043-.195-.045-.206-.07-2.378-5.32-6.867-7.09-12.282-7.33-1.864-.083-3.72-.26-5.49-.916-.36-.132-.71-.287-1.026-.678 1.25-.188 2.5-.375 3.75-.56 3.386-.503 6.087-2.095 7.992-4.98.958-1.454 1.93-2.9 2.926-4.327.555-.795 1.324-1.368 2.377-2.16-.58 1.616-1.04 2.885-1.343 4.21-.912 3.983-.37 7.645 2.183 10.918zm5.524 7.572c-4.7 5.247-14.265 6.482-20.59 1.852 7.017-.507 13.62-2.384 20.59-1.852zM31.436 22.555c-8.186 3.91-12.108 12.27-9.828 21.02.18.684.118 1.167-.367 1.742-1.422 1.686-3.124 3.054-4.772 4.493-.817.713-1.016.254-1.307-.43-3.366-7.94-3.112-15.762 1.12-23.27 4.162-7.388 10.63-11.612 18.992-12.946.12-.02.242-.03.362-.022.077.004.15.047.337.11-1.196 2.877-2.392 5.744-3.58 8.615-.18.438-.6.52-.954.688zm.16 1.37c-3.012 6.525-4.93 13.204-8.698 19.423-2.435-7.253 1.652-16.37 8.697-19.424zM17.82 50.187c2.914-2.386 5.394-5.137 7.325-8.372.3-.504.518-.838 1.21-.504 2.35 1.133 4.912 1.25 7.453 1.473 3.06.267 6.048.754 8.327 3.123.764.794 1.374 1.695 1.92 2.648.343.597.35.94-.474 1.047-7.58.974-15.156 1.966-22.732 2.96-2.164.285-4.324.596-6.487.884-.34.046-.688.04-1.365.075 1.81-1.208 3.392-2.16 4.826-3.334zm.415 4.09c.124-.432.62-.265.956-.31 2.57-.35 5.142-.658 7.706-1.033.57-.084.987.02 1.458.34 7.48 5.095 16.43 4.38 22.927-1.824.413-.392.77-.564 1.382-.46 2.336.393 4.524 1.235 6.73 2.04.72.263.572.583.218 1.05-4.076 5.403-9.397 8.834-16.056 10.133-1.59.31-3.2.5-4.838.478-8.055-.214-14.748-3.298-19.95-9.51-.228-.27-.637-.53-.53-.9zm29.573-4.924c-.62-.008-.877-.18-.803-.845.3-2.657-.444-4.945-2.022-7.16-2.814-3.944-1.856-8.105-.25-12.51 6.503 8.445 12.827 16.66 19.15 24.875-5.112-2.677-10.376-4.293-16.075-4.36zm-5.18-26.44c5.894.57 13.678 7.962 12.522 17.65-4.147-6.14-9.324-11.11-12.522-17.65zM62.216 49.58c-1.986-2.578-3.837-4.983-5.69-7.386-.26-.334-.148-.688-.116-1.05.88-9.648-4.328-17.183-13.642-19.7-.53-.144-.816-.35-1.007-.88-.807-2.23-1.158-4.55-1.53-6.874-.122-.77.384-.653.826-.622 3.028.22 5.898 1.043 8.65 2.306 12.236 5.617 18.113 20.334 13.117 32.85-.148.37-.326.73-.607 1.356zM42.99 26.116c.268.48.246.76-.223 1.094-1.817 1.298-3.134 3.044-4.177 4.987-2.507 4.666-6.577 6.427-11.82 6.4L38.642 9.875c.203 5.82 1.538 11.22 4.347 16.24zM5.453 52.946C-3.82 30.977 10.156 6.32 33.808 2.94c1.842-.263 3.7-.426 5.7-.274-.393.667-.616 1.243-.28 1.84.22.388.068.694-.07 1.03-.745 1.8-1.507 3.59-2.217 5.4-.25.645-.61.9-1.32.99-11.716 1.466-20.805 9.724-23.318 21.236-1.268 5.81-.634 11.457 1.85 16.863.38.825.367 1.245-.488 1.698-1.29.685-2.546 1.428-3.897 1.99-.634.26-1.246.586-1.94.077-.187-.137-.64-.16-.81-.027-1.152.888-1.277-.132-1.564-.813zm61.992 7.89C60.103 70.09 50.5 74.757 38.257 75.063c-12.732-.48-23.022-6.088-30.24-17.193-.28-.43-.852-1.224-.68-1.31.712-.358 1.106-1.194 1.934-1.305 2.21-.296 4.43-.52 6.63-.86.773-.12.98.38 1.317.81 4.35 5.57 9.954 9.18 16.957 10.25 10.8 1.653 19.603-1.983 26.322-10.583.608-.78 1.02-.95 1.823-.39 1.06.743 2.188 1.39 3.264 2.112.66.443 1.375.86 1.137 1.9-.08.348.218.773.558.876 1.278.382.582.943.167 1.467zm3-4.587c-1.003 1.844-1.188 2.002-2.608.5-1.69-1.79-3.082-3.864-4.575-5.836-.34-.45.12-.845.277-1.228 3.45-8.426 3.13-16.697-1.484-24.552-4.635-7.887-11.684-12.3-20.817-13.255-.856-.09-1.226-.27-1.165-1.2.085-1.29 0-2.59.208-3.88.13-.804.198-1.54.992-2.084.67-.46.302-1.24.12-1.98 17.35 1.414 31.147 14.53 33.248 31.54.957 7.757-.457 15.096-4.198 21.973z"/><path fill="#2FC700" d="M14.36 53.447c2.164-.288 4.324-.6 6.488-.883 7.576-.996 15.152-1.988 22.732-2.962.825-.106.817-.45.474-1.047-.547-.953-1.156-1.854-1.92-2.648-2.28-2.368-5.268-2.855-8.327-3.123-2.54-.222-5.103-.34-7.452-1.473-.693-.333-.91 0-1.21.505-1.93 3.234-4.41 5.986-7.325 8.372-1.434 1.174-3.017 2.126-4.826 3.334.677-.034 1.025-.027 1.367-.073z"/><path fill="#DB0D00" d="M26.77 38.597c5.243.027 9.313-1.734 11.82-6.4 1.043-1.943 2.36-3.688 4.177-4.986.47-.334.49-.614.223-1.094-2.81-5.02-4.144-10.422-4.348-16.24L26.77 38.596z"/><path fill="#0000DB" d="M44.735 28.84c-1.608 4.404-2.566 8.565.248 12.51 1.58 2.214 2.32 4.502 2.023 7.158-.075.665.183.837.803.845 5.698.068 10.96 1.684 16.076 4.36-6.325-8.213-12.65-16.428-19.15-24.874z"/><path fill="#262626" d="M28.147 54.478c-.238.67-.508 1.14-1.152.982l-.053.06c-.17.257.32.49.134.625-.35.252-.638-.12-.943-.264-.004.493.34.82.574 1.198l.065.394c1.728-1.03 1.83-1.22 1.375-2.994z"/><path fill="#373737" d="M30.444 59.43c.137.705-.146 1.165-.818 1.394.458.17.926.265 1.416.2.465-.157.266-.692.543-.954.315-.43-.28-.73-.164-1.13-.006-.21.12-.308.3-.363v-.005c-.04-.06-.08-.123-.116-.186l-.73-.205c-.082.01-.163.02-.243.027l.003.426c.436.385.07.578-.19.797z"/><path fill="#282828" d="M42.462 61.376c.207.15.37-.052.558-.066l.263-.01c.503-.895.11-1.802.23-2.7-.486-.02-.397.34-.525.388-1.43.53.183 1.716-.526 2.388z"/><path fill="#1B1B1B" d="M47.238 60.41c.202.287.32-.138.46-.28l-.02-.542.254-.463c-.21-.236-.62-.424-.203-.816-.088-.284-.035-.708-.506-.652-.422.05-.238.424-.274.668-.062.418.118.842-.175 1.264-.305.437.292.576.463.82z"/><path fill="#595959" d="M41.777 61.862c.126-.864.173-1.74.264-2.774-.755.51-.83 1.123-.94 1.717l.242 1.01c.127.23.405.25.435.047z"/><path fill="#10100F" d="M51.1 55.167c.072-.293.32-.577.047-.888-.306.42-1.068.424-1.048 1.143 0 .152.004.304.006.456.332-.24.663-.477.993-.713z"/><path fill="#242424" d="M51.1 55.167c-.005.152.004.305-.016.455-.06.46-.095.856.47.29.026-.157-.388-.217-.094-.433.188-.344.08-.77.34-1.11.13-.167.14-.52-.127-.592-.344-.095-.61.06-.525.5.61.33.282.61-.05.89z"/><path fill="#242424" d="M51.1 55.167c.33-.28.656-.56.048-.888.273.31.024.593-.05.887z"/><path fill="#313131" d="M51.996 58.46c-.073.303.246.342.467.367.324.036.5-.134.576-.45.103-.446-.245-.503-.614-.67-.137.23-.36.473-.43.754z"/><path fill="#424242" d="M36.535 62.463c.537.222.65-.215.657-.65-.542.273-.664-.32-.995-.482-.49.556-.12.943.338 1.133z"/><path fill="#252525" d="M25.316 59.01c1.018-.35 1.276-.91 1.456-1.538-.146-.11-.167-.242-.065-.394-.597.436-.725 1.166-1.39 1.933z"/><path fill="#252525" d="M26.772 57.472l-.065-.394c-.102.152-.08.283.065.394z"/><path d="M36.59 60.552c.566.012.295-.42.365-.67-.028-.218.098-.575-.25-.547-.546.043-.252.587-.405.88-.13.247.06.332.29.337z"/><path fill="#262626" d="M35.666 58.982c-.568.286-.654.814-.826 1.294.33-.358 1.095-.483.826-1.294z"/><path fill="#5F5F5F" d="M35.24 62.988c.382-.424.313-.75.013-1.24-.304.51-.334.84-.012 1.24z"/><path fill="#4A4A4A" d="M51.72 57.33c.577-.057.89-.228.72-.8-.26.208-.674.253-.72.8z"/><path fill="#292929" d="M29.842 59.25c.11-.136.244-.22.425-.21l.242-.27c-.007-.05-.02-.1-.043-.155 0-.16.052-.295.163-.408-.585.02-.723.51-.95.904l.144.16c.007-.006.012-.013.018-.02z"/><path fill="#292929" d="M30.51 58.77c.042-.044.082-.09.123-.136 0-.142 0-.284-.002-.426-.11.112-.162.25-.162.408.024.053.035.105.042.155zM30.267 59.04c-.18-.01-.316.075-.425.21-.006.007-.01.014-.018.02l.088.098c.094-.08.188-.163.283-.245l.074-.083h-.003z"/><path fill="#A6A6A6" d="M32.375 58.374l-.248.485-.13.1c.33.183.113.58.316.814l.23-1.4h-.169z"/><path fill="#A6A6A6" d="M31.997 58.96l-.155.12.472.694c-.204-.233.01-.63-.317-.814z"/><path fill="#747474" d="M31.364 61.178c-.174.225-.716-.043-.633.23.105.343.533.552.908.135-.192-.045-.317-.142-.274-.365z"/><path fill="#747474" d="M31.64 61.543l-.276-.365c-.043.223.082.32.275.365z"/><path fill="#272727" d="M47.697 60.13c.234-.122.732.27.715-.29-.017-.566-.49-.153-.734-.252.145.176.144.357.02.542z"/><path fill="#272727" d="M47.678 59.588l.02.542c.124-.185.125-.366-.02-.542z"/><path fill="#010101" d="M42.663 62.565c.15-.284.07-.53-.283-.872-.082.368-.223.638-.01.898.08.098.222.11.293-.025z"/><path fill="#3D3D3D" d="M50.385 57.83c.513-.227.54-.54.354-.952-.515.13-.46.464-.355.953z"/><path fill="#555" d="M41.342 61.814c-.353-.27-.5-.592-.24-1.01-.516.48-.515.834.24 1.01z"/><path fill="#555" d="M41.342 61.814l-.24-1.01c-.26.418-.113.74.24 1.01z"/><path fill="#535353" d="M37.33 61.564c.2-.056.368-.137.245-.39-.165-.34-.47-.345-.786-.32.264.172.83.115.54.71z"/><path fill="#535353" d="M37.33 61.564c.29-.595-.276-.538-.54-.71.253.18.577.308.54.71z"/><path fill="#292929" d="M43.02 61.31c.19.297-.31.827.403 1.01.142-.38-.04-.698-.14-1.02-.083.114-.17.123-.263.01z"/><path fill="#292929" d="M43.282 61.298l-.263.01c.093.115.18.106.262-.01z"/><path fill="#161616" d="M29.796 59.305c-.05-.055-.076-.13-.116-.193-.18.24-.358.48-.537.722.31-.066.47-.312.653-.53z"/><path fill="#161616" d="M29.912 59.368c-.054-.007-.088-.033-.117-.064-.183.22-.343.464-.653.53.558.34.563-.23.77-.466z"/><path fill="#161616" d="M29.824 59.27l-.144-.158c.04.063.066.138.116.193l.028-.034z"/><path fill="#161616" d="M29.796 59.305c.028.03.062.056.117.063l-.09-.097-.027.035z"/><path fill="#030303" d="M50.107 55.878c-.145-.15-.14-.3-.007-.456-.28.023-.753-.15-.713.31.04.443.436.275.72.146z"/><path fill="#030303" d="M50.107 55.878l-.007-.456c-.13.155-.137.306.007.456z"/><path fill="#5C5C5C" d="M51.555 55.888c.248-.187.655.054.898-.433h-.994c.1.244.188.262.095.433z"/><path fill="#5C5C5C" d="M51.555 55.91c.093-.17.004-.302-.095-.432-.293.216.12.277.095.433z"/><path d="M31.883 57.86l.007.032c.047-.03.097-.052.153-.06-.076-.13-.152-.26-.23-.39-.232.066-.465.135-.698.203.226.182.564-.046.768.214z"/><path d="M31.855 57.914c.012-.01.024-.015.036-.022l-.006-.033c-.204-.26-.542-.033-.767-.215.13.407.5.152.738.27z"/><path fill="#9F9F9F" d="M32.14 57.877c.153.095.188.262.222.43.067-.012.128.01.182.066.087-.568-.1-.924-.73-.933.197.084.386.173.326.437z"/><path fill="#9F9F9F" d="M32.362 58.31l.013.064h.169c-.054-.056-.115-.078-.182-.065zM32.14 57.877c.06-.265-.13-.354-.325-.437.076.13.152.26.23.39.036.014.068.03.095.047z"/><path fill="#515151" d="M47.932 59.125c.3-.363.502-.703-.203-.816-.208.34.295.503.202.815z"/><path fill="#515151" d="M47.932 59.125c.093-.312-.41-.475-.203-.816-.416.39-.007.58.202.815z"/><path fill="#272727" d="M60.213 36.78c-.115-1.15 1.16-.168 1.278-1.003-1.24-.117-2.407.137-3.582.385.427.144.847.146 1.26.096.48-.058.493.26.553.586.083.443-.124.576-.522.576-.362 0-.726.008-1.084.048-.2.022-.24.192-.15.354.102.183.274.055.42.038.407-.357.87-.177 1.324-.177.624 0 1.3.188 1.91-.223-.35-.598-1.296.407-1.405-.68z"/><path fill="#151515" d="M47.347 20.615c.826-1.173-.245-2.25-.222-3.402.01-.48-.4-.152-.44.223.076.215.15.43.227.645l.06 2.75c.093-.126.193-.242.375-.215z"/><path fill="#151515" d="M47.347 20.615c-.182-.027-.282.09-.376.215l.377-.215z"/><path fill="#1C1C1C" d="M58.056 38.414v.243h3.505v-.243h-3.504zM58.57 42.528c-.303.11-.706-.217-1.097.417l3.745-.186c-.156-.404-.376-.455-.624-.458l-.542.232c-.327-.1-.894.31-.916-.433l-.02-.492-.23-.07c-.05.346.135.768-.315.99z"/><path fill="#4B4A4B" d="M50.8 22.646c-.846-.31-.117-.862-.218-1.28l-.134.016c-.253.252-.543.477-.75.762-.315.435.178.522.38.71.2.186.434.41.734.192.145-.107.152-.34-.01-.4z"/><path fill="#333" d="M60.32 39.164c-.136-.052-.315.01-.476.018-.003.074 0 .147.007.22.406.08.5.39.553.73.463-.09 1.16-.152 1.118-.632-.052-.61-.79-.18-1.2-.336z"/><path fill="#333" d="M60.408 40.157l-.005-.027c-.006 0-.013.002-.02.004l.025.023z"/><path fill="#282828" d="M57.506 25.412l.002-.012-.006.008.002.003.002-.01v.012zM56.215 24.077c.383.37-.502 1.12.113 1.043.537-.067.654 1.06 1.173.288-.345-.5-.577-1.11-1.285-1.33z"/><path fill="#252525" d="M60.377 40.136c-.492-.354-.893-.078-1.29.21.327.212.23.41-.046.574.047.043.083.17.107.17h2.102c.002 0 .004-.127.007-.18-.512-.06-1.025-.13-1.706-.21.39-.26.61-.417.827-.564z"/><path fill="#252525" d="M60.383 40.132c-.002 0-.004.002-.006.004l.03.02-.024-.024zM58.522 28.81c.944.374.994.554.36 1.307.668.063.88-.352.746-.88-.21-.828-.9-.572-1.474-.522l.18.152c.063-.02.126-.04.188-.057z"/><path fill="#252525" d="M58.522 28.81c-.062.02-.125.038-.188.057.033.027.064.055.097.08.868.114.8.588.45 1.17.636-.753.587-.933-.358-1.307z"/><path fill="#313131" d="M55.113 23.036c.21-.416.032-.81-.332-.866-.574-.088-.967.275-1.096.867l.234.027c.34-.744.73-.876 1.195-.028z"/><path fill="#313131" d="M53.918 23.064l.058.006c.358-.67.75-.25 1.137-.035-.464-.847-.854-.715-1.195.03z"/><path fill="#333" d="M52.412 20.76c.093-.117.284-.257.262-.347-.113-.475-.584-.59-.972-.9-.13.217-.392.497-.338.583.23.37.85.185 1.048.665z"/><path fill="#282828" d="M60.14 32.035c1.012-.195.292-.843.163-1.085-.292-.548-.605.004-.977.17.53.13.753.458.813.915z"/><path fill="#2B2B2B" d="M57.145 29.34c.015-.01.03-.015.043-.023l-.01-.093c-.737.382-1.426.78-.59 1.706l.262-.24c-.534-.567-.076-.95.295-1.35z"/><path fill="#2B2B2B" d="M57.205 29.47c-.005-.05-.01-.102-.017-.153-.014.008-.03.014-.043.022-.37.4-.83.784-.295 1.35l.083-.075c-.406-.5.13-.776.272-1.145z"/><path fill="#161616" d="M52.486 22.093c.36.04.357-1.375.987-.245l.278.01c.306-.472.012-.794-.336-1-.515-.3-.483.364-.757.522-.243.14-.36.42-.37.72.067-.028.133-.03.2-.007zM56.174 27.64l1.472-.227-.25-.208c-.305-.07-.234-.316-.247-.522-.048-.064-.1-.124-.157-.18-.333.315-.684.618-.82 1.137z"/><path fill="#2F2F30" d="M52.286 23.82c-.358 1.065-.105 1.29 1.232 1.11-.088-.145-.178-.29-.267-.434-.742.386-.503-.652-.964-.676zM52.27 23.818l.016.002.006-.02-.02.018z"/><path fill="#111" d="M53.69 24.527c-.055-.482.073-.94.198-1.397l.007-.017c-.076.023-.146-.003-.21-.077-.145.487-.29.974-.433 1.46.213.068.314.206.267.434l.235.022c.01-.13.02-.26.032-.39-.032-.01-.063-.02-.097-.035z"/><path fill="#111" d="M53.976 23.07c-.027.02-.055.035-.08.043l-.008.017c-.125.458-.252.915-.198 1.397.034.015.065.024.097.035l.007-.096c.132-.455.307-.906.182-1.396zM53.895 23.113c.007-.018.016-.033.023-.05l-.234-.026c.065.073.135.1.21.076z"/><path fill="#111" d="M53.918 23.064c-.007.016-.016.03-.023.05.026-.01.054-.023.08-.043l-.057-.006zM53.252 24.497l.267.434c.046-.227-.055-.365-.268-.433z"/><path fill="#232323" d="M44.38 19.348c-.203-.076-.358-.36-.548-.025-.04.07.02.23.08.32.142.21.356.337.61.26.462-.143.706-.483.776-.955-.092 0-.184-.002-.275-.003-.182.193-.316.526-.643.403z"/><path fill="#262626" d="M55.454 23.776l-.155-.14-.056.048c-.5.232-.658 1.096-1.39.9.046.13.022.253-.1.37.86.03 1.123-.8 1.7-1.178z"/><path fill="#262626" d="M53.795 24.467c.025.04.045.08.06.118.732.195.89-.67 1.39-.9l.054-.048-.106-.094c-.51.244-.727.928-1.4.924zM53.854 24.585c-.02-.006-.044-.016-.067-.022-.01.13-.02.26-.032.39.12-.116.145-.24.1-.368z"/><path fill="#262626" d="M53.787 24.562l.067.022c-.014-.04-.034-.078-.06-.118l-.007.096z"/><path fill="#353535" d="M52.776 22.31l-.182-.136-.005.002c-.11.02-.212-.006-.3-.076-.218.562-.366 1.124-.004 1.684l.5-1.204-.01-.27zM52.293 23.8c-.003-.006-.004-.01-.008-.015l-.014.034.023-.02z"/><path fill="#353535" d="M52.59 22.176s.002 0 .003-.002l-.107-.08c-.066-.023-.132-.02-.197.007.088.07.188.095.3.076z"/><path fill="#272727" d="M50.582 21.365c.43-.092.75.54 1.215.175-.78-1.103-.78-1.103-1.35-.16l.064-.037.072.022z"/><path fill="#181818" d="M49.114 20.69c.002.406-.427.73-.218 1.176.11-.422 1.025-.543.456-1.22l-.235.003c0 .014-.004.027-.003.04z"/><path fill="#181818" d="M49.114 20.69l.002-.04h-.164c-.12.4-.594.785-.057 1.216-.208-.444.22-.77.22-1.175z"/><path fill="#232323" d="M57.925 35.237l.23-.25c-.148-.48.257-.668.5-.943-.085-.072-.17-.144-.257-.215-.662.298-1.198.64-.473 1.407z"/><path fill="#060606" d="M58.398 33.83c.118.033.202.105.257.214.626-.142 1.246-.38 1.902-.15l.016-.314c-.754-.167-1.486-.145-2.175.25z"/><path fill="#060606" d="M58.398 33.83c.086.07.17.143.257.214-.055-.108-.14-.182-.257-.215z"/><path fill="#2A2A2A" d="M51.012 19.426c-.605.197-.958.652-1.242 1.178.63-.172.96-.65 1.242-1.178z"/><path fill="#4F4F4F" d="M58.123 30.9c-.397-.022-.8.007-1.18-.147-.008.18-.115.25-.354.176.517.334 1.03.34 1.533-.03z"/><path fill="#4F4F4F" d="M56.943 30.753c.38.154.784.125 1.18.148-.345-.306-.81-.124-1.19-.287.01.054.01.1.01.14z"/><path fill="#4F4F4F" d="M56.943 30.753l-.053-.02c-.015-.016-.026-.03-.04-.043l-.26.24c.238.073.346.003.353-.177z"/><path fill="#4F4F4F" d="M56.932 30.614l-.082.076c.013.015.024.028.04.042.017.01.035.014.053.02 0-.04 0-.085-.01-.138z"/><path fill="#181818" d="M46.685 17.437c-.26.547-.518 1.095-.9 1.905.722-.442.573-1.122 1.126-1.26-.084-.212-.396-.344-.225-.645z"/><path fill="#181818" d="M46.91 18.082l-.225-.645c-.17.3.14.433.226.645z"/><path fill="#1D1D1D" d="M59.77 39.25c.025-.05.05-.072.074-.072-.583-.04-1.168-.086-1.75-.126 0 .114.002.335.004.335h1.752c-.077 0-.104-.086-.08-.137z"/><path fill="#1D1D1D" d="M59.77 39.258c-.024.05.003.098.08.145-.007-.073-.01-.146-.006-.22-.025 0-.05.024-.074.075z"/><path fill="#2D2D2D" d="M59.41 42.068c.19-.002.353.05.478.184l.117.014c.194.048.4-.104.59.037-.434-.36-.954-.534-1.48-.694.113.106.16.254.236.383.02.027.04.052.06.075z"/><path fill="#2D2D2D" d="M60.005 42.265l-.117-.014c.066.07.122.164.164.284l.542-.232c-.188-.14-.395.01-.59-.037zM59.41 42.068c-.02-.022-.04-.048-.06-.077-.076-.127-.123-.275-.235-.383.007.165.015.33.02.493.097-.02.188-.032.275-.032z"/><path fill="#373737" d="M44.377 16.235l-.298 1.26c.076.094.153.19.23.283.232-.464.622-.92.067-1.543z"/><path fill="#3F3F3F" d="M58.652 31.8c.062-.043.107-.1.135-.172-.455-.217-.91-.217-1.368-.005l.358.267.874-.09z"/><path fill="#151515" d="M58.652 31.8c.09.226-.123.587.275.67.094.018.275-.06.31-.14.19-.437-.338-.44-.45-.702.002.095-.043.152-.135.17z"/><path fill="#151515" d="M58.652 31.8c.092-.02.137-.078.135-.172-.028.072-.073.13-.135.17z"/><path fill="#373737" d="M58.57 42.528c.405-.236.003-.727.315-.992l-.447-.25-.536.05c.28.365 1.132.41.67 1.192z"/><path fill="#373737" d="M58.57 42.528c.45-.22.266-.644.315-.992-.312.265.09.756-.314.992z"/><path fill="#0A0A0A" d="M44.31 17.78c-.158-.03-.17-.177-.23-.285-.033.395-.453.74-.135 1.24.334-.267.324-.622.365-.956z"/><path fill="#0A0A0A" d="M44.31 17.78l-.23-.285c.06.108.07.255.23.284z"/><path fill="#8F8F8F" d="M59.028 40.9c-.3-.015-.627.062-.84-.25-.37.115-.32.403-.286.686.167-.14.344-.174.536-.05.162-.3.496-.088.71-.237-.062-.04-.1-.09-.12-.15z"/><path fill="#8F8F8F" d="M59.028 40.9c.02.06.058.11.12.15-.025-.058-.06-.108-.107-.15h-.012zM57.902 41.336l.536-.05c-.192-.124-.37-.09-.536.05z"/><path fill="#252525" d="M59.017 40.858c-.003-.02-.006-.04-.006-.06.005-.154.065-.3.077-.452l-.898.304c.237.198.627-.12.827.208z"/><path fill="#252525" d="M59.017 40.858c.008.013.017.025.024.04.277-.162.374-.34.046-.552-.012.153-.072.298-.076.452 0 .022.004.04.007.06z"/><path fill="#252525" d="M59.028 40.9c-.005-.015-.01-.028-.01-.042-.2-.33-.59-.01-.83-.208.213.313.54.236.84.25z"/><path fill="#252525" d="M59.028 40.9h.013c-.006-.017-.014-.03-.023-.042.002.015.006.028.01.04z"/><path fill="#494949" d="M45.022 18.944c.093-.08.185-.08.275.003.303-.268.274-.66.373-1.002l-.217-.27c-.288.375-.355.824-.43 1.27z"/><path fill="#494949" d="M45.022 18.944c.092 0 .184.002.275.003-.09-.082-.182-.083-.275-.003z"/><path fill="#434343" d="M57.252 29.285c.292-.154.6-.27.91-.367-.017-.05-.017-.122-.007-.204-.38.065-.77.11-.976.51.033.02.056.04.072.06z"/><path fill="#434343" d="M57.272 29.38c-.02.06-.042.09-.067.09l1.226-.522c-.162.078-.238.052-.267-.03-.312.1-.62.213-.91.367.023.03.03.06.02.095zM58.163 28.918c.057-.018.115-.034.17-.052l-.18-.152c-.007.082-.007.154.01.204z"/><path fill="#434343" d="M58.43 28.947c-.03-.026-.063-.054-.096-.08l-.17.05c.03.082.105.108.267.03zM57.252 29.285c-.016-.02-.04-.042-.073-.06.002.03.005.06.01.092.02-.012.04-.02.062-.032z"/><path fill="#434343" d="M57.272 29.38c.01-.034.003-.065-.02-.095-.02.01-.042.02-.063.032l.015.153c.025 0 .047-.03.067-.09z"/><path fill="#333" d="M49.352 20.646c-.027-.344.52-.67.03-1.028.017.334-.207.608-.258.925.075-.01.152.023.228.103z"/><path fill="#333" d="M48.953 20.65c.057-.063.114-.098.17-.107.052-.317.276-.59.26-.925-.29.284-.467.614-.43 1.033zM49.124 20.543c-.005.035-.007.07-.008.106l.235-.004c-.074-.08-.15-.114-.226-.103z"/><path fill="#333" d="M49.124 20.543c-.058.01-.115.043-.17.108h.163c0-.036.002-.072.007-.107z"/><path fill="#2B2B2B" d="M57.15 26.682c.504-.314.932-.65.355-1.263.02.452-.487.654-.512 1.082.135-.012.183.05.156.18z"/><path fill="#2B2B2B" d="M57.505 25.414v-.002l-.002.005.002.003v-.007z"/><path fill="#2B2B2B" d="M57.506 25.412v-.01l-.002.01v.002l.002-.002zM56.993 26.502c.056.056.108.115.156.18.026-.13-.022-.192-.157-.18z"/><path fill="#343434" d="M57.646 27.413c.294-.15.738-.006 1.015-.513-.536.01-.947-.064-1.265.304.257-.14.274.01.25.21z"/><path fill="#343434" d="M57.394 27.204l.25.208c.025-.198.008-.348-.25-.208z"/><path fill="#2E2E2E" d="M53.907 26.926c.542-.217.843-.36.896-.908-.42.152-.747.236-.896.908z"/><path fill="#393939" d="M55.045 28.127c-.023.047.133.26.18.25.35-.063.644-.214.707-.794-.404.187-.736.237-.887.544z"/><path fill="#272727" d="M53.476 21.946c-.035-.016-.068-.024-.102-.032l-.543.36c.012.014.024.025.034.04.033.107.01.196-.078.266.505.004.824-.24.965-.723-.073.083-.164.112-.274.09z"/><path fill="#272727" d="M53.374 21.914c.034.007.067.016.102.032.11.023.2-.005.275-.087l-.277-.01-.1.064zM52.864 22.315c-.01-.016-.022-.027-.033-.042-.017.013-.036.025-.054.037l.01.27c.088-.07.11-.16.078-.265z"/><path fill="#454545" d="M48.01 20.52c0-.005.003-.01.005-.014l-.113-.132-.28.264c.188.16.294.05.387-.118z"/><path fill="#454545" d="M47.562 21.307c.48.15.37-.44.552-.684l-.1-.117c0 .005-.004.01-.005.014-.093.168-.2.28-.387.118.007.236-.446.55-.06.67z"/><path fill="#070707" d="M48.405 19.647c-.323.135-.525.352-.504.726.054.023.098.056.132.096.13-.275.283-.534.373-.823z"/><path fill="#070707" d="M48.114 20.622c.106-.322.514-.554.29-.975-.09.288-.243.547-.372.822.038.04.065.092.082.152zM48.032 20.47c-.035-.04-.08-.073-.13-.097l.113.132.017-.036z"/><path fill="#070707" d="M48.032 20.47l-.018.036c.033.04.066.077.1.116-.017-.06-.044-.11-.082-.153z"/><path fill="#292929" d="M60.556 33.895c.494.15-.114.698.39.986.165-.594.503-1.1-.374-1.3.103.11.098.214-.016.315z"/><path fill="#292929" d="M60.572 33.58l-.016.314c.114-.1.12-.205.016-.315z"/><path fill="#282828" d="M49.526 18.97c.015.16-.028.307-.14.438.704.043.464-.633.713-.937-.28.045-.305.442-.574.5z"/><path fill="#282828" d="M49.526 18.97c-.037.008-.08.01-.127.003l-.015.435c.112-.13.156-.278.14-.438z"/><path fill="#282828" d="M49.505 18.853c0 .003.003.005.005.007.01.038.013.074.016.11.27-.058.294-.456.573-.5-.464-.242-.47.153-.595.383z"/><path fill="#282828" d="M49.51 18.86l-.005-.007c-.027.05-.06.094-.106.12.047.007.09.005.126-.003-.004-.036-.007-.072-.016-.11z"/><path fill="#555" d="M48.563 17.72c-.002-.057-.246-.17-.262-.153-.21.232-.358.492-.163.845.325-.13.436-.386.426-.692z"/><path fill="#222" d="M50.997 23.586c.503 0 .574-.396.944-.953-.687.265-.974.443-.943.953z"/><path fill="#505050" d="M55.402 23.53c.056.04.065.13.052.246.166-.134.478-.15.446-.446-.024-.23-.218-.287-.43-.253.085.193.034.333-.068.454z"/><path fill="#505050" d="M55.402 23.53c.102-.12.153-.26.067-.453l-.277.465c.103-.04.168-.04.21-.01z"/><path fill="#505050" d="M55.402 23.53c-.03.037-.066.073-.104.107l.155.14c.015-.117.005-.208-.05-.246z"/><path fill="#505050" d="M55.402 23.53c-.04-.027-.106-.028-.208.013l.105.094c.036-.034.07-.07.102-.106z"/><path fill="#1C1C1C" d="M45.732 17.057c-.372-.14-.188.396-.28.62.152.026.163.166.218.27-.07-.32.527-.716.062-.89z"/><path fill="#1C1C1C" d="M45.453 17.676l.217.27c-.055-.105-.066-.244-.217-.27z"/><path fill="#464646" d="M57.418 31.623c-.26.03-.687.06-.493.396.226.39.573.01.852-.13-.247.083-.376.006-.36-.267z"/><path fill="#464646" d="M57.777 31.89l-.358-.267c-.02.273.11.35.357.267z"/><path fill="#444" d="M57.925 35.237c.25.322.55.39.992.15-.292-.153-.527-.275-.762-.4.076.226.01.32-.23.25z"/><path fill="#444" d="M58.155 34.988l-.23.25c.24.07.306-.025.23-.25z"/><path fill="#494949" d="M58.385 37.888c.45.033.898.04 1.323-.15-.43.142-.897-.036-1.323.15z"/><path fill="#494949" d="M58.385 37.833c.426-.185.893.094 1.323-.15-.452 0-.917-.206-1.323.15z"/><path fill="#262626" d="M20.89 28.953c-.432.36-.656.225-.717-.3-.034-.144-.11-.204-.257-.14.002.054.004.107.008.16-.53.51-1.2.145-1.79.28-.137.03-.34-.073-.393.13-.05.19-.023.41.176.515.242.126.504.214.758.32l.245-.196c-.064-.047-.13-.09-.19-.143-.015-.015-.01-.05-.014-.077.74-.04 1.478-.075 2.216-.123.16-.01.46.046.262-.285-.048-.08-.2-.096-.304-.142z"/><path fill="#1B1B1B" d="M18.228 41.333c-.414.177-.855.23-1.29.19-.397-.035-.845-.08-1-.542-.14-.418.152-.67.454-.894.02-.013.038-.02.056-.034l-.173-.14c-.76.364-1.13.903-.284 1.465.676.45 1.507.626 2.238-.044z"/><path fill="#1B1B1B" d="M16.145 40.915c-.167-.386.235-.536.4-.784-.032-.024-.064-.05-.096-.077-.02.012-.04.02-.057.034-.302.223-.593.476-.454.895.153.462.602.507.997.542.436.04.877-.013 1.29-.19-.393.007-.788.015-1.182.02-.374.002-.736-.063-.9-.44z"/><path fill="#181818" d="M16.95 37.11c0-.02.036-.063.056-.064.728-.003 1.455.002 2.183.002-.003-.115-.005-.338-.007-.338H15.36c.563.486 1.086.693 1.634.762 0-.082 0-.167.002-.25-.017-.036-.042-.075-.045-.113z"/><path fill="#232323" d="M28.71 17.43c.22.518.376.88.532 1.245l.3.02c.387-.487.54.36.877.154.02-.04.05-.075.082-.105-.353-.705-.887-1.147-1.793-1.316z"/><path fill="#454545" d="M16.84 38.212l-1.044.372 3.325.283c-.366-.626-.916-.373-1.37-.51-.315.023-.645.135-.91-.145z"/><path fill="#2C2C2C" d="M23.286 24.03c-.195.017-.2-.074-.442-.24-.244.017-.403.035-.617.053.322.583.646 1.176 1.254 1.68.024-.415-.166-.725.08-.984-.223-.1-.25-.306-.274-.51z"/><path fill="#343434" d="M21.626 26.73v.24c.382.423.86.432 1.26.127.398-.303.363-.736-.176-1.443.253 1.417-.545 1.025-1.084 1.077z"/><path fill="#1C1C1C" d="M18.465 41.334c.533-.033.805-.353.755-.848-.056-.555-.498-.75-1-.813l-.01.12c.9.363.863.9.255 1.54z"/><path fill="#1C1C1C" d="M18.21 39.794l-.01.13c.758.345.318.914.265 1.41.608-.642.644-1.178-.256-1.54z"/><path fill="#1B1B1B" d="M30.503 18.744l-.083.104c.244.503.667.774 1.397 1.148-.387-.778-.09-1.836-1.314-1.252z"/><path fill="#1B1B1B" d="M30.503 18.744c-.033.03-.06.064-.083.104l.083-.104z"/><path fill="#333" d="M21.1 24.714c-.364-.412-.66-.37-.962-.067-.334.335-.316.66.21 1.378-.097-.893.224-1.2.753-1.31z"/><path fill="#242424" d="M28.808 21.104c-.508.655-.947.465-1.354-.11.29.864.722 1.27 1.522.464l-.16-.374c-.002.006-.004.013-.008.02z"/><path fill="#242424" d="M28.808 21.104c.004-.006.005-.013.01-.02l-.076-.177c-.378.786-.846.248-1.288.086.407.576.846.765 1.354.11z"/><path fill="#1E1E1E" d="M26.822 19.05c.71-.768 1.076.15 1.594.326-.39-.638-.783-1.272-1.67-.666.007.123.012.246.075.343l.002-.002z"/><path fill="#1E1E1E" d="M26.822 19.05v.003c.028.044.067.084.126.115.578-.553.953.322 1.468.208-.518-.174-.885-1.093-1.594-.325z"/><path fill="#191919" d="M23.8 20.93c-.43.198-.84.432-.972.94-.01.032.017.075.027.113.318-.36 1.244-.035 1.17-.85-.007-.077-.186-.22-.225-.202z"/><path fill="#2E2E2E" d="M22.708 23.64c.06.01.117.025.173.044l-.042-.328c-.367-.182-.67-.524-1.162-.488.05.434.31.705.577.973.108-.163.272-.203.455-.2z"/><path fill="#2E2E2E" d="M22.88 23.685c-.055-.02-.112-.034-.172-.043-.183-.004-.347.036-.456.2l.643-.052-.014-.105z"/><path fill="#343433" d="M16.78 33.47c-.24-.025-.55-.44-.697-.04-.156.42.182.628.605.633.345-.156.688-.312 1.032-.47-.313-.04-.626-.09-.94-.124z"/><path fill="#383838" d="M17.99 33.985c.04-.033.085-.05.135-.06l.386-.17c-.236-.183-.506-.2-.79-.16-.19.496-.598.51-1.032.467.134.242.656.193.49.658l.295.086v0l.02-.548c.048-.304.33-.185.498-.273z"/><path fill="#383838" d="M17.72 33.595c-.344.156-.688.312-1.032.47.434.04.843.027 1.032-.47z"/><path fill="#3E3E3E" d="M17.116 38.108c.21-.044.42-.09.63-.133.334-.09.548-.233.105-.466-.262-.14-.568-.196-.855-.288.073.055.098.11.073.165s-.05.082-.075.082l-.33.403.28.218c.058.004.116.01.173.018z"/><path fill="#3E3E3E" d="M17.068 37.386c.025-.055 0-.11-.073-.165v.248c.023 0 .047-.027.073-.082zM17.116 38.108c-.057-.008-.115-.014-.172-.018.018.014.036.03.054.042l.118-.024z"/><path fill="#1C1C1C" d="M17.18 34.722c-.274.005-.547.003-.82.02-.27.016-.648.002-.582.383.07.404.462.054.685.16.263-.096.472-.354.796-.27l.117.002.108-.048-.01-.154c-.116.043-.215.015-.296-.094z"/><path fill="#1C1C1C" d="M17.474 34.814v-.007l-.294-.086c.08.11.18.14.294.094z"/><path fill="#1A1A1A" d="M18.124 39.776c.002-.008.003-.017.008-.024.03-.053.058-.08.085-.08-.674-.138-1.333-.155-1.942.24.074.037.16.058.216.115.51-.3 1.067-.3 1.634-.25z"/><path fill="#1A1A1A" d="M16.546 40.13c.542-.143 1.082-.306 1.655-.206-.063-.052-.087-.102-.075-.148-.567-.05-1.126-.048-1.633.25.025.027.046.06.054.105zM16.49 40.027c-.054-.057-.14-.078-.214-.115l.173.14c.013-.01.028-.016.04-.025z"/><path fill="#1A1A1A" d="M16.49 40.027c-.013.01-.027.016-.04.025l.096.08c-.008-.047-.03-.08-.055-.105zM18.133 39.752c-.005.007-.006.016-.008.024.018 0 .035.002.052.004l.033.015.01-.12c-.03-.002-.058.024-.087.077z"/><path fill="#1A1A1A" d="M18.2 39.924l.01-.13-.034-.014-.052-.004c-.012.047.012.096.077.148z"/><path fill="#323232" d="M16.763 38.086c.022 0 .044.002.065 0-.066-.06-.125-.13-.166-.214-.33.078-.696.094-.984.25-.297.16-.286.397.117.46.117-.564.62-.377.968-.496z"/><path fill="#323232" d="M16.94 38.186c-.038-.03-.075-.063-.112-.097-.02 0-.043-.003-.065-.003-.347.12-.85-.068-.968.5.348-.126.696-.25 1.043-.374.04.003.074-.01.103-.027zM16.828 38.088c.04 0 .077 0 .115.002l-.28-.218c.04.086.1.154.165.216z"/><path fill="#323232" d="M16.997 38.133c-.02-.014-.036-.028-.054-.042h-.115c.036.033.074.065.113.096.022-.014.042-.03.057-.053z"/><path fill="#2C2C2C" d="M17.517 34.8c-.015.006-.03.01-.043.014.006.05.01.102.01.153.312-.023.674.14.944-.282-.332-.15-.634-.29-.935-.426.14.174.14.354.024.54z"/><path fill="#2C2C2C" d="M17.474 34.814c.014-.005.028-.008.043-.015.115-.187.116-.367-.024-.54l-.02.546v.008z"/><path fill="#3D3D3D" d="M16.57 42.816c-.633.367-1.056.753-.104 1.27l.048-.31c-.174-.336.116-.633.057-.96z"/><path fill="#464646" d="M16.463 35.284c.47.266.99.36 1.518.427l.01-.273c-.144-.314-.63-.04-.73-.425-.23.198-.46.39-.797.272z"/><path fill="#464646" d="M16.463 35.284c.336.117.567-.074.796-.272-.325-.082-.534.176-.797.272z"/><path fill="#010101" d="M19.055 26.693c.515.593 1.003.89 1.594 1.02 0-.055 0-.11.002-.167-.414-.39-.848-.738-1.597-.853z"/><path fill="#3D3D3D" d="M25.06 20.036c.176.417.312.855.775 1.067l.11-.062c-.02-.56-.356-.857-.885-1.004z"/><path fill="#424242" d="M28.873 20.924c.29.07.12.334.104.533.462-.65.037-1.187-.228-1.743-.08.41.21.8.123 1.21z"/><path fill="#424242" d="M28.742 20.907c.052.002.095.008.13.017.09-.41-.2-.802-.124-1.21-.31.396.015.795-.006 1.193zM28.873 20.924c-.01.053-.03.105-.056.16l.16.374c.017-.2.184-.464-.104-.534z"/><path fill="#424242" d="M28.817 21.083c.025-.054.044-.107.056-.16-.037-.008-.08-.015-.13-.017.024.06.05.118.074.177z"/><path fill="#323233" d="M26.783 19.152c-.227-.053-.177-.228-.037-.44-.482.663-.417 1.25.247 1.75-.233-.417-.386-.843-.21-1.31z"/><path fill="#323233" d="M26.947 19.17c-.068 0-.12-.008-.164-.018-.176.467-.022.894.21 1.31.068-.433-.27-.853-.046-1.293z"/><path fill="#323233" d="M26.783 19.152c.012-.033.022-.065.037-.098-.062-.097-.068-.22-.074-.343-.14.214-.19.39.037.442z"/><path fill="#323233" d="M26.82 19.054c-.015.033-.025.065-.037.098.045.01.097.017.165.017-.06-.032-.1-.072-.128-.116z"/><path fill="#2F2F2F" d="M17.72 43.968c0 .088.004.175.006.264.484.035.91-.1 1.268-.436l-.273-.227-1 .398z"/><path fill="#404040" d="M25.945 21.042c-.026.037-.062.057-.11.062.067.467.347.766.754.966l.082-.042c.008-.515-.252-.83-.727-.986z"/><path fill="#030303" d="M19.148 42.856c.012.33-.216.516-.427.713.113.05.25.07.274.226.52-.282.912-.606.4-1.226-.082.097-.164.19-.246.286z"/><path fill="#030303" d="M18.72 43.57c.092.075.183.15.274.227-.025-.156-.16-.177-.273-.227z"/><path fill="#353535" d="M21.565 26.81c.02-.053.04-.08.06-.08-.347-.3-.63-.726-1.303-.675.41.487.753.847 1.305.915-.062-.053-.083-.106-.062-.16z"/><path fill="#353535" d="M21.565 26.81c-.02.054 0 .107.062.16v-.24c-.022 0-.042.027-.062.08z"/><path fill="#1D1D1D" d="M19.546 31.907s-.044.003-.044.005l-.066.003h.088c.545.232-.55.715.132.876.283.067.527-.186.54-.508.02-.533-.242-.595-.65-.375z"/><path fill="#525252" d="M18.703 31.123c-.332-.38-.735-.38-1.165-.283.354.3.724.506 1.178.47.024-.064.02-.127-.013-.187z"/><path fill="#616161" d="M30.715 17.693c.174-.366.022-.63-.17-.873-.022-.026-.27.054-.28.106-.056.337.082.586.45.767z"/><path fill="#1D1D1D" d="M20.807 30.637l-1.118-.507c-.08.07-.158.14-.236.212.36.128.665.47 1.353.295z"/><path fill="#505050" d="M30.254 20.708c.12-.585-.137-.93-.36-1.283-.095.005-.192.01-.288.017.1.436.175.887.648 1.266z"/><path fill="#0A0A0A" d="M18.125 33.926l-.134.06c.34.078.683.145 1.017.24.17.05.338.06.4-.1.096-.255-.09-.336-.31-.348-.194-.01-.39-.015-.586-.02-.08.162-.244.14-.385.168z"/><path fill="#0A0A0A" d="M18.51 33.756l-.385.17c.14-.03.305-.006.386-.17z"/><path fill="#1F1F1F" d="M24.44 22.323c.186.473.395.92 1.256 1.21-.478-.65-.72-1.062-1.256-1.21z"/><path fill="#222" d="M18.062 35.622c-.027.06-.055.088-.08.088.368-.014.733.458 1.194.046-.405-.317-.81-.263-1.187-.32.076.064.1.126.072.186z"/><path fill="#222" d="M18.062 35.622c.028-.06.004-.122-.072-.186l-.008.274c.026 0 .052-.03.08-.088z"/><path fill="#111" d="M19.916 28.514c-.35-.21-.658-.533-1.186-.445.362.38.736.578 1.194.603-.033-.052-.036-.105-.008-.16z"/><path fill="#161616" d="M23.583 23.802l-.203.17c.146.158.2.352.198.567l.46-.128.02-.346c-.158-.09-.317-.176-.475-.264z"/><path fill="#161616" d="M23.31 24.03c.024.204.046.41.268.51 0-.216-.052-.41-.198-.567l-.07.057z"/><path fill="#424242" d="M26.67 22.027l-.082.042c-.008.338.124.597.454.707.05.016.227-.146.215-.193-.073-.3-.188-.585-.586-.557z"/><path fill="#3C3C3C" d="M17.24 31.885c-.115.085-.228.17-.34.256.36.134.723.266 1.084.398l.293-.25c-.346-.133-.693-.268-1.038-.403z"/><path fill="#3A3A3A" d="M19.394 42.57c-.294-.373-.63-.494-1.15-.234l.903.52c-.08-.236.012-.32.247-.285z"/><path fill="#3A3A3A" d="M19.148 42.856l.247-.285c-.236-.035-.33.05-.247.286z"/><path fill="#555" d="M29.242 18.674c.103.264.1.58.364.768.09-.088.188-.098.29-.017-.007-.297-.126-.542-.355-.732-.104.08-.204.078-.298-.02z"/><path fill="#555" d="M29.242 18.674c.094.097.194.1.3.02-.1-.008-.2-.014-.3-.02zM29.606 19.442l.29-.017c-.102-.08-.198-.07-.29.017z"/><path fill="#4B4B4B" d="M22.933 23.706c.13.052.255.124.376.2.01-.13.078-.194.272-.104-.25-.148-.497-.297-.745-.445.114.105.145.222.096.35z"/><path fill="#4B4B4B" d="M23.31 23.906c-.122-.076-.246-.148-.377-.2-.01.027-.02.055-.038.083.088.165.22.256.416.24-.004-.046-.004-.087 0-.124zM22.933 23.706c.048-.127.018-.244-.096-.35.014.11.03.22.043.33.02.004.035.013.053.02z"/><path fill="#4B4B4B" d="M22.933 23.706c-.018-.007-.035-.016-.053-.02l.014.103c.02-.03.03-.057.04-.084zM23.31 23.906l.026.017c.017.016.028.033.043.05.067-.057.135-.115.202-.17-.194-.09-.26-.027-.273.103z"/><path fill="#4B4B4B" d="M23.31 23.906c-.004.037-.004.08 0 .124l.07-.057c-.016-.017-.027-.034-.044-.05-.01-.006-.018-.01-.027-.017z"/><path fill="#353535" d="M24.058 24.065c.102.122.094.237-.02.346.228.168.545.62.724.218.18-.405-.423-.41-.704-.563z"/><path fill="#353535" d="M24.058 24.065l-.02.346c.114-.108.12-.222.02-.345z"/><path fill="#0A0A0A" d="M17.643 44.058c.025-.06.05-.09.077-.09-.415.02-.825.003-1.206-.193.108.123.093.227-.047.31.39.305.828.197 1.26.148-.08-.058-.11-.116-.084-.175z"/><path fill="#0A0A0A" d="M16.513 43.774l-.047.31c.14-.083.156-.187.047-.31zM17.643 44.058c-.025.06.003.118.084.175l-.007-.264c-.026-.002-.052.028-.077.088z"/><path fill="#1E1E1E" d="M18.277 32.29c-.038.155-.19.17-.293.25.337.06.626.406 1.057.15-.125-.4-.472-.35-.763-.4z"/><path fill="#1E1E1E" d="M18.277 32.29l-.293.25c.1-.08.255-.096.293-.25z"/><path fill="#282828" d="M18.703 31.123c.086.036.117.075.093.12-.026.044-.052.067-.08.067.213.276.664.226.82.582.28-.838-.372-.703-.833-.77z"/><path fill="#282828" d="M19.537 31.892l-.007.022.016-.007-.01-.015zM19.55 31.912l-.004-.005-.016.007c-.002.002.022-.003.02-.002zM18.797 31.24c.024-.043-.006-.082-.093-.118.03.06.036.123.014.187.026 0 .052-.023.08-.07z"/><path fill="#555" d="M18.673 29.917c.194.263.493.335.78.425-.04-.205-.02-.337.236-.212l-.772-.408c.03.207-.012.32-.245.195z"/><path fill="#555" d="M18.918 29.722l-.245.195c.233.124.276.012.245-.195zM19.454 30.342l.235-.212c-.256-.126-.278.007-.236.212z"/><path d="M20.652 27.545c0 .057 0 .112-.002.168.127.334.43.414.73.493l.003-.258c-.192-.228-.415-.4-.73-.403z"/><path fill="#343434" d="M17.24 31.885c-.234-.036-.47-.432-.68-.106-.197.3.088.363.34.362.033-.19.2-.204.34-.257z"/><path fill="#343434" d="M16.898 32.142c.114-.086.227-.17.34-.257-.137.053-.305.067-.34.257z"/><path fill="#141414" d="M20.89 28.953l-.717-.3c.192.21.392.406.717.3z"/><path fill="#141414" d="M20.89 28.953c-.325.105-.524-.088-.717-.3.06.525.285.66.717.3z"/><path fill="#010101" d="M21.455 28.123c-.025.056-.05.084-.077.084l.426.327c.064-.09.127-.183.192-.274l-.614-.31c.076.058.1.116.073.173z"/><path fill="#010101" d="M21.455 28.123c.026-.057.003-.115-.073-.173 0 .086-.003.172-.004.258.026 0 .05-.03.077-.085z"/><path fill="#767676" d="M31.824 58.88c.02-.056.058-.106.1-.155-.07-.046-.138-.095-.204-.15l-.002.002c-.003.09-.008.18-.01.27.038.004.077.017.116.032zM31.707 58.846c.003-.09.008-.18.01-.27-.177.057-.304.155-.297.364.098-.09.193-.11.287-.094z"/><path fill="#767676" d="M31.824 58.88c-.04-.016-.078-.03-.117-.035-.002.057-.004.113 0 .17l.01.023c.042.014.083.027.124.042-.04-.075-.038-.14-.016-.2z"/><path fill="#767676" d="M31.707 59.016c-.004-.057 0-.114 0-.17-.094-.015-.19.004-.287.094.1.033.2.066.298.1-.003-.01-.007-.017-.01-.024zM31.824 58.88c.056.02.11.048.167.075.003 0 .004.003.007.004l.13-.103-.203-.133c-.042.05-.08.1-.1.155z"/><path fill="#767676" d="M31.824 58.88c-.022.06-.023.124.017.2l.156-.12-.006-.005c-.055-.026-.11-.054-.166-.076zM32.073 58.558c-.043-.1-.132-.135-.353.02.065.053.134.1.204.148 0-.002.003-.003.004-.005.05-.053.097-.108.145-.162z"/><path fill="#767676" d="M31.928 58.72l-.004.005c.067.045.136.088.202.133-.013-.106-.02-.223-.053-.3-.048.054-.095.11-.145.162z"/></svg><svg width="81" height="37" viewBox="0 0 81 37" id="nextStop_blcok"><path fill="#499210" d="M61.66 0H0l8.514 16.818L0 37h58.622L81 18.875"/></svg><svg width="81" height="37" viewBox="0 0 81 37" id="year_block" y="37"><path fill="#499210" d="M61.66 0H0l8.514 16.818L0 37h81V0"/></svg></svg>