<?xml version="1.0" encoding="utf-8"?><!DOCTYPE svg PUBLIC "-//W3C//DTD SVG 1.1//EN" "http://www.w3.org/Graphics/SVG/1.1/DTD/svg11.dtd"><svg width="231" height="150" viewBox="0 0 231 150" xmlns="http://www.w3.org/2000/svg" xmlns:xlink="http://www.w3.org/1999/xlink"><svg width="43.313" height="26.496" viewBox="0 0 43.313 26.496" id="goDown" x="149.73" y="74"><path fill="#E0E0E0" d="M21.657 20.623L4.8 0H0s13.1 26.496 21.657 26.496C30.212 26.496 43.313 0 43.313 0H38.51L21.658 20.623z"/></svg><svg width="149.73" height="149.821" viewBox="0 0 149.73 149.821" id="logo_cuc"><path fill="#D1B526" d="M76.483.01C34.666-.63 1.233 31.987.033 72.653c-1.245 42.29 32.04 76.34 73.042 77.153 42.27.836 76.044-32.19 76.65-74.567.574-40.284-32.89-74.615-73.242-75.23zm9.727 83.17c2.67 3.423 2.648 7.313 2.16 11.377-.254-.083-.375-.087-.397-.135C83.38 84.15 74.713 80.73 64.255 80.268c-3.6-.16-7.183-.503-10.605-1.768-.692-.255-1.367-.555-1.98-1.31l7.243-1.08c6.538-.97 11.756-4.045 15.433-9.62 1.852-2.805 3.727-5.597 5.65-8.353 1.072-1.535 2.557-2.642 4.59-4.173-1.123 3.125-2.008 5.574-2.594 8.132-1.76 7.69-.712 14.76 4.218 21.083zm10.666 14.618c-9.075 10.132-27.55 12.52-39.766 3.577 13.554-.98 26.306-4.603 39.766-3.577zM60.71 43.558c-15.81 7.55-23.384 23.698-18.98 40.59.345 1.324.228 2.257-.708 3.366-2.75 3.256-6.035 5.898-9.22 8.677-1.576 1.377-1.96.49-2.522-.832-6.503-15.332-6.01-30.437 2.16-44.938 8.037-14.266 20.527-22.423 36.676-25 .23-.036.468-.056.7-.043.147.008.29.09.652.215-2.312 5.554-4.622 11.09-6.914 16.635-.352.848-1.162 1.004-1.845 1.33zm.307 2.643C55.202 58.806 51.5 71.703 44.22 83.714 39.518 69.706 47.41 52.1 61.018 46.2zM34.415 96.92C40.04 92.314 44.83 87 48.56 80.755c.58-.973 1-1.62 2.338-.973 4.536 2.19 9.484 2.416 14.39 2.845 5.907.516 11.68 1.458 16.08 6.03 1.476 1.534 2.653 3.274 3.71 5.114.662 1.152.677 1.816-.916 2.02-14.638 1.88-29.27 3.798-43.9 5.72-4.18.548-8.352 1.148-12.528 1.706-.66.09-1.332.077-2.638.145 3.494-2.332 6.55-4.17 9.32-6.44zm.8 7.903c.24-.837 1.2-.515 1.847-.602 4.958-.674 9.928-1.268 14.88-1.992 1.102-.16 1.905.038 2.814.657 14.442 9.84 31.73 8.462 44.277-3.522.795-.76 1.482-1.09 2.667-.892 4.51.76 8.737 2.388 12.997 3.943 1.388.506 1.105 1.123.42 2.028-7.87 10.434-18.146 17.06-31.006 19.568-3.07.6-6.18.967-9.343.923-15.556-.414-28.48-6.37-38.526-18.366-.438-.525-1.23-1.024-1.024-1.74zm57.112-9.512c-1.196-.014-1.695-.345-1.55-1.63.576-5.13-.858-9.55-3.908-13.824-5.435-7.62-3.585-15.655-.48-24.162 12.555 16.31 24.77 32.173 36.982 48.038-9.875-5.17-20.04-8.29-31.045-8.42zM82.322 44.25c11.382 1.1 26.415 15.376 24.183 34.088-8.01-11.857-18.007-21.46-24.183-34.09zm37.83 51.498c-3.836-4.98-7.41-9.625-10.992-14.264-.498-.645-.284-1.33-.22-2.027 1.697-18.634-8.36-33.184-26.346-38.046-1.023-.275-1.576-.676-1.945-1.698-1.56-4.304-2.24-8.79-2.955-13.274-.237-1.485.74-1.262 1.592-1.2 5.85.423 11.39 2.013 16.704 4.452 23.633 10.848 34.98 39.27 25.333 63.44-.287.716-.63 1.41-1.172 2.618zM83.023 50.434c.518.925.475 1.466-.43 2.113-3.51 2.508-6.054 5.88-8.068 9.63-4.84 9.012-12.702 12.413-22.83 12.36 7.685-18.59 15.31-37.027 22.93-55.466.393 11.238 2.97 21.668 8.398 31.364zM10.53 102.25C-7.376 59.82 19.615 12.203 65.29 5.674c3.556-.508 7.145-.823 11.007-.53-.758 1.29-1.19 2.402-.54 3.553.426.75.13 1.342-.138 1.992-1.438 3.473-2.91 6.93-4.28 10.43-.486 1.243-1.18 1.738-2.55 1.91-22.628 2.828-40.18 18.777-45.032 41.01-2.45 11.217-1.224 22.123 3.573 32.563.733 1.594.71 2.405-.94 3.28-2.49 1.322-4.918 2.755-7.527 3.84-1.224.506-2.406 1.133-3.748.15-.36-.264-1.23-.306-1.56-.052-2.23 1.716-2.47-.255-3.024-1.57zm119.718 15.24c-14.18 17.87-32.724 26.88-56.366 27.47-24.59-.93-44.46-11.758-58.4-33.205-.538-.83-1.644-2.362-1.314-2.527 1.377-.69 2.14-2.306 3.737-2.52 4.265-.57 8.55-1 12.802-1.66 1.493-.23 1.895.732 2.544 1.563C41.654 117.37 52.475 124.34 66 126.408c20.86 3.19 37.857-3.83 50.832-20.44 1.175-1.503 1.974-1.832 3.52-.75 2.05 1.433 4.23 2.68 6.305 4.076 1.273.856 2.657 1.662 2.196 3.672-.153.67.42 1.492 1.077 1.688 2.468.74 1.125 1.823.32 2.836zm5.795-8.863c-1.938 3.563-2.294 3.868-5.036.966-3.265-3.455-5.952-7.46-8.835-11.268-.658-.868.23-1.63.535-2.373 6.667-16.27 6.05-32.246-2.865-47.414-8.95-15.233-22.564-23.755-40.2-25.6-1.654-.172-2.367-.52-2.25-2.312.166-2.495 0-5.004.402-7.497.25-1.552.383-2.974 1.916-4.023 1.294-.886.583-2.394.23-3.825 33.506 2.732 60.152 28.06 64.21 60.91 1.85 14.98-.883 29.154-8.107 42.435z"/><path fill="#2FC700" d="M27.733 103.216c4.177-.558 8.35-1.158 12.527-1.707 14.632-1.92 29.264-3.84 43.9-5.72 1.594-.204 1.58-.868.917-2.02-1.057-1.84-2.234-3.58-3.71-5.115-4.4-4.573-10.173-5.514-16.08-6.03-4.907-.43-9.854-.655-14.39-2.844-1.338-.645-1.757 0-2.34.974C44.83 87 40.04 92.314 34.415 96.92c-2.77 2.268-5.826 4.108-9.32 6.44 1.308-.068 1.98-.055 2.64-.144z"/><path fill="#DB0D00" d="M51.696 74.538c10.127.052 17.988-3.35 22.83-12.36 2.013-3.75 4.556-7.122 8.066-9.63.906-.646.95-1.188.43-2.113-5.426-9.696-8.003-20.126-8.396-31.363l-22.93 55.466z"/><path fill="#0000DB" d="M86.39 55.694c-3.105 8.506-4.955 16.542.48 24.162 3.05 4.276 4.483 8.695 3.907 13.823-.145 1.284.354 1.616 1.55 1.63 11.006.133 21.17 3.253 31.047 8.422L86.39 55.694z"/><path fill="#262626" d="M54.358 105.206c-.46 1.296-.98 2.204-2.225 1.898-.032.04-.067.08-.1.117-.33.496.62.943.256 1.206-.675.488-1.233-.234-1.823-.51-.01.95.655 1.582 1.107 2.313l.126.76c3.34-1.992 3.533-2.36 2.658-5.784z"/><path fill="#373737" d="M58.793 114.77c.264 1.36-.282 2.248-1.58 2.692.882.326 1.786.51 2.733.384.897-.302.513-1.334 1.05-1.84.608-.832-.543-1.41-.317-2.185-.015-.402.23-.592.574-.7v-.01c-.078-.117-.152-.237-.223-.36-.47-.13-.94-.262-1.41-.394l-.47.05.005.823c.845.743.14 1.117-.362 1.54z"/><path fill="#282828" d="M82 118.528c.4.29.718-.1 1.08-.128l.507-.022c.97-1.727.21-3.478.443-5.213-.938-.04-.766.658-1.012.75-2.76 1.027.354 3.316-1.017 4.613z"/><path fill="#1B1B1B" d="M91.225 116.662c.39.556.62-.264.887-.54l-.036-1.046.49-.895c-.405-.456-1.194-.817-.392-1.576-.167-.546-.064-1.364-.975-1.257-.816.096-.462.82-.53 1.292-.122.806.227 1.625-.34 2.44-.587.844.564 1.11.895 1.582z"/><path fill="#595959" d="M80.678 119.468c.244-1.668.335-3.36.51-5.357-1.46.99-1.603 2.17-1.814 3.316l.465 1.948c.245.446.78.485.838.094z"/><path fill="#10100F" d="M98.682 106.536c.14-.567.62-1.114.094-1.715-.59.815-2.062.822-2.024 2.21l.014.88c.64-.457 1.278-.916 1.916-1.374z"/><path fill="#242424" d="M98.682 106.536c-.008.293.01.59-.028.88-.12.888-.184 1.652.91.558.048-.303-.75-.42-.185-.835.362-.664.152-1.484.656-2.14.25-.325.27-1.005-.246-1.147-.666-.183-1.18.115-1.015.967 1.176.638.547 1.177-.093 1.716z"/><path fill="#242424" d="M98.682 106.536c.64-.54 1.27-1.078.094-1.715.527.602.047 1.15-.094 1.716z"/><path fill="#313131" d="M100.415 112.9c-.142.583.475.657.9.705.626.07.97-.258 1.112-.87.2-.86-.47-.97-1.183-1.293-.263.444-.696.914-.83 1.458z"/><path fill="#424242" d="M70.557 120.627c1.035.428 1.252-.416 1.268-1.258-1.046.53-1.283-.616-1.92-.93-.946 1.074-.23 1.822.652 2.187z"/><path fill="#252525" d="M48.89 113.962c1.965-.676 2.463-1.76 2.81-2.973-.28-.215-.32-.468-.125-.76-1.15.84-1.398 2.25-2.686 3.732z"/><path fill="#252525" d="M51.7 110.99c-.04-.254-.083-.508-.125-.76-.196.29-.154.544.126.76z"/><path d="M70.662 116.937c1.095.022.57-.814.706-1.296-.054-.417.19-1.108-.48-1.054-1.057.084-.49 1.133-.785 1.7-.25.478.117.64.56.65z"/><path fill="#262626" d="M68.878 113.905c-1.098.55-1.263 1.572-1.594 2.5.635-.693 2.113-.934 1.594-2.5z"/><path fill="#5F5F5F" d="M68.057 121.64c.735-.818.603-1.447.022-2.392-.586.985-.644 1.624-.023 2.393z"/><path fill="#4A4A4A" d="M99.88 110.713c1.115-.107 1.72-.438 1.393-1.545-.502.404-1.302.49-1.392 1.545z"/><path fill="#292929" d="M57.63 114.423c.212-.263.472-.424.822-.406h.002l.466-.52c-.013-.096-.035-.195-.08-.3 0-.307.1-.57.312-.788-1.13.036-1.396.98-1.834 1.745l.278.308.034-.04z"/><path fill="#292929" d="M58.92 113.497l.237-.265c0-.274-.003-.55-.004-.823-.214.217-.314.48-.313.786.045.106.067.204.08.3zM58.452 114.017c-.35-.02-.61.144-.822.406l-.034.04.17.187.545-.473.144-.16h-.002z"/><path fill="#A6A6A6" d="M62.523 112.73l-.48.936-.25.196c.633.354.217 1.122.61 1.572l.447-2.705h-.327z"/><path fill="#A6A6A6" d="M61.792 113.863l-.3.232.91 1.34c-.392-.45.023-1.22-.61-1.572z"/><path fill="#747474" d="M60.57 118.146c-.335.435-1.382-.084-1.222.442.202.664 1.027 1.068 1.753.263-.37-.087-.614-.272-.53-.704z"/><path fill="#747474" d="M61.1 118.85l-.53-.704c-.084.432.16.617.53.705z"/><path fill="#272727" d="M92.112 116.123c.452-.235 1.413.52 1.38-.563-.03-1.09-.944-.293-1.417-.483.28.34.278.688.037 1.046z"/><path fill="#272727" d="M92.076 115.077c.01.35.024.697.036 1.047.24-.36.242-.708-.036-1.047z"/><path fill="#010101" d="M82.39 120.825c.29-.548.136-1.025-.547-1.683-.16.71-.43 1.233-.017 1.735.153.185.427.21.564-.052z"/><path fill="#3D3D3D" d="M97.303 111.683c.99-.44 1.04-1.047.685-1.84-.993.247-.886.895-.685 1.84z"/><path fill="#555" d="M79.838 119.374c-.68-.524-.964-1.143-.465-1.948-.994.923-.992 1.61.465 1.948z"/><path fill="#555" d="M79.838 119.374l-.465-1.948c-.5.805-.216 1.424.465 1.948z"/><path fill="#535353" d="M72.09 118.892c.388-.108.712-.264.476-.753-.317-.658-.907-.668-1.517-.62.51.334 1.603.223 1.04 1.372z"/><path fill="#535353" d="M72.09 118.892c.563-1.148-.53-1.038-1.04-1.372.487.35 1.114.595 1.04 1.372z"/><path fill="#292929" d="M83.08 118.4c.37.572-.6 1.597.777 1.947.273-.733-.075-1.346-.27-1.97-.16.224-.328.242-.507.023z"/><path fill="#292929" d="M83.587 118.378l-.507.022c.18.22.347.2.507-.022z"/><path fill="#161616" d="M57.542 114.527c-.096-.105-.146-.25-.224-.373-.346.464-.692.93-1.04 1.393.6-.125.91-.598 1.264-1.02z"/><path fill="#161616" d="M57.766 114.65c-.104-.015-.17-.064-.225-.124-.352.423-.662.896-1.26 1.02 1.076.663 1.085-.44 1.486-.897z"/><path fill="#161616" d="M57.596 114.462l-.278-.308c.078.12.127.268.224.373l.054-.065z"/><path fill="#161616" d="M57.542 114.527c.054.06.12.108.225.123l-.17-.188c-.02.02-.037.043-.055.065z"/><path fill="#030303" d="M96.766 107.91c-.28-.288-.27-.58-.014-.88-.543.045-1.454-.29-1.377.598.075.856.843.53 1.39.283z"/><path fill="#030303" d="M96.766 107.91l-.014-.88c-.254.3-.264.592.014.88z"/><path fill="#5C5C5C" d="M99.563 107.93c.48-.36 1.265.105 1.735-.835H99.38c.192.47.36.504.183.835z"/><path fill="#5C5C5C" d="M99.563 107.975c.18-.33.01-.585-.184-.835-.567.415.232.533.183.835z"/><path d="M61.572 111.735c.007.022.01.043.015.064.09-.06.187-.102.295-.12-.146-.25-.294-.5-.44-.752l-1.35.393c.433.355 1.088-.086 1.48.415z"/><path d="M61.518 111.843c.022-.018.046-.028.07-.043-.006-.02-.008-.042-.016-.064-.392-.5-1.047-.06-1.48-.414.252.787.97.296 1.426.52z"/><path fill="#9F9F9F" d="M62.07 111.77c.294.186.363.508.427.834.13-.024.247.02.352.126.166-1.097-.192-1.784-1.408-1.8.378.16.74.33.628.84z"/><path fill="#9F9F9F" d="M62.497 112.604l.025.126h.326c-.104-.107-.22-.15-.35-.126zM62.07 111.77c.113-.51-.25-.68-.63-.84l.442.752c.072.025.133.055.188.09z"/><path fill="#515151" d="M92.567 114.18c.58-.7.97-1.357-.393-1.576-.4.66.57.976.393 1.577z"/><path fill="#515151" d="M92.567 114.18c.178-.6-.794-.917-.393-1.576-.802.76-.013 1.12.393 1.577z"/><path fill="#272727" d="M116.283 71.026c-.223-2.218 2.238-.32 2.47-1.935-2.4-.224-4.652.266-6.92.745.824.278 1.635.283 2.433.186.93-.112.95.5 1.067 1.133.157.856-.24 1.113-1.01 1.112-.698 0-1.4.017-2.094.093-.386.043-.467.37-.29.686.197.353.53.106.812.072.785-.69 1.68-.342 2.556-.342 1.203 0 2.51.364 3.69-.43-.678-1.157-2.504.783-2.715-1.318z"/><path fill="#151515" d="M91.436 39.81c1.594-2.263-.474-4.345-.428-6.568.02-.927-.774-.293-.85.432.146.415.29.83.437 1.245l.115 5.306c.182-.243.375-.468.726-.415z"/><path fill="#151515" d="M91.436 39.81c-.35-.05-.543.174-.727.417.24-.14.483-.277.726-.416z"/><path fill="#1C1C1C" d="M112.118 74.185v.47h6.768v-.47h-6.768zM113.112 82.13c-.588.214-1.365-.42-2.12.804 2.578-.128 4.842-.24 7.232-.36-.3-.776-.726-.875-1.205-.882l-1.05.45c-.63-.194-1.726.597-1.768-.838l-.04-.952c-.148-.046-.296-.092-.445-.14-.092.674.264 1.49-.605 1.917z"/><path fill="#4B4A4B" d="M98.106 43.732c-1.636-.598-.227-1.665-.423-2.473l-.257.03c-.49.486-1.05.92-1.45 1.473-.608.838.345 1.008.734 1.37.383.36.838.792 1.417.37.28-.203.294-.656-.02-.77z"/><path fill="#333" d="M116.49 75.633c-.265-.1-.61.017-.92.034-.006.143 0 .285.014.427.78.153.962.75 1.065 1.404.895-.173 2.24-.29 2.16-1.22-.104-1.175-1.53-.346-2.32-.645zM116.66 77.552l-.01-.054-.038.007.047.047z"/><path fill="#282828" d="M111.054 49.074l.004-.024-.012.016c0 .003.003.005.004.007.003-.01.007-.02.004-.018.002.007 0 .013 0 .02z"/><path fill="#282828" d="M108.56 46.496c.74.713-.97 2.165.22 2.015 1.036-.13 1.264 2.046 2.267.557-.67-.967-1.12-2.143-2.487-2.57z"/><path fill="#252525" d="M116.6 77.51c-.95-.683-1.724-.15-2.493.408.632.41.445.793-.087 1.107.088.083.156.33.204.33h4.06c.007 0 .01-.245.016-.348-.99-.116-1.98-.253-3.296-.407.75-.502 1.175-.806 1.595-1.09zM116.61 77.503l-.01.007c.018.014.038.025.057.04l-.047-.047zM113.018 55.637c1.824.722 1.92 1.07.694 2.523 1.292.122 1.702-.678 1.442-1.7-.406-1.6-1.737-1.104-2.846-1.008l.347.294.363-.11z"/><path fill="#252525" d="M113.018 55.637l-.362.11c.062.05.124.104.187.156 1.674.22 1.544 1.133.87 2.258 1.225-1.453 1.13-1.802-.695-2.523z"/><path fill="#313131" d="M106.433 44.486c.408-.802.062-1.563-.64-1.672-1.11-.17-1.87.53-2.12 1.674l.453.052c.66-1.437 1.41-1.69 2.307-.054z"/><path fill="#313131" d="M104.126 44.54l.112.013c.693-1.296 1.45-.483 2.195-.067-.896-1.636-1.648-1.383-2.307.054z"/><path fill="#333" d="M101.22 40.093c.178-.227.546-.498.504-.672-.218-.917-1.128-1.136-1.876-1.737-.253.418-.756.96-.653 1.127.44.713 1.642.357 2.024 1.283z"/><path fill="#282828" d="M116.14 61.866c1.957-.377.566-1.628.316-2.096-.564-1.057-1.17.008-1.886.327 1.023.25 1.454.885 1.57 1.77z"/><path fill="#2B2B2B" d="M110.36 56.658c.027-.016.056-.027.083-.042l-.02-.18c-1.422.738-2.753 1.508-1.137 3.295l.503-.462c-1.033-1.095-.15-1.836.57-2.61z"/><path fill="#2B2B2B" d="M110.474 56.91l-.03-.294c-.028.015-.058.027-.085.042-.718.773-1.603 1.516-.57 2.61.052-.05.105-.098.16-.147-.787-.964.248-1.496.524-2.21z"/><path fill="#161616" d="M101.36 42.666c.696.08.69-2.655 1.908-.473l.538.02c.59-.912.022-1.533-.65-1.927-.995-.584-.933.7-1.462 1.005-.468.27-.697.81-.712 1.39.123-.055.25-.06.38-.014zM108.482 53.377c1.036-.16 1.94-.3 2.843-.438-.162-.135-.323-.27-.486-.403-.588-.136-.45-.61-.474-1.01-.09-.124-.192-.24-.302-.346-.642.61-1.32 1.195-1.582 2.197z"/><path fill="#2F2F30" d="M100.974 46c-.693 2.058-.204 2.495 2.38 2.145-.172-.28-.343-.56-.515-.836-1.436.742-.975-1.262-1.866-1.31z"/><path fill="#2F2F30" d="M100.945 45.997c.01 0 .02.004.03.004l.012-.04c0 .002-.042.037-.042.037z"/><path fill="#111" d="M103.685 47.367c-.106-.932.142-1.814.382-2.7l.015-.032c-.146.045-.283-.006-.408-.147l-.833 2.82c.413.13.607.396.515.837.152.014.305.03.458.043l.062-.754c-.063-.02-.124-.038-.19-.067z"/><path fill="#111" d="M104.238 44.553c-.053.04-.105.066-.156.082l-.015.033c-.24.884-.487 1.767-.382 2.7.066.028.127.045.188.066l.015-.185c.253-.88.592-1.752.35-2.697zM104.08 44.635l.045-.095-.452-.052c.126.14.26.192.408.147z"/><path fill="#111" d="M104.126 44.54c-.014.032-.03.062-.044.095.05-.016.104-.042.156-.082-.038-.005-.075-.01-.112-.013zM102.84 47.31l.514.835c.092-.44-.102-.706-.514-.836z"/><path fill="#232323" d="M85.705 37.365c-.392-.147-.69-.695-1.058-.05-.078.137.038.446.153.617.274.41.688.65 1.18.5.892-.274 1.364-.93 1.498-1.842l-.532-.007c-.35.375-.607 1.02-1.24.782z"/><path fill="#262626" d="M107.093 45.917l-.3-.27-.106.09c-.966.45-1.27 2.118-2.685 1.74.09.25.043.488-.19.71 1.658.06 2.166-1.543 3.28-2.27z"/><path fill="#262626" d="M103.888 47.25c.05.076.088.152.114.227 1.415.377 1.72-1.292 2.685-1.74l.105-.09-.203-.18c-.982.47-1.404 1.79-2.702 1.782zM104.002 47.477c-.042-.01-.086-.03-.13-.043l-.06.754c.234-.223.28-.46.19-.71z"/><path fill="#262626" d="M103.873 47.434c.043.014.088.032.13.043-.028-.075-.065-.15-.115-.228l-.015.184z"/><path fill="#353535" d="M101.92 43.085l-.352-.264-.01.005c-.213.037-.407-.012-.58-.146-.42 1.084-.705 2.17-.006 3.25.323-.774.646-1.548.967-2.324l-.02-.52zM100.988 45.96l-.015-.028-.027.064.042-.035z"/><path fill="#353535" d="M101.56 42.825l.01-.004c-.07-.05-.14-.103-.208-.155-.128-.044-.256-.04-.38.014.17.133.364.182.577.145z"/><path fill="#272727" d="M97.683 41.26c.83-.18 1.45 1.042 2.347.338-1.507-2.13-1.507-2.13-2.604-.307l.122-.073.135.043z"/><path fill="#181818" d="M94.848 39.958c.004.783-.824 1.412-.42 2.27.21-.816 1.978-1.05.88-2.356-.15 0-.303.004-.455.005 0 .027-.006.054-.005.08z"/><path fill="#181818" d="M94.848 39.958c0-.028.004-.054.005-.08l-.316.003c-.233.774-1.147 1.515-.11 2.348-.402-.858.425-1.487.42-2.27z"/><path fill="#232323" d="M111.863 68.048l.445-.48c-.285-.93.497-1.293.965-1.824-.165-.14-.33-.277-.495-.416-1.28.58-2.313 1.24-.915 2.72z"/><path fill="#060606" d="M112.778 65.33c.227.064.39.206.495.415 1.21-.274 2.406-.732 3.673-.29l.03-.608c-1.454-.32-2.867-.277-4.198.482z"/><path fill="#060606" d="M112.778 65.33l.495.415c-.106-.21-.268-.35-.495-.416z"/><path fill="#2A2A2A" d="M98.515 37.516c-1.17.38-1.85 1.26-2.398 2.275 1.215-.332 1.854-1.255 2.398-2.274z"/><path fill="#4F4F4F" d="M112.247 59.676c-.767-.044-1.547.012-2.28-.287-.013.346-.22.48-.682.34 1 .646 1.99.66 2.962-.054z"/><path fill="#4F4F4F" d="M109.967 59.39c.734.3 1.514.242 2.28.287-.666-.594-1.562-.24-2.298-.556.016.102.02.19.017.27z"/><path fill="#4F4F4F" d="M109.967 59.39c-.034-.014-.068-.024-.102-.04-.03-.028-.05-.054-.076-.082l-.504.463c.46.14.668.006.68-.34z"/><path fill="#4F4F4F" d="M109.948 59.12l-.16.148c.026.028.048.054.076.082.034.016.068.026.102.04.004-.08 0-.168-.018-.27z"/><path fill="#181818" d="M90.158 33.673l-1.74 3.68c1.395-.855 1.108-2.168 2.176-2.435-.164-.408-.767-.663-.436-1.245z"/><path fill="#181818" d="M90.594 34.918c-.146-.416-.29-.83-.437-1.245-.33.582.273.837.437 1.245z"/><path fill="#1D1D1D" d="M115.428 75.8c.047-.098.094-.14.143-.14-1.126-.077-2.254-.166-3.38-.243.002.22.006.648.01.648h3.384c-.15 0-.202-.17-.156-.265z"/><path fill="#1D1D1D" d="M115.428 75.814c-.046.096.006.19.157.28-.015-.142-.02-.284-.014-.426-.048 0-.096.048-.142.146z"/><path fill="#2D2D2D" d="M114.733 81.24c.366-.004.68.096.922.355l.227.026c.375.094.773-.198 1.137.07-.836-.693-1.84-1.03-2.856-1.34.218.208.307.494.456.742.035.057.073.105.113.148z"/><path fill="#2D2D2D" d="M115.882 81.62c-.075-.01-.15-.017-.227-.025.128.136.235.313.316.546l1.05-.448c-.364-.27-.763.022-1.138-.07zM114.733 81.24c-.04-.043-.08-.09-.114-.147-.15-.248-.24-.533-.457-.74l.04.95c.186-.04.363-.06.53-.063z"/><path fill="#373737" d="M85.7 31.353l-.575 2.432.446.55c.45-.898 1.202-1.78.13-2.982z"/><path fill="#3F3F3F" d="M113.268 61.41c.12-.083.207-.192.26-.33-.88-.42-1.76-.42-2.643-.01.23.17.462.343.693.516.563-.06 1.127-.118 1.69-.176z"/><path fill="#151515" d="M113.268 61.41c.175.438-.237 1.136.532 1.293.18.036.532-.116.6-.27.364-.842-.655-.848-.872-1.354.004.182-.082.293-.26.33z"/><path fill="#151515" d="M113.268 61.41c.178-.038.265-.148.26-.33-.053.138-.14.248-.26.33z"/><path fill="#373737" d="M113.112 82.13c.78-.457.003-1.405.606-1.917l-.864-.482-1.034.098c.543.704 2.186.79 1.292 2.3z"/><path fill="#373737" d="M113.112 82.13c.87-.428.513-1.244.606-1.917-.603.512.175 1.46-.606 1.916z"/><path fill="#0A0A0A" d="M85.57 34.334c-.305-.055-.328-.34-.445-.55-.062.762-.873 1.43-.26 2.397.646-.515.627-1.2.706-1.846z"/><path fill="#0A0A0A" d="M85.57 34.334l-.445-.55c.117.21.14.495.446.55z"/><path fill="#8F8F8F" d="M113.994 78.983c-.58-.026-1.21.123-1.623-.48-.714.22-.618.778-.55 1.325.323-.27.664-.337 1.034-.097.313-.58.958-.168 1.37-.456-.117-.075-.19-.173-.23-.29z"/><path fill="#8F8F8F" d="M113.994 78.983c.04.117.113.215.23.29-.05-.11-.117-.207-.205-.29h-.026zM111.82 79.828l1.034-.097c-.37-.24-.712-.173-1.034.098z"/><path fill="#252525" d="M113.973 78.905c-.006-.037-.012-.074-.012-.114.01-.297.124-.577.147-.872l-1.735.586c.46.38 1.214-.235 1.6.4z"/><path fill="#252525" d="M113.973 78.905c.016.025.032.05.047.08.533-.315.72-.658.087-1.067-.023.295-.138.575-.146.873 0 .04.007.078.013.115z"/><path fill="#252525" d="M113.994 78.983c-.01-.025-.016-.05-.02-.08-.388-.635-1.142-.02-1.603-.4.413.603 1.044.454 1.624.48z"/><path fill="#252525" d="M113.994 78.983h.026c-.014-.03-.03-.054-.047-.08.005.03.012.055.02.08z"/><path fill="#494949" d="M86.947 36.584c.18-.154.357-.152.532.007.585-.516.53-1.27.72-1.936-.142-.173-.28-.346-.42-.52-.557.723-.686 1.59-.833 2.45z"/><path fill="#494949" d="M86.947 36.584l.532.007c-.177-.158-.355-.16-.533-.006z"/><path fill="#434343" d="M110.565 56.554c.563-.296 1.156-.52 1.76-.708-.034-.097-.034-.235-.016-.394-.735.125-1.49.21-1.886.984.065.038.11.077.14.118z"/><path fill="#434343" d="M110.604 56.738c-.04.115-.083.173-.13.173.79-.335 1.58-.67 2.37-1.008-.315.15-.462.1-.52-.057-.603.19-1.196.412-1.76.708.046.06.062.12.04.185zM112.325 55.846l.33-.1-.346-.294c-.02.16-.02.297.015.394z"/><path fill="#434343" d="M112.843 55.902l-.187-.157-.33.1c.055.158.202.207.517.057zM110.565 56.554c-.03-.04-.076-.08-.14-.117l.018.18c.04-.023.082-.042.122-.063z"/><path fill="#434343" d="M110.604 56.738c.022-.065.006-.126-.04-.184-.04.02-.08.04-.12.062l.03.295c.047 0 .09-.057.13-.172z"/><path fill="#333" d="M95.308 39.872c-.053-.665 1-1.295.06-1.986.03.646-.4 1.175-.5 1.788.146-.023.292.043.44.198z"/><path fill="#333" d="M94.537 39.88c.11-.123.22-.19.33-.207.1-.612.53-1.142.5-1.788-.557.55-.9 1.186-.83 1.996zM94.868 39.673c-.01.067-.013.135-.015.204.152 0 .304-.003.455-.005-.148-.155-.294-.22-.44-.2z"/><path fill="#333" d="M94.868 39.673c-.11.017-.222.083-.33.208.105 0 .21 0 .315-.003.002-.068.005-.137.015-.204z"/><path fill="#2B2B2B" d="M110.366 51.526c.975-.606 1.8-1.253.688-2.438.04.874-.942 1.265-.99 2.092.26-.023.353.098.302.346z"/><path fill="#2B2B2B" d="M111.054 49.078l-.003-.004c0 .006-.002.012 0 .01l.003.005v-.015.003z"/><path fill="#2B2B2B" d="M111.054 49.074v-.02c.003-.003 0 .01-.003.018.002 0 .003.003.004.004v-.002zM110.064 51.18c.11.107.21.223.302.345.05-.247-.042-.368-.302-.345z"/><path fill="#343434" d="M111.325 52.94c.57-.293 1.426-.013 1.96-.992-1.037.017-1.832-.125-2.446.588.497-.27.53.018.485.403z"/><path fill="#343434" d="M110.84 52.536l.485.402c.045-.384.012-.672-.486-.402z"/><path fill="#2E2E2E" d="M104.104 52c1.048-.42 1.627-.695 1.732-1.754-.813.294-1.443.455-1.732 1.753z"/><path fill="#393939" d="M106.303 54.32c-.044.09.257.5.346.483.676-.124 1.244-.415 1.364-1.535-.78.36-1.42.457-1.71 1.05z"/><path fill="#272727" d="M103.273 42.38c-.068-.03-.132-.046-.197-.06-.35.23-.7.462-1.05.694.02.027.045.05.064.08.064.205.02.377-.15.513.975.007 1.592-.463 1.865-1.395-.145.16-.32.213-.532.17z"/><path fill="#272727" d="M103.076 42.32c.064.014.128.03.197.06.21.046.387-.01.53-.167l-.537-.02-.19.126zM102.09 43.095c-.02-.03-.042-.054-.064-.08l-.106.07.02.52c.17-.133.214-.306.15-.51z"/><path fill="#454545" d="M92.713 39.626c.004-.01.01-.017.012-.026l-.22-.256-.538.51c.364.31.57.096.746-.228z"/><path fill="#454545" d="M91.85 41.147c.926.287.716-.853 1.067-1.323l-.19-.224-.013.026c-.177.324-.382.538-.745.228.012.457-.86 1.064-.12 1.293z"/><path fill="#070707" d="M93.48 37.942c-.624.26-1.015.68-.974 1.402.103.046.186.108.254.185.247-.53.545-1.03.72-1.588z"/><path fill="#070707" d="M92.917 39.824c.206-.622.993-1.07.562-1.882-.175.558-.473 1.058-.72 1.587.072.08.125.178.157.294z"/><path fill="#070707" d="M92.76 39.53c-.068-.078-.15-.14-.254-.186l.22.256c.01-.024.023-.047.034-.07z"/><path fill="#070707" d="M92.76 39.53c-.01.023-.023.046-.034.07l.19.224c-.03-.116-.084-.213-.156-.295z"/><path fill="#292929" d="M116.946 65.456c.954.292-.22 1.348.755 1.904.318-1.148.972-2.126-.723-2.514.198.214.188.417-.03.61z"/><path fill="#292929" d="M116.977 64.847l-.03.61c.218-.194.228-.397.03-.61z"/><path fill="#282828" d="M95.645 36.635c.03.31-.055.592-.27.846 1.36.084.896-1.222 1.377-1.808-.54.083-.59.85-1.107.963z"/><path fill="#282828" d="M95.645 36.635c-.072.016-.153.02-.246.005-.01.28-.018.56-.026.84.215-.253.3-.537.27-.845z"/><path fill="#282828" d="M95.604 36.408c.002.005.006.01.01.014.018.073.024.143.03.213.52-.11.57-.88 1.107-.963-.893-.47-.906.292-1.146.736z"/><path fill="#282828" d="M95.613 36.423l-.01-.014c-.052.098-.117.18-.205.23.093.015.173.01.246-.005-.007-.07-.013-.14-.03-.212z"/><path fill="#555" d="M93.784 34.22c-.003-.11-.475-.33-.506-.295-.41.45-.693.95-.317 1.632.63-.252.843-.746.824-1.336z"/><path fill="#222" d="M98.485 45.548c.973 0 1.107-.765 1.823-1.84-1.328.513-1.883.856-1.823 1.84z"/><path fill="#505050" d="M106.992 45.443c.108.074.126.25.1.474.32-.26.923-.29.862-.86-.047-.443-.42-.554-.833-.49.168.37.07.64-.128.876z"/><path fill="#505050" d="M106.992 45.443c.197-.234.296-.505.13-.875-.18.3-.356.6-.533.898.198-.08.323-.077.402-.023zM106.992 45.443c-.06.07-.127.14-.2.205l.3.27c.026-.226.008-.4-.1-.475z"/><path fill="#505050" d="M106.992 45.443c-.08-.054-.204-.056-.403.023l.202.18c.073-.064.14-.133.2-.203z"/><path fill="#1C1C1C" d="M88.316 32.94c-.718-.27-.36.765-.538 1.196.292.05.312.32.42.52-.136-.615 1.017-1.38.118-1.716z"/><path fill="#1C1C1C" d="M87.778 34.135l.42.52c-.108-.2-.128-.47-.42-.52z"/><path fill="#464646" d="M110.885 61.07c-.5.058-1.326.114-.95.764.435.755 1.106.023 1.644-.25-.478.16-.73.014-.695-.514z"/><path fill="#464646" d="M111.578 61.585l-.693-.516c-.034.528.217.675.693.515z"/><path fill="#444" d="M111.863 68.048c.484.623 1.065.754 1.917.292l-1.472-.77c.147.433.022.613-.445.478z"/><path fill="#444" d="M112.308 67.568l-.445.48c.467.135.592-.045.445-.48z"/><path fill="#494949" d="M112.753 73.167c.87.064 1.734.08 2.555-.29-.832.276-1.733-.067-2.555.29z"/><path fill="#494949" d="M112.753 73.063c.822-.357 1.724.18 2.555-.29-.875 0-1.77-.4-2.555.29z"/><path fill="#262626" d="M40.343 55.914c-.834.696-1.267.435-1.384-.58-.065-.277-.216-.394-.5-.27.006.104.01.207.017.308-1.026.985-2.315.28-3.455.54-.266.06-.66-.14-.762.25-.096.37-.047.793.338.996.467.245.973.414 1.463.616.158-.125.316-.25.473-.377-.122-.09-.248-.176-.362-.276-.03-.025-.02-.096-.028-.145 1.427-.077 2.854-.145 4.28-.237.308-.02.886.09.504-.55-.09-.154-.383-.187-.583-.274z"/><path fill="#1B1B1B" d="M35.2 79.822c-.798.34-1.65.442-2.492.367-.764-.068-1.63-.154-1.928-1.05-.27-.808.294-1.297.877-1.727.036-.025.073-.042.108-.064l-.333-.27c-1.466.703-2.185 1.74-.548 2.83 1.3.863 2.906 1.205 4.317-.088z"/><path fill="#1B1B1B" d="M31.18 79.013c-.322-.745.455-1.035.773-1.512l-.187-.15c-.036.022-.073.04-.108.063-.583.43-1.146.92-.877 1.728.3.895 1.165.98 1.93 1.05.842.074 1.693-.027 2.492-.368-.762.012-1.523.028-2.285.037-.72.007-1.422-.12-1.737-.847z"/><path fill="#181818" d="M32.736 71.666c-.002-.04.068-.122.105-.122 1.406-.006 2.812.003 4.217.003-.004-.22-.008-.653-.012-.653H29.66c1.09.94 2.098 1.34 3.157 1.472 0-.16.002-.322.004-.48-.03-.073-.08-.147-.084-.22z"/><path fill="#232323" d="M55.444 33.66c.43 1 .73 1.702 1.03 2.403.19.01.38.024.575.037v.002c.75-.94 1.043.695 1.696.297.043-.076.097-.144.16-.203-.683-1.36-1.713-2.212-3.462-2.538z"/><path fill="#454545" d="M32.518 73.794l-2.015.72c2.14.18 4.28.363 6.42.544-.708-1.208-1.77-.72-2.646-.98-.607.04-1.244.257-1.76-.284z"/><path fill="#2C2C2C" d="M44.97 46.406c-.376.032-.383-.144-.854-.465-.47.035-.778.07-1.192.103.622 1.127 1.248 2.272 2.42 3.248.048-.803-.32-1.4.154-1.9-.43-.193-.483-.59-.528-.984z"/><path fill="#343434" d="M41.764 51.622l.003.46c.736.818 1.66.836 2.43.248.77-.585.703-1.42-.338-2.788.485 2.736-1.055 1.98-2.096 2.08z"/><path fill="#1C1C1C" d="M35.66 79.824c1.027-.064 1.554-.682 1.457-1.637-.108-1.072-.96-1.447-1.933-1.57-.005.077-.01.155-.017.233 1.736.7 1.667 1.734.492 2.974z"/><path fill="#1C1C1C" d="M35.166 76.85c-.005.084-.01.167-.017.25 1.462.668.612 1.766.51 2.725 1.174-1.24 1.243-2.276-.494-2.974z"/><path fill="#1B1B1B" d="M58.907 36.197l-.16.2c.47.972 1.286 1.496 2.697 2.22-.746-1.503-.176-3.547-2.537-2.42z"/><path fill="#1B1B1B" d="M58.906 36.198c-.063.06-.118.125-.16.2.054-.067.108-.133.16-.2z"/><path fill="#333" d="M40.75 47.727c-.705-.795-1.276-.712-1.86-.13-.645.647-.61 1.278.406 2.662-.188-1.724.432-2.317 1.454-2.533z"/><path fill="#242424" d="M55.634 40.755c-.98 1.264-1.83.898-2.615-.213.56 1.67 1.394 2.452 2.938.896l-.307-.722-.016.04z"/><path fill="#242424" d="M55.634 40.755c.007-.013.01-.026.017-.04l-.144-.34c-.73 1.517-1.634.478-2.487.166.785 1.113 1.634 1.48 2.614.215z"/><path fill="#1E1E1E" d="M51.797 36.79c1.372-1.483 2.08.29 3.08.63-.755-1.232-1.513-2.457-3.225-1.286.012.236.023.474.145.663v-.006z"/><path fill="#1E1E1E" d="M51.797 36.79v.006c.054.086.13.163.244.223 1.116-1.07 1.84.62 2.837.4-1-.34-1.708-2.113-3.08-.63z"/><path fill="#191919" d="M45.962 40.422c-.832.38-1.62.832-1.876 1.812-.017.064.033.147.052.22.614-.697 2.4-.067 2.26-1.64-.014-.15-.36-.427-.436-.392z"/><path fill="#2E2E2E" d="M43.853 45.655c.116.02.226.047.333.084l-.083-.634c-.71-.352-1.292-1.012-2.244-.942.096.84.6 1.36 1.113 1.878.21-.318.526-.395.88-.387z"/><path fill="#2E2E2E" d="M44.187 45.74c-.108-.038-.218-.067-.333-.085-.354-.008-.67.07-.88.387l1.24-.102c-.01-.066-.018-.134-.027-.2z"/><path fill="#343433" d="M32.406 64.636c-.463-.047-1.06-.85-1.346-.08-.303.816.35 1.216 1.17 1.226l1.992-.904c-.605-.083-1.21-.18-1.816-.242z"/><path fill="#383838" d="M34.745 65.63c.075-.062.164-.093.258-.113l.746-.328c-.46-.355-.982-.39-1.528-.312-.366.96-1.156.985-1.993.904.256.467 1.265.374.947 1.27l.568.168V67.22l.038-1.06c.093-.59.637-.36.962-.53z"/><path fill="#383838" d="M34.222 64.878l-1.993.904c.836.08 1.626.055 1.992-.904z"/><path fill="#3E3E3E" d="M33.054 73.593c.406-.085.812-.17 1.22-.257.644-.175 1.056-.45.2-.9-.51-.268-1.1-.376-1.654-.556.142.107.188.213.14.32-.047.105-.095.157-.144.157l-.637.78c.18.142.36.282.54.422.113.006.224.017.334.033z"/><path fill="#3E3E3E" d="M32.96 72.2c.048-.107 0-.213-.14-.32l-.005.477c.05 0 .097-.052.145-.158zM33.054 73.593c-.11-.016-.22-.027-.333-.033l.105.08c.076-.015.153-.03.23-.047z"/><path fill="#1C1C1C" d="M33.177 67.053c-.528.01-1.056.007-1.582.038-.52.03-1.252.006-1.124.74.137.78.893.104 1.323.31.508-.187.91-.683 1.537-.525l.228.006.208-.09-.02-.296c-.223.084-.414.03-.57-.18z"/><path fill="#1C1C1C" d="M33.746 67.233v-.013c-.19-.056-.38-.11-.57-.167.156.21.347.265.57.18z"/><path fill="#1A1A1A" d="M35.002 76.815c.004-.016.006-.032.016-.048.056-.1.11-.15.166-.15-1.303-.27-2.576-.302-3.75.46.142.07.31.11.417.223.978-.578 2.056-.58 3.152-.485z"/><path fill="#1A1A1A" d="M31.953 77.5c1.047-.278 2.09-.592 3.196-.4-.126-.1-.17-.194-.148-.285-1.095-.095-2.174-.093-3.153.485.048.05.088.11.103.2z"/><path fill="#1A1A1A" d="M31.85 77.3c-.108-.11-.275-.15-.417-.222l.333.27c.028-.016.056-.03.083-.048z"/><path fill="#1A1A1A" d="M31.85 77.3c-.028.017-.056.03-.084.05l.187.15c-.015-.09-.055-.15-.104-.2zM35.017 76.767c-.01.016-.01.032-.016.048l.1.008c.024.01.043.02.065.028.006-.077.01-.155.017-.233-.053 0-.108.05-.165.15z"/><path fill="#1A1A1A" d="M35.15 77.1l.016-.25c-.022-.008-.042-.018-.064-.027l-.1-.008c-.024.09.023.185.147.286z"/><path fill="#323232" d="M32.373 73.552c.043 0 .084.003.126.003-.128-.12-.243-.25-.32-.417-.64.15-1.345.182-1.902.483-.574.313-.552.77.226.893.225-1.093 1.198-.732 1.87-.96z"/><path fill="#323232" d="M32.718 73.743c-.075-.06-.148-.122-.218-.187-.042 0-.083-.005-.126-.003-.67.228-1.644-.132-1.87.962l2.015-.72c.076.006.14-.017.198-.052zM32.5 73.555c.074 0 .147 0 .22.005l-.54-.42c.077.164.192.295.32.415z"/><path fill="#323232" d="M32.825 73.64l-.104-.08c-.072-.003-.146-.005-.22-.005.07.065.142.127.217.187.04-.025.078-.054.108-.1z"/><path fill="#2C2C2C" d="M33.83 67.204c-.03.015-.056.02-.084.03.012.098.02.196.02.295.603-.046 1.302.267 1.823-.545l-1.807-.823c.27.335.268.684.046 1.042z"/><path fill="#2C2C2C" d="M33.746 67.233c.027-.01.054-.015.083-.03.22-.358.224-.707-.047-1.043l-.038 1.058v.015z"/><path fill="#3D3D3D" d="M32.002 82.686c-1.225.708-2.042 1.453-.204 2.45l.092-.6c-.334-.644.225-1.22.112-1.85z"/><path fill="#464646" d="M31.794 68.14c.91.513 1.912.698 2.93.825.007-.176.012-.353.02-.53-.278-.605-1.216-.074-1.413-.818-.442.38-.888.748-1.536.523z"/><path fill="#464646" d="M31.794 68.14c.648.226 1.095-.143 1.537-.524-.626-.16-1.028.338-1.536.524z"/><path fill="#010101" d="M36.8 51.55c.992 1.145 1.936 1.718 3.078 1.972l.006-.326c-.8-.752-1.64-1.425-3.085-1.646z"/><path fill="#3D3D3D" d="M48.396 38.693c.34.805.603 1.65 1.5 2.06l.208-.12c-.04-1.083-.687-1.657-1.708-1.94z"/><path fill="#424242" d="M55.76 40.407c.557.135.233.645.2 1.03.89-1.258.07-2.292-.442-3.366-.15.79.41 1.547.242 2.337z"/><path fill="#424242" d="M55.507 40.374c.1.004.183.016.253.033.17-.79-.39-1.548-.242-2.335-.6.764.03 1.535-.01 2.302z"/><path fill="#424242" d="M55.76 40.407c-.022.102-.058.205-.108.308.103.24.206.48.307.722.032-.385.356-.895-.2-1.03z"/><path fill="#424242" d="M55.65 40.716c.05-.104.087-.206.11-.31-.07-.016-.153-.028-.254-.032.05.114.097.228.145.342z"/><path fill="#323233" d="M51.723 36.985c-.44-.102-.34-.438-.072-.852-.93 1.282-.803 2.414.477 3.383-.447-.805-.744-1.63-.404-2.53z"/><path fill="#323233" d="M52.04 37.02c-.13 0-.23-.016-.317-.035-.34.902-.043 1.726.404 2.532.133-.838-.52-1.65-.087-2.498zM51.723 36.985c.024-.063.042-.125.072-.19-.122-.187-.132-.425-.145-.662-.268.413-.366.75.073.852z"/><path fill="#323233" d="M51.796 36.796c-.03.063-.05.126-.072.19.086.02.186.033.317.033-.113-.06-.19-.138-.244-.224z"/><path fill="#2F2F2F" d="M34.22 84.91c.005.17.01.34.013.51.936.068 1.76-.192 2.448-.84l-.526-.44-1.934.77z"/><path fill="#404040" d="M50.104 40.634c-.05.07-.12.11-.21.12.127.9.668 1.478 1.455 1.865l.16-.083c.015-.992-.488-1.6-1.406-1.903z"/><path fill="#030303" d="M36.978 82.764c.022.636-.418.996-.824 1.377.216.1.48.14.527.44 1.006-.545 1.762-1.17.774-2.366-.16.182-.317.366-.476.55z"/><path fill="#030303" d="M36.154 84.14l.527.44c-.047-.3-.31-.34-.526-.44z"/><path fill="#353535" d="M41.646 51.776c.04-.103.08-.154.12-.154-.674-.578-1.22-1.403-2.52-1.304.793.94 1.455 1.635 2.522 1.765-.12-.103-.162-.204-.122-.307z"/><path fill="#353535" d="M41.646 51.776c-.04.103 0 .205.122.306 0-.153 0-.307-.003-.46-.04 0-.08.05-.12.154z"/><path fill="#1D1D1D" d="M37.747 61.617c0 .003-.086.007-.085.01.005-.002-.127.007-.127.006h.086l.082-.004c1.053.45-1.065 1.384.255 1.694.546.128 1.02-.36 1.042-.98.038-1.03-.467-1.15-1.253-.727z"/><path fill="#525252" d="M36.12 60.104c-.64-.732-1.42-.736-2.25-.546.684.578 1.398.978 2.275.907.045-.125.035-.245-.025-.36z"/><path fill="#616161" d="M59.317 34.17c.335-.71.044-1.22-.33-1.687-.042-.05-.52.104-.54.206-.108.648.16 1.13.87 1.48z"/><path fill="#1D1D1D" d="M40.183 59.166l-2.16-.98c-.15.137-.3.273-.453.41.694.247 1.283.904 2.613.57z"/><path fill="#505050" d="M58.427 39.992c.23-1.13-.264-1.795-.693-2.48l-.558.033c.193.843.335 1.713 1.25 2.447z"/><path fill="#0A0A0A" d="M35.003 65.517l-.258.114c.655.153 1.316.28 1.96.467.327.094.654.114.77-.195.188-.492-.168-.65-.593-.67-.377-.02-.756-.03-1.134-.043-.156.316-.472.27-.745.327z"/><path fill="#0A0A0A" d="M35.75 65.188c-.25.11-.498.22-.747.328.273-.055.59-.01.746-.328z"/><path fill="#1F1F1F" d="M47.198 43.11c.358.914.763 1.777 2.426 2.337-.925-1.258-1.39-2.05-2.426-2.337z"/><path fill="#222" d="M34.88 68.792c-.052.114-.105.17-.156.17.714-.027 1.42.884 2.308.09-.78-.613-1.563-.508-2.29-.618.147.124.194.243.14.358z"/><path fill="#222" d="M34.88 68.792c.056-.116.01-.235-.138-.358l-.018.53c.052 0 .104-.057.157-.172z"/><path fill="#111" d="M38.46 55.065c-.673-.408-1.27-1.03-2.29-.86.7.734 1.42 1.12 2.306 1.167-.062-.1-.068-.2-.015-.307z"/><path fill="#161616" d="M45.543 45.966l-.392.33c.284.302.387.677.385 1.093l.886-.248.042-.667-.92-.51z"/><path fill="#161616" d="M45.018 46.406c.045.394.087.79.516.982.002-.416-.1-.79-.384-1.094l-.132.112z"/><path fill="#424242" d="M51.508 42.538l-.16.082c-.016.654.24 1.156.875 1.367.095.03.44-.28.416-.372-.144-.58-.366-1.132-1.132-1.077z"/><path fill="#3C3C3C" d="M33.29 61.576l-.657.496 2.097.767.566-.48c-.668-.262-1.337-.524-2.005-.784z"/><path fill="#3A3A3A" d="M37.454 82.213c-.568-.722-1.22-.955-2.218-.454l1.743 1.004c-.16-.457.02-.622.474-.55z"/><path fill="#3A3A3A" d="M36.978 82.764c.16-.185.317-.368.476-.55-.454-.072-.634.093-.476.55z"/><path fill="#555" d="M56.472 36.063c.197.51.194 1.12.703 1.483.177-.17.362-.188.558-.032-.01-.575-.242-1.045-.685-1.414-.202.154-.395.15-.576-.037z"/><path fill="#555" d="M56.472 36.063c.18.188.374.19.577.037-.195-.014-.387-.026-.578-.037zM57.176 37.546l.558-.032c-.196-.157-.382-.138-.558.032z"/><path fill="#4B4B4B" d="M44.288 45.78c.255.1.493.24.727.387.022-.25.15-.375.528-.202l-1.44-.86c.22.205.28.43.185.676z"/><path fill="#4B4B4B" d="M45.015 46.167c-.233-.148-.472-.286-.727-.386-.02.054-.038.106-.073.16.17.322.427.5.804.466-.01-.088-.01-.168-.005-.24zM44.288 45.78c.093-.244.035-.47-.185-.673l.083.633c.036.01.068.028.102.04z"/><path fill="#4B4B4B" d="M44.288 45.78c-.034-.012-.066-.03-.102-.04.01.066.02.133.027.2.037-.054.055-.107.075-.16zM45.015 46.167c.017.01.034.02.05.032.034.03.056.063.085.095l.392-.33c-.376-.173-.505-.048-.527.202z"/><path fill="#4B4B4B" d="M45.015 46.167c-.006.07-.005.15.003.24l.132-.112c-.03-.03-.05-.066-.084-.096l-.05-.033z"/><path fill="#353535" d="M46.46 46.475c.196.235.183.458-.04.667.44.322 1.055 1.194 1.4.42.35-.784-.816-.79-1.36-1.087z"/><path fill="#353535" d="M46.46 46.475l-.04.667c.223-.21.236-.433.04-.667z"/><path fill="#0A0A0A" d="M34.072 85.083c.048-.116.098-.173.148-.173-.802.04-1.593.004-2.33-.374.21.237.18.438-.09.6.754.587 1.6.38 2.434.284-.157-.11-.21-.222-.162-.337z"/><path fill="#0A0A0A" d="M31.89 84.536l-.09.6c.27-.162.3-.363.09-.6zM34.072 85.083c-.048.114.006.227.162.336-.004-.17-.01-.34-.013-.51-.05 0-.1.058-.148.173z"/><path fill="#1E1E1E" d="M35.296 62.36c-.073.295-.37.328-.566.48.65.112 1.208.784 2.042.29-.242-.772-.913-.678-1.476-.77z"/><path fill="#1E1E1E" d="M35.296 62.36l-.566.48c.196-.152.493-.185.566-.48z"/><path fill="#282828" d="M36.12 60.104c.167.068.226.145.18.23-.05.087-.1.13-.154.13.41.534 1.282.436 1.584 1.124.538-1.617-.72-1.357-1.61-1.484z"/><path fill="#282828" d="M37.73 61.588l-.013.044.03-.015c-.006-.01-.012-.018-.017-.03zM37.752 61.627c0-.003-.004-.007-.005-.01l-.03.015c-.006.003.04-.007.035-.005zM36.3 60.333c.047-.085-.013-.16-.18-.23.06.117.07.238.026.362.053 0 .104-.045.153-.132z"/><path fill="#555" d="M36.06 57.774c.376.508.953.648 1.51.82-.082-.394-.04-.65.454-.408l-1.49-.79c.06.403-.024.62-.473.378z"/><path fill="#555" d="M36.533 57.398l-.472.376c.45.24.535.025.473-.376zM37.57 58.595l.454-.41c-.493-.24-.535.016-.454.41z"/><path d="M39.883 53.195l-.006.326c.247.647.828.8 1.407.953l.01-.5c-.37-.44-.8-.77-1.41-.778z"/><path fill="#343434" d="M33.29 61.576c-.45-.07-.903-.833-1.312-.206-.38.58.17.703.656.7.067-.365.39-.392.657-.494z"/><path fill="#343434" d="M32.633 62.07l.658-.495c-.265.103-.59.13-.657.496z"/><path fill="#141414" d="M40.343 55.914l-1.384-.58c.37.408.755.783 1.383.58z"/><path fill="#141414" d="M40.343 55.914c-.627.204-1.013-.17-1.384-.58.115 1.015.548 1.275 1.383.58z"/><path fill="#010101" d="M41.434 54.31c-.05.11-.1.165-.15.165.274.21.55.42.823.632l.372-.53-1.187-.6c.146.11.192.223.14.334z"/><path fill="#010101" d="M41.434 54.31c.05-.11.004-.22-.14-.334l-.01.5c.05-.003.1-.057.15-.165z"/><path fill="#767676" d="M61.46 113.707c.038-.105.11-.203.192-.297-.135-.09-.267-.184-.393-.29l-.006.004c-.006.172-.016.345-.022.52.077.008.152.033.227.063z"/><path fill="#767676" d="M61.233 113.642c.006-.173.016-.346.022-.52-.344.108-.59.297-.575.702.187-.174.37-.21.553-.182z"/><path fill="#767676" d="M61.46 113.707c-.076-.03-.15-.053-.228-.065-.003.11-.008.22 0 .33.007.015.015.03.02.044l.24.08c-.078-.147-.076-.273-.033-.39z"/><path fill="#767676" d="M61.232 113.97c-.008-.11-.003-.22 0-.33-.182-.028-.366.01-.553.183l.574.192-.022-.044zM61.46 113.707c.106.042.213.095.32.147.005.002.007.006.012.01l.25-.198c-.128-.087-.26-.17-.39-.257-.08.094-.154.192-.193.297z"/><path fill="#767676" d="M61.46 113.707c-.044.117-.046.243.032.39l.3-.233-.012-.01c-.107-.053-.214-.106-.32-.147zM61.94 113.085c-.082-.195-.254-.26-.68.035.125.105.258.198.393.29.003-.005.005-.008.008-.01.096-.104.187-.21.28-.315z"/><path fill="#767676" d="M61.66 113.4c-.003.002-.005.005-.008.01.13.085.262.17.39.256-.025-.205-.038-.43-.102-.58-.093.104-.184.21-.28.313z"/></svg><svg width="81" height="37" viewBox="0 0 81 37" id="nextStop_blcok" x="149.73"><path fill="#499210" d="M61.66 0H0l8.514 16.818L0 37h58.622L81 18.875"/></svg><svg width="81" height="37" viewBox="0 0 81 37" id="year_block" x="149.73" y="37"><path fill="#499210" d="M61.66 0H0l8.514 16.818L0 37h81V0"/></svg></svg>