<?xml version="1.0" encoding="utf-8"?><!DOCTYPE svg PUBLIC "-//W3C//DTD SVG 1.1//EN" "http://www.w3.org/Graphics/SVG/1.1/DTD/svg11.dtd"><svg width="400" height="319" viewBox="0 0 400 319" xmlns="http://www.w3.org/2000/svg" xmlns:xlink="http://www.w3.org/1999/xlink"><svg width="43.313" height="26.496" viewBox="0 0 43.313 26.496" id="goDown" x="318.478" y="74"><path fill="#E0E0E0" d="M21.657 20.623L4.8 0H0s13.1 26.496 21.657 26.496C30.212 26.496 43.313 0 43.313 0H38.51L21.658 20.623z"/></svg><svg width="318.478" height="318.67" viewBox="0 0 318.478 318.67" id="logo_cuc"><path fill="#D1B526" d="M162.678.02C73.735-1.34 2.62 68.035.072 154.532c-2.65 89.95 68.147 162.378 155.356 164.104 89.907 1.78 161.746-68.468 163.033-158.603C319.686 74.35 248.508 1.33 162.68.02zm20.69 176.9c5.68 7.283 5.633 15.558 4.592 24.202-.538-.177-.795-.185-.84-.287-9.772-21.85-28.208-29.123-50.45-30.108-7.657-.34-15.28-1.07-22.558-3.76-1.472-.542-2.907-1.18-4.213-2.784 5.135-.767 10.27-1.536 15.406-2.3 13.907-2.062 25.005-8.603 32.827-20.458 3.938-5.97 7.926-11.906 12.018-17.77 2.28-3.266 5.44-5.62 9.766-8.877-2.392 6.646-4.275 11.857-5.52 17.296-3.745 16.357-1.514 31.4 8.972 44.846zm22.687 31.095c-19.3 21.55-58.596 26.627-84.582 7.607 28.83-2.08 55.952-9.79 84.582-7.607zm-76.928-115.37c-33.624 16.063-49.734 50.407-40.368 86.34.732 2.813.483 4.797-1.508 7.156-5.847 6.928-12.837 12.547-19.61 18.457-3.353 2.927-4.172 1.042-5.366-1.772-13.83-32.61-12.785-64.738 4.594-95.583 17.095-30.342 43.66-47.694 78.01-53.174.49-.078.996-.12 1.49-.092.312.018.616.194 1.385.457-4.916 11.814-9.83 23.59-14.706 35.382-.747 1.804-2.47 2.136-3.923 2.83zm.657 5.624c-12.37 26.806-20.24 54.24-35.726 79.785-10.005-29.793 6.785-67.238 35.726-79.786zM73.2 206.15c11.967-9.802 22.155-21.1 30.084-34.387 1.236-2.07 2.128-3.444 4.976-2.07 9.646 4.656 20.17 5.136 30.607 6.048 12.563 1.1 24.84 3.1 34.202 12.828 3.14 3.263 5.643 6.964 7.89 10.876 1.41 2.453 1.44 3.866-1.948 4.302-31.133 4-62.255 8.077-93.377 12.162-8.888 1.167-17.76 2.444-26.646 3.63-1.402.19-2.833.164-5.61.308 7.43-4.96 13.93-8.873 19.82-13.697zm1.703 16.807c.508-1.78 2.55-1.094 3.927-1.28 10.547-1.436 21.117-2.7 31.648-4.24 2.347-.343 4.055.08 5.99 1.397 30.717 20.93 67.488 17.998 94.175-7.49 1.69-1.616 3.154-2.322 5.673-1.898 9.596 1.615 18.583 5.077 27.645 8.385 2.954 1.078 2.35 2.39.896 4.316-16.744 22.19-38.6 36.284-65.95 41.618-6.536 1.274-13.15 2.057-19.875 1.963-33.086-.883-60.576-13.55-81.943-39.066-.937-1.116-2.618-2.178-2.184-3.703zm121.476-20.232c-2.546-.03-3.606-.736-3.3-3.47 1.227-10.908-1.823-20.308-8.31-29.403-11.557-16.205-7.624-33.298-1.017-51.39l78.66 102.176c-21.005-10.995-42.627-17.632-66.034-17.913zM175.097 94.117c24.21 2.342 56.184 32.707 51.438 72.508-17.036-25.22-38.3-45.645-51.438-72.508zm80.462 109.536c-8.156-10.59-15.758-20.47-23.378-30.338-1.058-1.37-.604-2.827-.47-4.31 3.612-39.635-17.78-70.583-56.036-80.925-2.177-.588-3.352-1.44-4.138-3.613-3.315-9.154-4.76-18.694-6.282-28.234-.504-3.16 1.575-2.685 3.385-2.554 12.442.9 24.23 4.283 35.53 9.47 50.265 23.074 74.403 83.525 53.882 134.935-.61 1.523-1.338 3-2.492 5.568zm-78.97-96.38c1.102 1.967 1.01 3.118-.916 4.493-7.466 5.335-12.875 12.505-17.16 20.483-10.296 19.167-27.016 26.4-48.557 26.29 16.345-39.54 32.56-78.758 48.77-117.977.837 23.902 6.322 46.087 17.864 66.71zM22.4 217.482C-15.69 127.236 41.72 25.955 138.87 12.07c7.566-1.082 15.198-1.75 23.415-1.127-1.612 2.738-2.533 5.107-1.146 7.556.904 1.596.274 2.853-.297 4.235-3.055 7.388-6.188 14.743-9.1 22.187-1.035 2.644-2.51 3.697-5.424 4.062-48.133 6.014-85.463 39.938-95.785 87.225-5.21 23.86-2.604 47.057 7.6 69.264 1.557 3.39 1.504 5.116-2.004 6.977-5.294 2.81-10.457 5.86-16.007 8.165-2.603 1.08-5.117 2.413-7.972.322-.764-.56-2.62-.652-3.32-.11-4.738 3.647-5.25-.545-6.43-3.344zm254.637 32.414c-30.16 38.008-69.603 57.18-119.89 58.43-52.3-1.976-94.57-25.007-124.216-70.626-1.145-1.765-3.497-5.023-2.796-5.375 2.93-1.47 4.55-4.904 7.948-5.36 9.072-1.215 18.188-2.13 27.23-3.53 3.174-.49 4.03 1.557 5.41 3.325 17.872 22.884 40.89 37.704 69.654 42.106 44.368 6.79 80.52-8.146 108.118-43.472 2.5-3.2 4.198-3.9 7.49-1.598 4.36 3.048 8.992 5.7 13.408 8.67 2.708 1.82 5.65 3.534 4.67 7.81-.327 1.425.892 3.172 2.29 3.59 5.25 1.573 2.394 3.877.685 6.03zm12.325-18.85c-4.122 7.58-4.88 8.228-10.712 2.056-6.944-7.35-12.66-15.87-18.793-23.967-1.4-1.847.492-3.47 1.14-5.047 14.18-34.61 12.864-68.587-6.095-100.85-19.04-32.4-47.994-50.527-85.507-54.45-3.516-.366-5.03-1.11-4.78-4.918.35-5.306-.003-10.644.853-15.946.533-3.3.815-6.323 4.075-8.555 2.754-1.884 1.24-5.09.49-8.135 71.266 5.812 127.942 59.68 136.572 129.557 3.935 31.862-1.877 62.007-17.243 90.256z"/><path fill="#2FC700" d="M58.988 219.54c8.886-1.188 17.76-2.465 26.646-3.632 31.122-4.085 62.244-8.163 93.377-12.162 3.39-.436 3.358-1.85 1.95-4.302-2.248-3.912-4.752-7.613-7.892-10.876-9.36-9.728-21.64-11.73-34.202-12.827-10.437-.91-20.96-1.39-30.607-6.047-2.85-1.374-3.74 0-4.977 2.07-7.93 13.287-18.117 24.585-30.084 34.386-5.89 4.822-12.392 8.735-19.823 13.695 2.78-.143 4.21-.118 5.61-.306z"/><path fill="#DB0D00" d="M109.957 158.54c21.54.112 38.26-7.122 48.557-26.29 4.285-7.98 9.694-15.148 17.16-20.483 1.926-1.375 2.018-2.526.917-4.494-11.54-20.622-17.025-42.808-17.86-66.708L109.956 158.54z"/><path fill="#0000DB" d="M183.754 118.46c-6.607 18.094-10.54 35.187 1.017 51.392 6.487 9.096 9.537 18.495 8.31 29.403-.306 2.733.755 3.44 3.3 3.47 23.407.28 45.03 6.918 66.035 17.913l-78.66-102.177z"/><path fill="#262626" d="M115.62 223.77c-.978 2.758-2.087 4.69-4.734 4.037-.068.09-.142.168-.213.25-.7 1.054 1.318 2.004.547 2.562-1.433 1.037-2.622-.5-3.875-1.085-.018 2.023 1.394 3.364 2.355 4.92l.27 1.616c7.098-4.233 7.51-5.012 5.65-12.3z"/><path fill="#373737" d="M125.052 244.112c.56 2.896-.6 4.783-3.362 5.73 1.88.692 3.8 1.086 5.815.816 1.908-.642 1.09-2.836 2.23-3.915 1.296-1.768-1.15-2.994-.67-4.644-.03-.86.49-1.263 1.222-1.49v-.022c-.164-.25-.322-.504-.473-.764l-3.002-.84c-.332.036-.664.07-.996.107l.01 1.75c1.794 1.58.296 2.375-.774 3.272z"/><path fill="#282828" d="M174.416 252.11c.85.612 1.526-.214 2.295-.274.36-.016.72-.03 1.08-.047 2.064-3.673.446-7.4.94-11.088-1.994-.084-1.627 1.4-2.152 1.595-5.87 2.183.754 7.05-2.162 9.812z"/><path fill="#1B1B1B" d="M194.035 248.138c.83 1.18 1.318-.56 1.887-1.146l-.077-2.227 1.044-1.902c-.863-.973-2.542-1.742-.836-3.354-.355-1.163-.136-2.903-2.073-2.676-1.73.204-.978 1.745-1.127 2.747-.256 1.718.485 3.46-.72 5.19-1.25 1.8 1.2 2.367 1.902 3.368z"/><path fill="#595959" d="M171.602 254.107c.52-3.55.714-7.145 1.085-11.396-3.103 2.104-3.41 4.613-3.86 7.052l.99 4.145c.523.95 1.662 1.03 1.785.2z"/><path fill="#10100F" d="M209.897 226.6c.3-1.204 1.32-2.368.2-3.647-1.256 1.73-4.386 1.747-4.305 4.7.01.625.02 1.25.028 1.873 1.36-.975 2.72-1.95 4.077-2.926z"/><path fill="#242424" d="M209.897 226.6c-.017.624.022 1.257-.06 1.872-.253 1.89-.392 3.515 1.932 1.19.103-.645-1.597-.894-.39-1.778.77-1.41.324-3.155 1.397-4.552.53-.69.572-2.136-.522-2.436-1.416-.39-2.508.244-2.16 2.055v.002h.002c2.5 1.356 1.16 2.502-.2 3.648z"/><path fill="#242424" d="M209.897 226.6c1.36-1.146 2.698-2.292.2-3.648 1.12 1.28.1 2.444-.2 3.648z"/><path fill="#313131" d="M213.583 240.137c-.302 1.24 1.01 1.398 1.916 1.5 1.327.15 2.057-.548 2.362-1.853.427-1.825-1-2.06-2.515-2.746-.562.94-1.483 1.942-1.764 3.1z"/><path fill="#424242" d="M150.074 256.573c2.202.91 2.664-.884 2.696-2.676-2.225 1.127-2.73-1.307-4.086-1.975-2.008 2.282-.49 3.873 1.39 4.65z"/><path fill="#252525" d="M103.987 242.395c4.183-1.438 5.24-3.743 5.98-6.323-.596-.455-.685-.993-.268-1.616-2.448 1.788-2.974 4.787-5.713 7.94z"/><path fill="#252525" d="M109.97 236.07l-.27-1.615c-.417.623-.328 1.16.27 1.616z"/><path d="M150.298 248.723c2.328.048 1.213-1.73 1.5-2.756-.114-.89.403-2.36-1.022-2.244-2.247.18-1.042 2.412-1.67 3.617-.53 1.017.252 1.363 1.192 1.383z"/><path fill="#262626" d="M146.503 242.275c-2.335 1.172-2.688 3.342-3.392 5.316 1.353-1.47 4.496-1.985 3.393-5.315z"/><path fill="#5F5F5F" d="M144.757 258.73c1.564-1.742 1.282-3.08.046-5.09-1.244 2.095-1.367 3.453-.046 5.09z"/><path fill="#4A4A4A" d="M212.446 235.486c2.37-.23 3.657-.932 2.96-3.288-1.066.86-2.77 1.04-2.96 3.288z"/><path fill="#292929" d="M122.58 243.376c.45-.558 1.003-.902 1.748-.863l.004.002.99-1.108c-.026-.205-.073-.415-.172-.64 0-.65.212-1.212.667-1.674-2.402.08-2.968 2.09-3.9 3.712l.59.655.072-.084z"/><path fill="#292929" d="M125.323 241.406l.504-.563-.01-1.75c-.455.462-.668 1.022-.667 1.673.1.225.146.435.173.64zM124.328 242.513c-.745-.04-1.298.306-1.75.863l-.07.084.36.4 1.16-1.007.304-.34h-.004z"/><path fill="#A6A6A6" d="M132.985 239.776l-1.02 1.99-.535.417c1.348.752.463 2.386 1.3 3.344.315-1.918.632-3.835.948-5.752l-.347.003-.345-.002z"/><path fill="#A6A6A6" d="M131.43 242.184l-.637.495 1.938 2.848c-.836-.96.048-2.592-1.3-3.344z"/><path fill="#747474" d="M128.833 251.294c-.715.925-2.942-.18-2.602.94.43 1.413 2.186 2.273 3.73.56-.79-.187-1.307-.58-1.127-1.5z"/><path fill="#747474" d="M129.96 252.794c-.375-.5-.75-1-1.127-1.5-.18.92.337 1.313 1.128 1.5z"/><path fill="#272727" d="M195.922 246.992c.96-.5 3.005 1.106 2.938-1.197-.067-2.322-2.01-.623-3.016-1.03.593.723.59 1.466.078 2.227z"/><path fill="#272727" d="M195.845 244.766l.077 2.227c.512-.762.515-1.505-.077-2.227z"/><path fill="#010101" d="M175.244 256.993c.615-1.167.29-2.18-1.164-3.58-.338 1.514-.916 2.623-.036 3.69.324.395.908.447 1.2-.11z"/><path fill="#3D3D3D" d="M206.963 237.548c2.106-.937 2.214-2.23 1.456-3.914-2.112.527-1.885 1.904-1.457 3.914z"/><path fill="#555" d="M169.815 253.907c-1.448-1.114-2.05-2.432-.988-4.145-2.116 1.966-2.112 3.425.988 4.145z"/><path fill="#555" d="M169.815 253.907c-.33-1.382-.66-2.763-.988-4.145-1.062 1.714-.46 3.03.988 4.145z"/><path fill="#535353" d="M153.337 252.88c.823-.228 1.51-.56 1.008-1.602-.674-1.396-1.93-1.418-3.225-1.314 1.086.71 3.412.474 2.217 2.917z"/><path fill="#535353" d="M153.337 252.88c1.195-2.44-1.13-2.207-2.217-2.916 1.04.744 2.372 1.265 2.217 2.917z"/><path fill="#292929" d="M176.71 251.836c.787 1.218-1.28 3.397 1.654 4.14.58-1.558-.16-2.86-.574-4.187-.34.472-.7.51-1.08.046z"/><path fill="#292929" d="M177.79 251.79l-1.08.046c.38.465.74.426 1.08-.047z"/><path fill="#161616" d="M122.392 243.598c-.205-.223-.31-.534-.475-.793l-2.21 2.964c1.273-.268 1.933-1.274 2.685-2.172z"/><path fill="#161616" d="M122.87 243.86c-.223-.032-.362-.137-.48-.263-.75.898-1.41 1.904-2.684 2.17 2.29 1.41 2.31-.94 3.163-1.908zM122.508 243.46l-.59-.655c.164.26.27.57.474.793l.116-.138z"/><path fill="#161616" d="M122.392 243.598c.116.126.256.23.478.262l-.36-.4c-.04.045-.08.092-.118.138z"/><path fill="#030303" d="M205.82 229.525c-.592-.615-.57-1.24-.027-1.872-1.157.093-3.094-.62-2.93 1.27.16 1.822 1.792 1.13 2.958.602z"/><path fill="#030303" d="M205.82 229.525l-.027-1.872c-.543.633-.564 1.257.028 1.872z"/><path fill="#5C5C5C" d="M211.77 229.566c1.018-.765 2.69.223 3.69-1.777h-4.08c.408 1 .77 1.072.39 1.776z"/><path fill="#5C5C5C" d="M211.77 229.66c.38-.703.02-1.245-.39-1.776-1.206.885.493 1.134.39 1.777z"/><path d="M130.964 237.66c.015.048.02.09.03.137.192-.123.398-.215.63-.25l-.94-1.603-2.87.836c.922.75 2.316-.186 3.15.88z"/><path d="M130.848 237.887c.046-.037.1-.06.147-.09-.012-.046-.016-.09-.03-.137-.835-1.066-2.23-.13-3.15-.88.535 1.674 2.06.63 3.033 1.107z"/><path fill="#9F9F9F" d="M132.022 237.735c.627.393.774 1.078.91 1.77.276-.05.525.04.747.27.355-2.335-.408-3.795-2.994-3.83.805.34 1.577.704 1.336 1.79z"/><path fill="#9F9F9F" d="M132.93 239.507c.02.09.036.18.054.27l.348.002.347-.004c-.223-.23-.472-.32-.75-.27zM132.022 237.735c.24-1.086-.532-1.45-1.337-1.79l.938 1.602c.153.05.283.116.4.188z"/><path fill="#515151" d="M196.89 242.863c1.232-1.494 2.06-2.89-.836-3.354-.853 1.4 1.214 2.072.835 3.353z"/><path fill="#515151" d="M196.89 242.863c.378-1.28-1.69-1.954-.836-3.354-1.706 1.61-.028 2.38.835 3.353z"/><path fill="#272727" d="M247.333 151.072c-.474-4.717 4.76-.684 5.252-4.116-5.103-.48-9.894.564-14.716 1.582 1.752.59 3.476.6 5.174.395 1.977-.24 2.022 1.06 2.27 2.408.334 1.82-.51 2.368-2.15 2.366-1.484-.002-2.978.035-4.453.197-.818.09-.99.79-.615 1.46.42.748 1.126.224 1.73.152 1.67-1.467 3.575-.727 5.436-.727h.002c2.56 0 5.338.775 7.846-.916-1.443-2.46-5.326 1.668-5.775-2.8z"/><path fill="#151515" d="M194.483 84.677c3.39-4.815-1.007-9.245-.91-13.973.04-1.972-1.647-.624-1.81.918l.93 2.65c.08 3.76.162 7.523.244 11.287.39-.516.8-.995 1.546-.883z"/><path fill="#151515" d="M194.483 84.677c-.746-.11-1.156.368-1.546.883l1.546-.883z"/><path fill="#1C1C1C" d="M238.474 157.79s.002 0 .003 1h14.394v-1h-14.396zM240.59 174.687c-1.252.458-2.905-.89-4.51 1.712l15.382-.765c-.642-1.654-1.545-1.864-2.564-1.877l-2.228.955c-1.34-.41-3.673 1.272-3.762-1.78-.027-.676-.056-1.352-.084-2.026l-.946-.294c-.2 1.43.558 3.164-1.29 4.074z"/><path fill="#4B4A4B" d="M208.67 93.018c-3.48-1.27-.483-3.54-.9-5.26l-.547.067c-1.04 1.035-2.23 1.96-3.08 3.132-1.298 1.784.73 2.144 1.56 2.917.814.76 1.78 1.682 3.014.786.596-.435.623-1.398-.047-1.642z"/><path fill="#333" d="M247.774 160.87c-.562-.213-1.3.035-1.956.073-.014.303-.004.605.028.907 1.662.327 2.046 1.596 2.267 2.986 1.904-.368 4.767-.618 4.594-2.592-.22-2.502-3.25-.737-4.933-1.374zM248.133 164.95l-.02-.113-.08.015.1.1z"/><path fill="#282828" d="M236.212 104.38l.01-.05c-.01.012-.018.02-.026.033l.01.015c.006-.02.014-.045.01-.038 0 .014-.002.027-.004.04zM230.907 98.896c1.573 1.516-2.06 4.604.468 4.285 2.202-.276 2.688 4.35 4.82 1.184-1.426-2.056-2.378-4.558-5.288-5.468z"/><path fill="#252525" d="M248.005 164.863c-2.02-1.453-3.665-.32-5.3.866 1.345.87.946 1.687-.187 2.354.188.176.332.704.434.704h8.638c.01 0 .02-.523.03-.74-2.105-.248-4.212-.54-7.01-.867 1.6-1.067 2.503-1.713 3.395-2.317z"/><path fill="#252525" d="M248.028 164.848l-.023.016c.04.03.082.054.123.085.005 0-.106-.106-.1-.102zM240.388 118.338c3.88 1.535 4.083 2.276 1.477 5.368 2.75.26 3.62-1.443 3.068-3.617-.864-3.403-3.694-2.35-6.053-2.145l.74.625c.255-.077.51-.156.768-.232z"/><path fill="#252525" d="M240.388 118.338c-.257.076-.513.155-.77.232.133.11.265.223.397.334 3.56.466 3.285 2.41 1.85 4.802 2.606-3.092 2.402-3.833-1.477-5.368z"/><path fill="#313131" d="M226.382 94.62c.867-1.706.133-3.325-1.362-3.555-2.36-.36-3.977 1.13-4.507 3.56l.96.11c1.405-3.056 3.003-3.595 4.91-.115z"/><path fill="#313131" d="M221.474 94.736l.24.027c1.472-2.756 3.083-1.028 4.668-.144-1.906-3.48-3.504-2.94-4.908.116z"/><path fill="#333" d="M215.292 85.278c.38-.482 1.163-1.06 1.075-1.43-.464-1.953-2.4-2.42-3.99-3.697-.54.89-1.61 2.043-1.39 2.398.938 1.518 3.492.758 4.305 2.73z"/><path fill="#282828" d="M247.028 131.588c4.163-.804 1.206-3.463.674-4.458-1.2-2.248-2.486.018-4.013.694 2.176.536 3.092 1.885 3.338 3.764z"/><path fill="#2B2B2B" d="M234.732 120.51c.06-.032.12-.057.18-.09-.015-.126-.028-.253-.042-.38-3.026 1.568-5.86 3.204-2.42 7.007.356-.33.713-.657 1.07-.985-2.194-2.328-.313-3.906 1.212-5.55z"/><path fill="#2B2B2B" d="M234.978 121.05l-.066-.63c-.06.033-.12.058-.18.09-1.524 1.646-3.405 3.225-1.212 5.552l.34-.312c-1.67-2.053.53-3.186 1.118-4.7z"/><path fill="#161616" d="M215.594 90.75c1.477.168 1.467-5.65 4.055-1.007l1.143.04c1.252-1.937.046-3.257-1.383-4.096-2.115-1.242-1.984 1.49-3.11 2.137-.997.57-1.483 1.723-1.516 2.954.266-.114.536-.124.81-.03zM230.74 113.532l6.048-.933c-.345-.286-.69-.57-1.034-.857-1.25-.29-.956-1.3-1.006-2.148-.195-.262-.41-.507-.642-.735-1.366 1.296-2.81 2.54-3.366 4.672z"/><path fill="#2F2F30" d="M214.772 97.844c-1.474 4.375-.433 5.303 5.06 4.56-.363-.594-.728-1.188-1.092-1.78-3.056 1.58-2.073-2.68-3.968-2.78z"/><path fill="#2F2F30" d="M214.71 97.835c.022 0 .04.008.062.01l.027-.086-.09.075z"/><path fill="#111" d="M220.537 100.748c-.226-1.982.303-3.86.812-5.74l.03-.07c-.31.097-.6-.013-.867-.312l-1.772 6c.877.278 1.29.842 1.094 1.78l.973.09c.044-.535.088-1.07.13-1.604-.13-.045-.26-.083-.4-.144z"/><path fill="#111" d="M221.713 94.764c-.113.084-.224.14-.332.174l-.03.07c-.51 1.88-1.038 3.758-.813 5.74.14.06.27.1.4.143l.03-.392c.54-1.873 1.26-3.724.746-5.734zM221.38 94.938l.094-.2c-.32-.038-.64-.076-.96-.112.265.298.554.408.867.312z"/><path fill="#111" d="M221.474 94.736c-.03.067-.062.13-.093.2.11-.033.22-.09.333-.173l-.24-.027zM218.74 100.624l1.093 1.78c.196-.937-.217-1.5-1.093-1.78z"/><path fill="#232323" d="M182.295 79.475c-.834-.313-1.47-1.48-2.25-.106-.166.29.08.95.325 1.312.583.87 1.463 1.385 2.51 1.063 1.897-.582 2.9-1.98 3.186-3.917l-1.132-.015c-.745.797-1.293 2.167-2.64 1.662z"/><path fill="#262626" d="M227.785 97.663c-.214-.19-.427-.382-.64-.573-.073.065-.146.13-.223.193-2.055.953-2.702 4.502-5.71 3.7.188.53.09 1.038-.407 1.512 3.53.127 4.61-3.284 6.98-4.832z"/><path fill="#262626" d="M220.97 100.498c.105.164.186.326.242.485 3.01.802 3.656-2.747 5.71-3.7.077-.063.15-.128.224-.193l-.43-.385c-2.09 1.002-2.986 3.81-5.747 3.793zM221.212 100.983c-.088-.023-.184-.062-.275-.093l-.13 1.604c.497-.473.594-.98.405-1.51z"/><path fill="#262626" d="M220.937 100.89c.092.032.188.07.275.094-.057-.16-.137-.32-.243-.485l-.033.39z"/><path fill="#353535" d="M216.782 91.64c-.25-.186-.498-.373-.747-.56-.007.002-.014.006-.02.01-.454.077-.866-.028-1.232-.312-.894 2.308-1.5 4.616-.016 6.918.687-1.648 1.373-3.296 2.058-4.946l-.043-1.11zM214.8 97.76c-.013-.022-.02-.043-.032-.063l-.057.137.09-.075c0-.002 0 0 0 0z"/><path fill="#353535" d="M216.015 91.09l.02-.01-.44-.33c-.273-.096-.544-.086-.81.028.364.284.777.39 1.23.31zM214.755 97.738v.117z"/><path fill="#272727" d="M207.77 87.76c1.766-.382 3.086 2.215 4.993.718-3.206-4.528-3.206-4.528-5.54-.652l.26-.157.288.09z"/><path fill="#181818" d="M201.742 84.99c.008 1.666-1.752 3.002-.897 4.827.45-1.736 4.21-2.233 1.875-5.01-.322.002-.645.007-.967.01-.002.06-.013.115-.01.173z"/><path fill="#181818" d="M201.742 84.99c-.002-.06.01-.114.01-.172l-.672.008c-.495 1.644-2.44 3.22-.235 4.99-.855-1.824.905-3.16.897-4.826z"/><path fill="#232323" d="M237.932 144.737l.946-1.02c-.606-1.978 1.057-2.752 2.053-3.88l-1.05-.885c-2.722 1.232-4.922 2.638-1.948 5.785z"/><path fill="#060606" d="M239.88 138.953c.48.138.826.44 1.05.885 2.575-.584 5.12-1.558 7.813-.614.02-.432.044-.864.065-1.296-3.094-.68-6.1-.59-8.93 1.025z"/><path fill="#060606" d="M239.88 138.953l1.05.885c-.224-.445-.57-.747-1.05-.885z"/><path fill="#2A2A2A" d="M209.54 79.795c-2.486.81-3.937 2.678-5.1 4.84 2.585-.71 3.945-2.67 5.1-4.84z"/><path fill="#4F4F4F" d="M238.75 126.93c-1.63-.094-3.29.026-4.852-.61-.026.738-.47 1.025-1.45.727 2.128 1.373 4.23 1.4 6.302-.117z"/><path fill="#4F4F4F" d="M233.898 126.32c1.56.636 3.22.516 4.852.61-1.42-1.262-3.326-.512-4.89-1.18.036.215.045.4.038.57zM233.898 126.32c-.072-.028-.145-.05-.217-.083-.06-.06-.105-.116-.16-.175l-1.07.985c.98.298 1.422.01 1.448-.726z"/><path fill="#4F4F4F" d="M233.86 125.75l-.34.31c.055.06.1.116.16.176.073.033.146.055.218.084.007-.17-.002-.355-.04-.57z"/><path fill="#181818" d="M191.765 71.622l-3.702 7.825c2.97-1.816 2.36-4.61 4.63-5.176-.35-.868-1.632-1.41-.928-2.648z"/><path fill="#181818" d="M192.693 74.27l-.93-2.648c-.702 1.238.58 1.78.93 2.65z"/><path fill="#1D1D1D" d="M245.514 161.225c.1-.21.2-.297.305-.297-2.398-.165-4.797-.353-7.194-.518.007.468.014 1.38.02 1.38h7.202c-.322 0-.432-.36-.334-.565z"/><path fill="#1D1D1D" d="M245.514 161.255c-.098.205.013.404.333.596-.032-.3-.042-.603-.028-.906-.105 0-.207.103-.306.31z"/><path fill="#2D2D2D" d="M244.037 172.797c.777-.01 1.448.204 1.96.755.162.018.322.035.482.056.797.197 1.645-.424 2.417.15-1.777-1.478-3.912-2.192-6.073-2.852.463.44.652 1.05.97 1.577.075.12.157.22.243.314z"/><path fill="#2D2D2D" d="M246.48 173.607c-.16-.02-.32-.038-.482-.056.27.29.5.668.672 1.162l2.228-.955c-.772-.573-1.62.048-2.42-.15zM244.037 172.797c-.086-.093-.168-.195-.243-.313-.317-.527-.507-1.136-.97-1.577l.084 2.025c.396-.086.772-.13 1.13-.135z"/><path fill="#373737" d="M182.283 66.686l-1.223 5.173.95 1.17c.953-1.91 2.554-3.786.273-6.344z"/><path fill="#3F3F3F" d="M240.92 130.618c.256-.175.44-.408.553-.702-1.87-.892-3.744-.892-5.62-.022l1.475 1.097 3.592-.372z"/><path fill="#151515" d="M240.92 130.618c.372.93-.505 2.416 1.13 2.75.386.08 1.132-.245 1.274-.574.777-1.79-1.392-1.8-1.852-2.878.01.388-.173.622-.552.702z"/><path fill="#151515" d="M240.92 130.618c.38-.08.563-.314.553-.702-.113.294-.297.527-.553.702z"/><path fill="#373737" d="M240.59 174.687c1.66-.97.005-2.986 1.288-4.074l-1.838-1.025-2.2.206c1.156 1.496 4.65 1.68 2.75 4.893z"/><path fill="#373737" d="M240.59 174.687c1.846-.91 1.09-2.644 1.288-4.074-1.283 1.087.372 3.105-1.29 4.074z"/><path fill="#0A0A0A" d="M182.01 73.028c-.652-.117-.7-.724-.95-1.17-.13 1.62-1.855 3.042-.552 5.1 1.374-1.1 1.333-2.56 1.502-3.93z"/><path fill="#0A0A0A" d="M182.01 73.028l-.95-1.17c.25.447.297 1.053.95 1.17z"/><path fill="#8F8F8F" d="M242.465 167.997c-1.234-.056-2.576.26-3.452-1.022-1.52.47-1.316 1.656-1.172 2.818.687-.577 1.413-.717 2.2-.206.666-1.237 2.037-.36 2.912-.972-.248-.16-.404-.37-.487-.618z"/><path fill="#8F8F8F" d="M242.465 167.997c.083.25.24.458.487.618-.102-.235-.246-.44-.434-.617h-.053zM237.84 169.793l2.2-.206c-.787-.51-1.514-.37-2.2.206z"/><path fill="#252525" d="M242.42 167.83c-.014-.08-.026-.158-.026-.244.017-.634.26-1.23.31-1.856l-3.69 1.245c.98.81 2.582-.498 3.406.854z"/><path fill="#252525" d="M242.42 167.83c.033.054.068.104.1.168 1.132-.668 1.53-1.397.185-2.27-.05.63-.294 1.224-.31 1.857 0 .087.01.166.025.244z"/><path fill="#252525" d="M242.465 167.997c-.02-.055-.034-.11-.045-.168-.824-1.354-2.426-.044-3.407-.855.876 1.283 2.217.966 3.452 1.022z"/><path fill="#252525" d="M242.465 167.997h.054c-.03-.062-.066-.113-.1-.168.01.058.026.112.045.167z"/><path fill="#494949" d="M184.934 77.813c.382-.328.76-.323 1.132.015 1.246-1.1 1.126-2.707 1.53-4.12-.298-.366-.595-.734-.893-1.103-1.18 1.536-1.456 3.378-1.77 5.208z"/><path fill="#494949" d="M184.934 77.813l1.132.015c-.373-.338-.75-.343-1.132-.015z"/><path fill="#434343" d="M235.17 120.29c1.2-.632 2.46-1.104 3.745-1.507-.073-.207-.073-.5-.035-.837-1.562.265-3.17.446-4.01 2.094.14.078.234.162.3.25z"/><path fill="#434343" d="M235.254 120.68c-.084.246-.176.37-.276.37l5.037-2.146c-.67.317-.98.212-1.1-.122-1.286.404-2.546.875-3.744 1.506.097.124.13.254.084.392z"/><path fill="#434343" d="M238.915 118.783c.233-.073.47-.142.704-.213-.248-.208-.494-.417-.74-.625-.038.338-.038.63.035.838z"/><path fill="#434343" d="M240.015 118.904c-.132-.11-.264-.223-.396-.334-.235.07-.472.14-.705.213.12.334.43.44 1.1.12zM235.17 120.29c-.066-.088-.16-.172-.3-.25l.04.38c.086-.046.175-.086.26-.13z"/><path fill="#434343" d="M235.254 120.68c.047-.138.013-.268-.083-.39-.085.044-.174.083-.26.13l.067.63c.1 0 .193-.124.277-.37z"/><path fill="#333" d="M202.72 84.807c-.113-1.413 2.128-2.755.126-4.225.067 1.374-.85 2.5-1.06 3.803.308-.047.62.092.934.422z"/><path fill="#333" d="M201.08 84.826c.233-.264.47-.405.705-.44.21-1.304 1.128-2.43 1.06-3.804-1.185 1.166-1.917 2.522-1.765 4.244z"/><path fill="#333" d="M201.785 84.385c-.023.142-.028.287-.032.434.322-.005.645-.01.967-.013-.314-.33-.626-.47-.935-.422z"/><path fill="#333" d="M201.785 84.385c-.236.036-.472.177-.705.44l.673-.007c.004-.146.01-.292.032-.433z"/><path fill="#2B2B2B" d="M234.748 109.595c2.073-1.288 3.828-2.665 1.462-5.185.085 1.86-2.004 2.69-2.104 4.45.552-.05.75.207.642.735zM236.21 104.387c0-.003-.003-.006-.005-.01-.003.013-.008.027-.004.022.004.002.007.006.01.01 0-.01 0-.02.002-.03v.007z"/><path fill="#2B2B2B" d="M236.212 104.38c.002-.013.004-.026.003-.04.004-.008-.004.017-.01.037l.006.01.002-.007zM234.106 108.86c.232.228.446.473.642.734.108-.527-.09-.785-.642-.735z"/><path fill="#343434" d="M236.788 112.6c1.21-.62 3.032-.026 4.167-2.107-2.203.036-3.894-.265-5.2 1.25 1.057-.575 1.13.04 1.033.857z"/><path fill="#343434" d="M235.754 111.743l1.034.856c.096-.818.024-1.432-1.034-.857z"/><path fill="#2E2E2E" d="M221.43 110.6c2.228-.89 3.46-1.475 3.683-3.728-1.73.625-3.07.97-3.684 3.73z"/><path fill="#393939" d="M226.106 115.535c-.095.193.546 1.065.737 1.03 1.44-.264 2.647-.882 2.902-3.265-1.656.767-3.02.97-3.64 2.235z"/><path fill="#272727" d="M219.662 90.143c-.146-.065-.282-.1-.42-.13-.744.492-1.49.985-2.233 1.478.044.06.094.11.135.173.137.434.042.8-.32 1.088 2.075.017 3.388-.985 3.968-2.966-.308.337-.684.454-1.13.36z"/><path fill="#272727" d="M219.243 90.012c.137.032.273.066.42.13.446.097.822-.02 1.13-.357l-1.145-.04-.405.267zM217.145 91.663c-.04-.064-.09-.114-.136-.172l-.228.15.043 1.11c.362-.287.456-.653.32-1.087z"/><path fill="#454545" d="M197.2 84.285c.01-.02.02-.037.026-.056-.155-.183-.31-.364-.467-.546-.382.36-.763.724-1.145 1.085.772.66 1.208.203 1.585-.485z"/><path fill="#454545" d="M195.365 87.52c1.97.61 1.523-1.815 2.27-2.814-.136-.158-.27-.317-.408-.476-.008.02-.018.037-.026.056-.376.688-.812 1.144-1.583.484.027.97-1.828 2.26-.252 2.75z"/><path fill="#070707" d="M198.83 80.703c-1.325.552-2.157 1.447-2.07 2.98.218.1.396.232.54.395.526-1.126 1.16-2.19 1.53-3.375z"/><path fill="#070707" d="M197.635 84.705c.437-1.322 2.112-2.275 1.196-4.002-.37 1.184-1.004 2.25-1.53 3.375.153.173.266.38.335.627zM197.3 84.078c-.144-.163-.322-.295-.54-.394l.467.545c.023-.052.05-.1.073-.152z"/><path fill="#070707" d="M197.3 84.078c-.023.05-.05.1-.073.15l.408.477c-.07-.246-.182-.454-.335-.627z"/><path fill="#292929" d="M248.742 139.224c2.03.62-.467 2.868 1.606 4.05.674-2.44 2.066-4.52-1.54-5.346.422.454.4.885-.066 1.296z"/><path fill="#292929" d="M248.808 137.928c-.02.432-.044.864-.065 1.296.466-.41.487-.842.065-1.296z"/><path fill="#282828" d="M203.435 77.92c.062.658-.117 1.26-.576 1.8 2.892.177 1.907-2.6 2.93-3.848-1.147.18-1.25 1.813-2.355 2.05z"/><path fill="#282828" d="M203.435 77.92c-.153.034-.325.042-.522.013l-.054 1.787c.457-.54.637-1.142.575-1.8zM203.35 77.44l.018.03c.04.153.054.302.067.45 1.104-.236 1.208-1.87 2.354-2.047-1.904-1-1.93.622-2.44 1.567z"/><path fill="#282828" d="M203.367 77.47l-.02-.03c-.112.21-.25.387-.436.494.198.03.37.02.523-.012-.012-.15-.026-.298-.066-.452z"/><path fill="#555" d="M199.48 72.787c-.01-.234-1.01-.704-1.077-.63-.87.954-1.475 2.02-.676 3.47 1.337-.535 1.79-1.585 1.752-2.84z"/><path fill="#222" d="M209.477 96.88c2.07 0 2.355-1.627 3.877-3.915-2.825 1.09-4.006 1.823-3.877 3.916z"/><path fill="#505050" d="M227.57 96.656c.23.158.27.53.215 1.007.682-.55 1.96-.613 1.832-1.832-.1-.94-.894-1.175-1.77-1.036.354.787.144 1.363-.276 1.862z"/><path fill="#505050" d="M227.57 96.656c.42-.5.63-1.075.275-1.862l-1.13 1.91c.422-.167.688-.163.856-.048z"/><path fill="#505050" d="M227.57 96.656c-.126.15-.27.295-.425.435l.64.574c.056-.478.017-.85-.214-1.008z"/><path fill="#505050" d="M227.57 96.656c-.167-.115-.434-.12-.855.05.144.127.287.256.43.384.157-.14.3-.284.426-.434z"/><path fill="#1C1C1C" d="M187.847 70.062c-1.527-.57-.768 1.628-1.144 2.544.62.106.664.68.893 1.104-.29-1.306 2.163-2.933.25-3.648z"/><path fill="#1C1C1C" d="M186.703 72.605l.893 1.104c-.23-.425-.273-.998-.893-1.105z"/><path fill="#464646" d="M235.852 129.894c-1.064.124-2.82.242-2.022 1.626.927 1.606 2.354.05 3.498-.53-1.016.34-1.548.027-1.476-1.096z"/><path fill="#464646" d="M237.327 130.99l-1.476-1.097c-.07 1.124.462 1.437 1.477 1.097z"/><path fill="#444" d="M237.932 144.737c1.03 1.325 2.265 1.603 4.077.62-1.2-.63-2.167-1.135-3.132-1.64.314.924.048 1.308-.946 1.02z"/><path fill="#444" d="M238.878 143.717l-.946 1.02c.994.288 1.26-.096.946-1.02z"/><path fill="#494949" d="M239.824 155.626c1.85.137 3.69.17 5.434-.615-1.768.586-3.685-.144-5.434.616z"/><path fill="#494949" d="M239.824 155.404c1.75-.76 3.666.385 5.434-.615h.002c-1.86 0-3.767-.852-5.436.614z"/><path fill="#262626" d="M85.808 118.927c-1.773 1.48-2.694.926-2.944-1.232-.137-.59-.458-.84-1.06-.572.013.218.023.437.035.654-2.183 2.094-4.926.596-7.35 1.146-.565.128-1.404-.296-1.62.537-.202.784-.1 1.686.72 2.116.994.52 2.07.88 3.112 1.31l1.005-.8c-.26-.194-.528-.376-.77-.588-.063-.056-.043-.206-.06-.312 3.033-.163 6.068-.308 9.1-.505.657-.04 1.888.193 1.075-1.17-.194-.327-.818-.396-1.244-.583z"/><path fill="#1B1B1B" d="M74.872 169.78c-1.7.725-3.51.94-5.303.78-1.625-.144-3.468-.327-4.1-2.23-.573-1.72.625-2.76 1.865-3.675.076-.052.154-.088.23-.136l-.71-.576c-3.118 1.496-4.646 3.705-1.166 6.02 2.768 1.84 6.18 2.567 9.182-.184z"/><path fill="#1B1B1B" d="M66.32 168.06c-.684-1.585.967-2.2 1.645-3.216l-.398-.323c-.076.05-.155.085-.23.137-1.24.914-2.438 1.955-1.866 3.676.634 1.9 2.477 2.085 4.1 2.23 1.794.16 3.605-.057 5.304-.78-1.62.025-3.24.06-4.86.077-1.534.016-3.025-.252-3.694-1.8z"/><path fill="#181818" d="M69.63 152.43c-.007-.083.143-.257.222-.258 2.99-.013 5.98.006 8.97.006-.01-.47-.02-1.39-.027-1.39H63.09c2.312 2 4.46 2.85 6.71 3.132l.01-1.022c-.067-.153-.17-.31-.18-.467z"/><path fill="#232323" d="M117.928 71.59l2.188 5.115c.406.024.813.052 1.226.08 0 0 0 .004.002.004 1.595-2 2.22 1.477 3.608.632.092-.16.206-.304.34-.43-1.45-2.892-3.643-4.707-7.364-5.4z"/><path fill="#454545" d="M69.167 156.96l-4.285 1.53c4.552.386 9.104.772 13.655 1.16-1.506-2.57-3.766-1.533-5.63-2.09-1.292.088-2.645.55-3.74-.6z"/><path fill="#2C2C2C" d="M95.65 98.705c-.8.07-.814-.306-1.814-.988-1 .07-1.656.143-2.536.214 1.323 2.4 2.654 4.834 5.15 6.91.1-1.71-.684-2.982.323-4.045-.912-.41-1.026-1.253-1.122-2.09z"/><path fill="#343434" d="M88.833 109.8c.005.326.007.652.006.98 1.564 1.74 3.527 1.776 5.17.526 1.635-1.245 1.492-3.023-.723-5.93 1.036 5.82-2.24 4.212-4.454 4.423z"/><path fill="#1C1C1C" d="M75.846 169.785c2.188-.135 3.307-1.45 3.1-3.482-.23-2.278-2.043-3.077-4.11-3.34-.013.165-.024.33-.036.497 3.693 1.487 3.546 3.688 1.046 6.325z"/><path fill="#1C1C1C" d="M74.8 163.46l-.038.532c3.112 1.417 1.303 3.754 1.084 5.793 2.5-2.637 2.647-4.838-1.047-6.325z"/><path fill="#1B1B1B" d="M125.295 76.99s0 .002 0 0c0 .002 0 .002 0 0l-.342.43c1.003 2.063 2.738 3.18 5.738 4.716-1.586-3.196-.373-7.543-5.395-5.145z"/><path fill="#1B1B1B" d="M125.294 76.992c-.135.125-.25.267-.34.427.113-.144.227-.286.34-.428z"/><path fill="#333" d="M86.676 101.513c-1.5-1.69-2.715-1.515-3.955-.274-1.373 1.373-1.296 2.714.864 5.657-.4-3.662.917-4.922 3.092-5.384z"/><path fill="#242424" d="M118.334 86.685c-2.086 2.688-3.89 1.91-5.562-.453 1.194 3.552 2.966 5.216 6.252 1.906l-.653-1.536c-.013.027-.022.055-.036.083z"/><path fill="#242424" d="M118.334 86.685c.014-.028.023-.056.036-.083l-.31-.727c-1.553 3.228-3.474 1.02-5.29.356 1.674 2.365 3.478 3.143 5.564.455z"/><path fill="#1E1E1E" d="M110.173 78.254c2.917-3.158 4.42.617 6.55 1.336-1.606-2.62-3.218-5.225-6.86-2.734.025.503.05 1.008.307 1.41 0-.005 0-.01.003-.012z"/><path fill="#1E1E1E" d="M110.173 78.254c0 .003-.002.007-.004.01.117.183.278.347.52.475 2.372-2.274 3.915 1.32 6.032.85-2.128-.72-3.632-4.494-6.55-1.336z"/><path fill="#191919" d="M97.76 85.977c-1.768.808-3.444 1.77-3.99 3.854-.037.138.07.313.11.47 1.304-1.484 5.107-.143 4.807-3.49-.03-.32-.764-.908-.926-.833z"/><path fill="#2E2E2E" d="M93.274 97.107c.246.04.482.1.71.18l-.178-1.346c-1.508-.748-2.75-2.152-4.773-2.004.207 1.785 1.277 2.896 2.37 3.994.447-.677 1.118-.84 1.87-.823z"/><path fill="#2E2E2E" d="M93.985 97.286c-.23-.078-.464-.14-.71-.18-.753-.016-1.425.147-1.87.824.878-.07 1.758-.144 2.638-.215-.02-.143-.04-.286-.058-.43z"/><path fill="#343433" d="M68.927 137.48c-.985-.1-2.256-1.806-2.863-.168-.643 1.734.746 2.584 2.487 2.606l4.24-1.924c-1.287-.176-2.57-.384-3.863-.515z"/><path fill="#383838" d="M73.902 139.596c.16-.134.35-.2.55-.242l1.586-.698c-.975-.752-2.087-.826-3.248-.66-.778 2.04-2.458 2.094-4.24 1.923.547.993 2.694.795 2.017 2.702l1.21.354v.03h.002c-.002-.01 0-.022-.003-.032l.08-2.25c.197-1.257 1.355-.768 2.045-1.128z"/><path fill="#383838" d="M72.79 137.994l-4.24 1.924c1.782.17 3.462.117 4.24-1.924z"/><path fill="#3E3E3E" d="M70.305 156.53c.865-.18 1.73-.363 2.594-.545 1.37-.373 2.246-.96.425-1.917-1.08-.568-2.338-.798-3.517-1.18.302.228.4.454.3.68s-.205.335-.308.335l-1.356 1.66 1.153.897c.24.013.474.037.708.07z"/><path fill="#3E3E3E" d="M70.106 153.567c.103-.225.003-.45-.3-.68l-.007 1.016c.102 0 .204-.11.306-.336zM70.305 156.53c-.233-.033-.47-.058-.708-.07.074.06.148.116.222.174.16-.034.323-.07.485-.103z"/><path fill="#1C1C1C" d="M70.566 142.62c-1.122.025-2.246.017-3.365.082-1.102.063-2.66.012-2.39 1.573.29 1.657 1.898.22 2.814.656 1.08-.395 1.938-1.45 3.27-1.113l.484.012.443-.197-.044-.628c-.473.18-.88.064-1.21-.384z"/><path fill="#1C1C1C" d="M71.777 143.005c0-.01 0-.02-.002-.03l-1.21-.353c.33.447.738.563 1.212.383z"/><path fill="#1A1A1A" d="M74.45 163.385c.008-.034.012-.07.03-.103.12-.214.238-.32.354-.32-2.77-.57-5.48-.64-7.978.983.303.148.656.234.886.472 2.083-1.23 4.377-1.235 6.707-1.032z"/><path fill="#1A1A1A" d="M67.965 164.844c2.227-.595 4.444-1.262 6.797-.852-.265-.214-.363-.416-.312-.607-2.33-.203-4.624-.198-6.707 1.032.103.106.188.234.222.427zM67.743 164.417c-.23-.237-.583-.323-.886-.472l.71.575c.058-.036.117-.068.176-.103z"/><path fill="#1A1A1A" d="M67.743 164.417c-.06.035-.118.067-.176.104.133.11.266.217.398.324-.034-.193-.12-.32-.222-.427zM74.48 163.282c-.018.033-.022.068-.03.103.07.006.14.01.212.017.05.02.09.04.137.06.01-.167.022-.333.034-.5-.115 0-.232.106-.353.32z"/><path fill="#1A1A1A" d="M74.762 163.992l.037-.532-.138-.06-.213-.016c-.052.192.047.394.312.608z"/><path fill="#323232" d="M68.857 156.445c.09-.004.178.007.268.006-.27-.254-.514-.534-.682-.886-1.36.32-2.858.386-4.043 1.028-1.222.663-1.175 1.633.48 1.897.48-2.327 2.55-1.56 3.977-2.045z"/><path fill="#323232" d="M69.59 156.85c-.16-.128-.316-.26-.464-.398-.09 0-.177-.01-.268-.006-1.428.484-3.496-.282-3.976 2.045l4.285-1.53c.166.013.302-.034.423-.11zM69.125 156.45c.16 0 .315.004.47.01l-1.152-.895c.168.35.41.63.682.886z"/><path fill="#323232" d="M69.818 156.634l-.222-.173c-.156-.006-.312-.01-.47-.01.147.14.303.272.463.398.085-.053.166-.116.228-.214z"/><path fill="#2C2C2C" d="M71.954 142.94c-.06.033-.117.042-.176.064.025.208.04.418.044.628 1.28-.096 2.768.57 3.875-1.158l-3.84-1.752c.575.716.57 1.458.097 2.22z"/><path fill="#2C2C2C" d="M71.778 143.004c.06-.022.115-.03.176-.063.472-.76.478-1.502-.098-2.218l-.08 2.25c.002.012 0 .022.002.032z"/><path fill="#3D3D3D" d="M68.068 175.872c-2.604 1.506-4.342 3.09-.432 5.214l.195-1.278c-.71-1.37.48-2.595.238-3.936z"/><path fill="#464646" d="M67.625 144.932c1.935 1.092 4.067 1.484 6.233 1.754l.038-1.126c-.59-1.288-2.584-.158-3.003-1.742-.94.81-1.888 1.594-3.268 1.114z"/><path fill="#464646" d="M67.625 144.932c1.38.48 2.33-.304 3.27-1.114-1.333-.338-2.19.718-3.27 1.114z"/><path fill="#010101" d="M78.27 109.646c2.113 2.435 4.12 3.653 6.55 4.193l.012-.693c-1.702-1.6-3.487-3.032-6.56-3.5z"/><path fill="#3D3D3D" d="M102.937 82.3c.724 1.712 1.283 3.51 3.188 4.382l.445-.254c-.082-2.306-1.46-3.527-3.633-4.128z"/><path fill="#424242" d="M118.6 85.945c1.184.288.495 1.37.424 2.192 1.898-2.676.153-4.875-.938-7.16-.316 1.677.875 3.287.514 4.968z"/><path fill="#424242" d="M118.062 85.875c.214.01.39.034.538.07.36-1.68-.83-3.292-.514-4.967-1.274 1.626.064 3.265-.024 4.897zM118.6 85.945c-.047.217-.124.436-.23.656.22.513.437 1.025.654 1.537.07-.82.76-1.904-.424-2.192z"/><path fill="#424242" d="M118.37 86.602c.105-.22.183-.44.23-.656-.15-.036-.325-.062-.54-.07.105.24.208.483.31.726z"/><path fill="#323233" d="M110.015 78.666c-.933-.216-.725-.933-.152-1.81-1.98 2.725-1.71 5.133 1.013 7.195-.953-1.712-1.584-3.465-.86-5.384z"/><path fill="#323233" d="M110.69 78.74c-.28 0-.492-.032-.676-.074-.722 1.92-.09 3.672.86 5.386.282-1.782-1.11-3.507-.185-5.313zM110.015 78.666c.05-.134.09-.267.154-.402-.26-.4-.283-.905-.308-1.41-.572.88-.78 1.596.153 1.812z"/><path fill="#323233" d="M110.17 78.264c-.065.135-.105.268-.155.402.184.042.396.073.675.073-.242-.13-.403-.293-.52-.476z"/><path fill="#2F2F2F" d="M72.786 180.602c.01.36.02.723.028 1.084 1.99.145 3.74-.407 5.206-1.787l-1.122-.934-4.112 1.636z"/><path fill="#404040" d="M106.57 86.428c-.106.15-.255.236-.445.254.27 1.916 1.42 3.146 3.092 3.97l.34-.174c.037-2.112-1.034-3.406-2.987-4.05z"/><path fill="#030303" d="M78.653 176.038c.046 1.354-.89 2.12-1.755 2.928.46.21 1.02.295 1.122.933 2.138-1.16 3.746-2.49 1.644-5.034-.337.39-.674.78-1.01 1.172z"/><path fill="#030303" d="M76.898 178.966l1.122.933c-.102-.64-.663-.725-1.122-.934z"/><path fill="#353535" d="M88.58 110.127c.084-.22.168-.328.253-.328-1.432-1.23-2.594-2.984-5.356-2.775 1.685 1.998 3.094 3.48 5.362 3.755-.257-.218-.344-.434-.26-.653z"/><path fill="#353535" d="M88.58 110.127c-.084.22.003.436.26.652 0-.328-.002-.654-.007-.98-.085 0-.17.108-.253.327z"/><path fill="#1D1D1D" d="M80.287 131.06c.004.006-.184.013-.18.02.01-.004-.27.016-.27.014v-.003c0 .003.186.004.182.006l.172-.01c2.238.958-2.265 2.945.542 3.605 1.162.274 2.166-.766 2.216-2.087.083-2.19-.99-2.447-2.663-1.544z"/><path fill="#525252" d="M76.828 127.84c-1.362-1.56-3.02-1.567-4.785-1.163 1.454 1.23 2.974 2.08 4.84 1.93.092-.264.073-.52-.055-.768z"/><path fill="#616161" d="M126.166 72.677c.714-1.505.094-2.594-.703-3.586-.087-.106-1.105.22-1.143.44-.233 1.38.336 2.403 1.846 3.147z"/><path fill="#1D1D1D" d="M85.47 125.845l-4.594-2.083-.964.87c1.475.526 2.728 1.924 5.557 1.213z"/><path fill="#505050" d="M124.273 85.063c.487-2.405-.562-3.82-1.473-5.272l-1.188.07c.41 1.79.715 3.64 2.66 5.203z"/><path fill="#0A0A0A" d="M74.452 139.354l-.55.242c1.393.323 2.8.596 4.172.99.694.2 1.39.243 1.638-.415.396-1.046-.36-1.38-1.263-1.426-.804-.043-1.608-.06-2.412-.09-.334.676-1.007.58-1.586.7z"/><path fill="#0A0A0A" d="M76.038 138.655l-1.586.698c.58-.12 1.252-.023 1.586-.698z"/><path fill="#1F1F1F" d="M100.39 91.694c.762 1.944 1.623 3.78 5.16 4.97-1.966-2.675-2.957-4.36-5.16-4.97z"/><path fill="#222" d="M74.192 146.32c-.113.244-.225.365-.334.365 1.52-.06 3.02 1.88 4.91.188-1.66-1.302-3.326-1.078-4.872-1.313.314.26.413.514.296.76z"/><path fill="#222" d="M74.192 146.32c.116-.246.018-.5-.296-.76l-.038 1.125c.11 0 .22-.12.334-.364z"/><path fill="#111" d="M81.805 117.122c-1.432-.867-2.703-2.188-4.87-1.83 1.49 1.563 3.022 2.38 4.904 2.484-.134-.212-.145-.43-.035-.654z"/><path fill="#161616" d="M96.87 97.768l-.835.7c.602.646.82 1.443.816 2.327l1.886-.526c.03-.474.06-.947.088-1.42-.652-.362-1.303-.722-1.955-1.082z"/><path fill="#161616" d="M95.754 98.705c.096.837.184 1.68 1.097 2.09.005-.884-.213-1.68-.815-2.326l-.28.235z"/><path fill="#424242" d="M109.556 90.478l-.34.173c-.034 1.393.51 2.46 1.862 2.91.2.066.934-.598.885-.792-.303-1.233-.776-2.407-2.407-2.29z"/><path fill="#3C3C3C" d="M70.81 130.97c-.466.353-.933.704-1.4 1.056l4.46 1.63 1.205-1.02-4.265-1.665z"/><path fill="#3A3A3A" d="M79.664 174.865c-1.207-1.534-2.594-2.03-4.718-.965l3.707 2.138c-.338-.973.046-1.323 1.01-1.173z"/><path fill="#3A3A3A" d="M78.653 176.038l1.01-1.173c-.964-.15-1.348.2-1.01 1.173z"/><path fill="#555" d="M120.116 76.705c.42 1.088.413 2.38 1.496 3.154.376-.362.77-.4 1.188-.07-.025-1.223-.515-2.223-1.457-3.006-.43.33-.842.32-1.227-.08z"/><path fill="#555" d="M120.116 76.705c.385.4.796.408 1.228.08 0-.002 0-.003-.002-.004l-1.226-.075zM121.612 79.86l1.188-.07c-.416-.33-.812-.292-1.188.07z"/><path fill="#4B4B4B" d="M94.2 97.375c.543.213 1.05.506 1.547.822.046-.534.32-.797 1.122-.43l-3.063-1.826c.468.434.592.913.394 1.435z"/><path fill="#4B4B4B" d="M95.747 98.197c-.497-.316-1.004-.61-1.546-.822-.04.112-.08.224-.154.34h-.004c.366.684.91 1.06 1.712.99v-.002c-.018-.186-.02-.355-.007-.506z"/><path fill="#4B4B4B" d="M94.2 97.375c.2-.522.076-1-.393-1.434.06.448.12.897.178 1.346.074.025.143.06.216.09z"/><path fill="#4B4B4B" d="M94.2 97.375c-.07-.028-.14-.064-.215-.09.02.144.04.287.057.43h.004c.074-.116.112-.228.155-.34zM95.747 98.197l.108.067c.07.063.117.137.18.204l.833-.7c-.8-.368-1.075-.105-1.12.43z"/><path fill="#4B4B4B" d="M95.747 98.197c-.013.15-.01.32.007.507.094-.078.188-.156.28-.235-.06-.068-.107-.142-.178-.205l-.11-.068z"/><path fill="#353535" d="M98.823 98.85c.415.5.386.974-.088 1.42.94.684 2.245 2.54 2.98.892.74-1.666-1.74-1.682-2.892-2.312z"/><path fill="#353535" d="M98.823 98.85c-.03.473-.06.946-.088 1.42.474-.447.503-.92.088-1.42z"/><path fill="#0A0A0A" d="M72.47 180.972c.103-.246.208-.37.316-.37-1.707.083-3.39.01-4.954-.794.445.504.38.93-.195 1.278 1.605 1.247 3.405.806 5.178.6-.333-.233-.448-.47-.345-.714z"/><path fill="#0A0A0A" d="M67.832 179.808l-.195 1.278c.575-.35.64-.774.195-1.278zM72.47 180.972c-.103.243.013.48.345.714-.01-.36-.02-.723-.028-1.084-.11 0-.215.124-.317.37z"/><path fill="#1E1E1E" d="M75.074 132.636c-.155.63-.786.7-1.204 1.02 1.383.24 2.57 1.67 4.344.623-.515-1.645-1.943-1.445-3.14-1.644z"/><path fill="#1E1E1E" d="M75.074 132.636l-1.204 1.02c.418-.32 1.05-.39 1.204-1.02z"/><path fill="#282828" d="M76.828 127.84c.354.145.48.307.38.486-.105.187-.213.28-.325.28.874 1.135 2.726.926 3.37 2.39 1.143-3.44-1.535-2.886-3.425-3.157zM80.25 130.996l-.028.095c.022-.01.042-.018.064-.03-.01-.022-.024-.04-.035-.064z"/><path fill="#282828" d="M80.3 131.08l-.013-.02c-.022.01-.042.018-.064.03v.003c-.01.003.088-.017.076-.012zM77.208 128.326c.1-.18-.025-.34-.38-.487.128.247.146.503.055.767.112 0 .22-.094.325-.28z"/><path fill="#555" d="M76.702 122.885c.8 1.08 2.024 1.378 3.21 1.746-.174-.838-.083-1.383.964-.868-1.057-.56-2.113-1.12-3.17-1.678.133.853-.05 1.312-1.004.8z"/><path fill="#555" d="M77.707 122.084l-1.005.8c.955.512 1.137.053 1.005-.8zM79.912 124.63c.32-.29.643-.58.964-.868-1.047-.515-1.138.03-.964.87z"/><path d="M84.83 113.146l-.01.692c.524 1.373 1.76 1.698 2.99 2.025.008-.354.014-.707.02-1.06-.785-.94-1.7-1.643-3-1.657z"/><path fill="#343434" d="M70.81 130.97c-.956-.145-1.922-1.77-2.794-.436-.806 1.232.364 1.496 1.395 1.49.144-.78.833-.835 1.4-1.053z"/><path fill="#343434" d="M69.41 132.025l1.4-1.055c-.567.22-1.256.275-1.4 1.055z"/><path fill="#141414" d="M85.808 118.927c-.98-.41-1.963-.82-2.944-1.232.79.868 1.61 1.666 2.944 1.232z"/><path fill="#141414" d="M85.808 118.927c-1.335.435-2.154-.363-2.944-1.232.25 2.158 1.17 2.712 2.944 1.232z"/><path fill="#010101" d="M88.13 115.517c-.106.23-.212.348-.318.348l1.75 1.344.79-1.126-2.52-1.28c.308.24.407.478.3.713z"/><path fill="#010101" d="M88.13 115.517c.11-.234.01-.472-.3-.713-.006.354-.012.707-.02 1.06.108 0 .213-.116.32-.347z"/><path fill="#767676" d="M130.723 241.853c.083-.224.24-.43.412-.633-.287-.192-.57-.39-.835-.613-.004 0-.008.004-.012.005-.013.367-.034.734-.046 1.103.16.023.32.075.48.138z"/><path fill="#767676" d="M130.242 241.714c.012-.368.033-.735.046-1.103-.732.23-1.253.63-1.223 1.49.4-.368.79-.446 1.177-.386zM130.723 241.853c-.16-.062-.32-.114-.48-.14-.01.234-.02.468 0 .702.014.03.03.062.044.095.168.056.337.112.506.17-.166-.312-.162-.58-.07-.827z"/><path fill="#767676" d="M130.24 242.415c-.016-.234-.006-.468 0-.7-.386-.06-.777.018-1.176.386l1.222.41-.045-.095zM130.723 241.853c.228.09.456.2.684.312.01.005.015.013.024.02.18-.14.358-.28.537-.418-.275-.186-.556-.363-.832-.547-.174.202-.33.41-.412.633z"/><path fill="#767676" d="M130.723 241.853c-.092.247-.095.516.07.826l.638-.496c-.01-.006-.014-.014-.023-.02-.23-.11-.456-.223-.684-.31zM131.748 240.53c-.177-.413-.544-.555-1.448.076.266.223.548.42.835.613.006-.008.01-.015.017-.022.202-.218.398-.443.596-.667z"/><path fill="#767676" d="M131.15 241.2l-.016.02c.276.184.557.36.832.547-.055-.437-.082-.915-.22-1.235-.196.223-.392.448-.595.667z"/></svg><svg width="81" height="37" viewBox="0 0 81 37" id="nextStop_blcok" x="318.478"><path fill="#499210" d="M61.66 0H0l8.514 16.818L0 37h58.622L81 18.875"/></svg><svg width="81" height="37" viewBox="0 0 81 37" id="year_block" x="318.478" y="37"><path fill="#499210" d="M61.66 0H0l8.514 16.818L0 37h81V0"/></svg></svg>