<?xml version="1.0" encoding="utf-8"?><!DOCTYPE svg PUBLIC "-//W3C//DTD SVG 1.1//EN" "http://www.w3.org/Graphics/SVG/1.1/DTD/svg11.dtd"><svg width="199" height="119" viewBox="0 0 199 119" xmlns="http://www.w3.org/2000/svg" xmlns:xlink="http://www.w3.org/1999/xlink"><svg width="43.313" height="26.496" viewBox="0 0 43.313 26.496" id="goDown" x="117.936" y="74"><path fill="#E0E0E0" d="M21.657 20.623L4.8 0H0s13.1 26.496 21.657 26.496C30.212 26.496 43.313 0 43.313 0H38.51L21.658 20.623z"/></svg><svg width="117.936" height="118.006" viewBox="0 0 117.936 118.006" id="logo_cuc"><path fill="#D1B526" d="M60.24.008C27.306-.496.97 25.194.028 57.226c-.98 33.31 25.235 60.13 57.53 60.77 33.293.658 59.896-25.355 60.373-58.733.453-31.73-25.905-58.77-57.69-59.255zm7.663 65.508c2.104 2.697 2.086 5.76 1.7 8.962-.198-.066-.293-.068-.31-.106-3.62-8.092-10.446-10.785-18.683-11.15-2.835-.125-5.658-.395-8.353-1.392-.545-.2-1.077-.437-1.56-1.03 1.9-.285 3.803-.57 5.705-.852 5.15-.764 9.26-3.186 12.156-7.576 1.458-2.21 2.936-4.41 4.45-6.58.844-1.21 2.014-2.082 3.616-3.288-.885 2.46-1.583 4.39-2.044 6.405-1.386 6.056-.56 11.627 3.323 16.606zm8.4 11.514c-7.146 7.98-21.698 9.86-31.32 2.817 10.675-.77 20.72-3.624 31.32-2.817zM47.818 34.308C35.365 40.256 29.4 52.974 32.867 66.28c.272 1.042.18 1.777-.557 2.65-2.165 2.566-4.753 4.647-7.26 6.835-1.243 1.084-1.546.386-1.988-.656-5.122-12.077-4.735-23.975 1.7-35.397 6.332-11.236 16.17-17.662 28.89-19.69.18-.03.368-.045.55-.035.116.006.23.072.513.17-1.82 4.374-3.64 8.735-5.446 13.102-.277.668-.914.79-1.453 1.048zm.243 2.083c-4.58 9.928-7.496 20.086-13.23 29.547-3.704-11.033 2.513-24.9 13.23-29.546zM27.107 76.34c4.43-3.63 8.204-7.813 11.14-12.734.46-.767.79-1.275 1.843-.767 3.572 1.723 7.47 1.9 11.334 2.24 4.652.406 9.2 1.147 12.666 4.75 1.163 1.207 2.09 2.578 2.922 4.027.52.908.534 1.43-.72 1.593-11.53 1.48-23.055 2.99-34.58 4.504-3.292.432-6.578.905-9.867 1.344-.52.07-1.05.06-2.078.114 2.752-1.837 5.16-3.286 7.34-5.072zm.63 6.223c.19-.66.945-.405 1.455-.474 3.906-.532 7.82-1 11.72-1.57.87-.128 1.5.03 2.218.516 11.375 7.75 24.992 6.665 34.875-2.774.626-.598 1.167-.86 2.1-.702 3.554.598 6.882 1.88 10.238 3.105 1.093.4.87.885.332 1.598C84.472 90.48 76.38 95.7 66.25 97.675c-2.42.472-4.87.762-7.36.727-12.25-.327-22.43-5.018-30.344-14.466-.347-.415-.97-.808-.808-1.373zm44.984-7.49c-.94-.013-1.334-.274-1.22-1.286.454-4.04-.676-7.52-3.078-10.888-4.28-6.002-2.823-12.332-.377-19.032l29.13 37.837c-7.78-4.072-15.786-6.53-24.454-6.633zm-7.88-40.22c8.966.867 20.806 12.112 19.048 26.85-6.308-9.34-14.182-16.902-19.047-26.85zm29.797 40.563c-3.02-3.922-5.836-7.58-8.657-11.235-.392-.506-.224-1.046-.174-1.595 1.338-14.677-6.583-26.138-20.75-29.967-.806-.218-1.24-.534-1.532-1.338-1.228-3.39-1.763-6.922-2.327-10.456-.187-1.17.583-.994 1.254-.945 4.607.332 8.973 1.585 13.157 3.506C94.22 31.93 103.16 54.316 95.56 73.354c-.226.563-.496 1.11-.923 2.062zm-29.244-35.69c.408.728.374 1.154-.34 1.663-2.764 1.975-4.767 4.63-6.353 7.584-3.813 7.098-10.004 9.777-17.98 9.735 6.05-14.642 12.056-29.166 18.06-43.69.31 8.852 2.34 17.067 6.613 24.705zM8.295 80.535C-5.81 47.117 15.45 9.613 51.425 4.47c2.802-.4 5.628-.65 8.67-.418-.596 1.014-.937 1.89-.423 2.798.335.59.102 1.057-.11 1.57-1.13 2.735-2.29 5.458-3.37 8.215-.383.98-.93 1.37-2.008 1.504-17.824 2.226-31.648 14.79-35.47 32.3-1.93 8.835-.964 17.425 2.814 25.648.577 1.256.557 1.895-.743 2.584-1.96 1.04-3.872 2.17-5.928 3.023-.963.4-1.895.894-2.952.12-.283-.21-.97-.242-1.23-.042-1.754 1.352-1.943-.2-2.38-1.236zM102.59 92.54c-11.168 14.075-25.775 21.174-44.397 21.637-19.367-.73-35.02-9.26-45.998-26.153-.425-.654-1.295-1.86-1.036-1.99 1.084-.546 1.684-1.817 2.942-1.986 3.36-.45 6.735-.79 10.083-1.307 1.176-.18 1.493.577 2.004 1.232 6.617 8.474 15.14 13.962 25.792 15.592 16.43 2.514 29.818-3.017 40.038-16.1.925-1.184 1.554-1.442 2.773-.59 1.614 1.128 3.33 2.11 4.965 3.21 1.003.674 2.092 1.31 1.73 2.892-.122.528.33 1.175.847 1.33 1.946.583.887 1.436.255 2.234zm4.564-6.98c-1.526 2.806-1.807 3.046-3.967.76-2.57-2.72-4.688-5.875-6.96-8.874-.517-.684.184-1.285.423-1.87 5.25-12.815 4.764-25.397-2.256-37.345C87.344 26.234 76.62 19.52 62.73 18.07c-1.302-.136-1.864-.41-1.77-1.822.13-1.965-.002-3.942.315-5.905.197-1.22.3-2.34 1.508-3.167 1.02-.698.46-1.885.182-3.013 26.39 2.152 47.378 22.1 50.574 47.977 1.456 11.8-.696 22.962-6.386 33.423z"/><path fill="#2FC700" d="M21.844 81.298c3.29-.44 6.576-.912 9.867-1.344 11.526-1.513 23.05-3.023 34.58-4.504 1.255-.162 1.243-.685.72-1.593-.83-1.45-1.758-2.82-2.92-4.028-3.468-3.603-8.014-4.344-12.667-4.75-3.865-.338-7.762-.517-11.334-2.24-1.055-.51-1.385 0-1.843.766-2.936 4.92-6.71 9.104-11.14 12.734-2.182 1.786-4.59 3.235-7.34 5.072 1.028-.054 1.558-.044 2.077-.114z"/><path fill="#DB0D00" d="M40.72 58.71c7.976.04 14.167-2.64 17.98-9.736 1.586-2.955 3.59-5.61 6.354-7.585.713-.51.747-.937.34-1.666-4.275-7.637-6.305-15.853-6.615-24.703-6.005 14.525-12.01 29.048-18.06 43.69z"/><path fill="#0000DB" d="M68.046 43.868c-2.446 6.7-3.903 13.03.377 19.03 2.4 3.37 3.53 6.85 3.077 10.89-.114 1.01.28 1.272 1.22 1.284 8.67.104 16.676 2.562 24.455 6.633l-29.13-37.837z"/><path fill="#262626" d="M42.815 82.865c-.36 1.02-.772 1.736-1.752 1.495-.025.033-.053.062-.08.092-.258.39.488.743.203.95-.53.383-.97-.186-1.435-.403-.006.75.517 1.245.873 1.82l.1.6c2.63-1.568 2.78-1.857 2.092-4.555z"/><path fill="#373737" d="M46.308 90.398c.208 1.072-.222 1.77-1.245 2.12.696.258 1.408.404 2.153.304.707-.238.404-1.05.826-1.45.48-.655-.427-1.11-.25-1.72-.01-.317.183-.467.454-.55v-.01c-.062-.092-.12-.187-.175-.282l-1.11-.312-.37.04.003.648c.666.585.11.88-.285 1.212z"/><path fill="#282828" d="M64.588 93.36c.314.226.565-.08.85-.102.133-.006.267-.01.4-.017.764-1.36.165-2.738.348-4.105-.74-.03-.603.518-.797.59-2.175.81.278 2.612-.802 3.634z"/><path fill="#1B1B1B" d="M71.853 91.89c.307.437.488-.21.7-.425l-.03-.825c.13-.234.258-.47.388-.705-.318-.36-.94-.645-.308-1.242-.132-.43-.05-1.075-.768-.99-.642.075-.363.646-.418 1.017-.095.636.18 1.28-.267 1.922-.464.666.443.876.703 1.247z"/><path fill="#595959" d="M63.546 94.1c.192-1.315.264-2.647.402-4.22-1.15.777-1.263 1.707-1.43 2.61.123.51.245 1.023.367 1.535.194.35.616.382.66.074z"/><path fill="#10100F" d="M77.727 83.913c.11-.446.488-.877.074-1.35-.464.64-1.623.646-1.593 1.74l.01.693c.504-.36 1.007-.722 1.51-1.083z"/><path fill="#242424" d="M77.727 83.913c-.006.23.008.465-.022.693-.094.7-.145 1.302.716.44.04-.24-.59-.33-.144-.658.286-.522.12-1.168.518-1.686.196-.255.212-.79-.193-.902-.523-.144-.928.09-.798.76.925.504.43.93-.075 1.353z"/><path fill="#242424" d="M77.727 83.913c.503-.424 1-.85.074-1.35.416.473.038.904-.073 1.35z"/><path fill="#313131" d="M79.092 88.926c-.11.46.374.518.71.556.49.056.76-.203.874-.686.158-.676-.37-.763-.932-1.018-.207.35-.548.72-.652 1.148z"/><path fill="#424242" d="M55.574 95.012c.815.337.987-.328 1-.99-.825.416-1.012-.485-1.514-.733-.744.845-.182 1.434.514 1.722z"/><path fill="#252525" d="M38.508 89.762c1.55-.533 1.94-1.387 2.215-2.342-.22-.168-.254-.368-.1-.6-.906.664-1.1 1.775-2.115 2.942z"/><path fill="#252525" d="M40.722 87.42l-.1-.6c-.153.232-.12.43.1.6z"/><path d="M55.657 92.105c.862.017.45-.64.556-1.02-.042-.33.15-.874-.378-.832-.833.066-.386.893-.62 1.34-.196.376.094.505.442.512z"/><path fill="#262626" d="M54.25 89.717c-.863.434-.994 1.238-1.254 1.97.5-.546 1.664-.736 1.255-1.97z"/><path fill="#5F5F5F" d="M53.605 95.81c.58-.644.475-1.14.018-1.884-.462.776-.507 1.28-.018 1.885z"/><path fill="#4A4A4A" d="M78.67 87.203c.88-.085 1.355-.345 1.097-1.217-.395.318-1.025.386-1.096 1.217z"/><path fill="#292929" d="M45.392 90.125c.167-.207.372-.334.647-.32.124-.136.245-.272.368-.41-.01-.075-.027-.152-.064-.236 0-.242.08-.45.247-.62-.89.028-1.098.773-1.444 1.374l.22.242c.01-.01.018-.02.026-.03z"/><path fill="#292929" d="M46.408 89.396l.187-.208-.003-.648c-.168.17-.248.378-.247.62.036.082.053.16.063.236zM46.04 89.806c-.275-.015-.48.113-.647.32-.01.01-.017.02-.026.03.044.05.09.1.134.147.145-.124.288-.248.43-.373l.113-.125h-.003z"/><path fill="#A6A6A6" d="M49.246 88.792l-.377.737-.2.153c.5.28.172.884.482 1.24l.352-2.13h-.258z"/><path fill="#A6A6A6" d="M48.67 89.684l-.235.183.717 1.055c-.31-.355.017-.96-.48-1.238z"/><path fill="#747474" d="M47.708 93.057c-.265.343-1.09-.066-.963.35.16.522.81.84 1.38.206-.292-.07-.483-.216-.417-.556z"/><path fill="#747474" d="M48.126 93.613c-.14-.185-.28-.37-.418-.556-.066.34.125.486.418.556z"/><path fill="#272727" d="M72.552 91.464c.356-.186 1.113.41 1.088-.443-.025-.86-.744-.23-1.117-.38.22.267.22.543.03.824z"/><path fill="#272727" d="M72.524 90.64c.01.274.02.55.028.825.19-.282.19-.558-.028-.825z"/><path fill="#010101" d="M64.895 95.167c.228-.432.107-.808-.43-1.325-.126.56-.34.97-.015 1.367.12.145.337.164.445-.043z"/><path fill="#3D3D3D" d="M76.64 87.967c.78-.347.82-.825.54-1.45-.782.195-.698.706-.54 1.45z"/><path fill="#555" d="M62.885 94.025c-.536-.413-.76-.9-.366-1.535-.785.728-.783 1.268.365 1.535z"/><path fill="#555" d="M62.885 94.025l-.366-1.535c-.395.635-.172 1.122.365 1.535z"/><path fill="#535353" d="M56.782 93.645c.305-.085.56-.208.374-.593-.25-.518-.715-.525-1.195-.487.404.262 1.265.175.822 1.08z"/><path fill="#535353" d="M56.782 93.645c.443-.905-.418-.818-.82-1.08.384.275.878.468.82 1.08z"/><path fill="#292929" d="M65.438 93.258c.29.45-.474 1.258.612 1.534.215-.578-.06-1.06-.213-1.55-.125.174-.26.188-.4.016z"/><path fill="#292929" d="M65.837 93.24c-.133.007-.266.012-.4.018.14.172.275.158.4-.017z"/><path fill="#161616" d="M45.323 90.208c-.076-.083-.115-.198-.176-.293l-.818 1.097c.47-.1.715-.472.993-.804z"/><path fill="#161616" d="M45.5 90.304c-.082-.01-.134-.05-.177-.097-.278.333-.522.706-.994.805.847.52.854-.35 1.17-.708zM45.366 90.156l-.22-.242c.063.095.102.21.177.293l.043-.05z"/><path fill="#161616" d="M45.323 90.208c.043.046.095.085.177.097l-.134-.147c-.015.015-.03.032-.043.05z"/><path fill="#030303" d="M76.218 84.996c-.22-.228-.21-.458-.01-.693-.43.035-1.147-.23-1.085.47.058.675.663.418 1.095.223z"/><path fill="#030303" d="M76.218 84.996l-.01-.693c-.2.235-.21.465.01.693z"/><path fill="#5C5C5C" d="M78.42 85.01c.378-.282.997.084 1.368-.657h-1.51c.15.37.283.397.143.658z"/><path fill="#5C5C5C" d="M78.42 85.046c.142-.26.008-.46-.144-.658-.446.328.183.42.145.658z"/><path d="M48.497 88.008c.005.018.007.034.01.05.072-.044.148-.08.234-.092-.114-.198-.23-.395-.346-.593l-1.063.31c.342.277.858-.07 1.167.325z"/><path d="M48.454 88.093c.018-.014.037-.022.054-.034l-.01-.052c-.31-.394-.826-.048-1.167-.326.2.62.764.234 1.124.41z"/><path fill="#9F9F9F" d="M48.89 88.037c.23.145.285.4.335.656.103-.02.195.014.277.1.132-.865-.15-1.406-1.108-1.42.3.126.585.26.495.664z"/><path fill="#9F9F9F" d="M49.226 88.692l.02.1h.256c-.08-.085-.174-.12-.276-.1zM48.89 88.037c.088-.402-.198-.538-.496-.664.115.198.23.396.347.593.058.02.106.043.15.07z"/><path fill="#515151" d="M72.91 89.935c.456-.552.764-1.07-.31-1.242-.315.52.45.768.31 1.242z"/><path fill="#515151" d="M72.91 89.935c.14-.474-.625-.723-.31-1.242-.63.597-.01.883.31 1.242z"/><path fill="#272727" d="M91.59 55.944c-.175-1.747 1.763-.253 1.945-1.524-1.89-.177-3.664.208-5.45.585.65.22 1.288.223 1.917.146.732-.088.75.394.84.893.125.674-.188.876-.795.876-.55-.002-1.103.012-1.65.072-.302.034-.366.292-.227.54.156.278.417.083.64.057.62-.544 1.325-.27 2.014-.27.947 0 1.977.286 2.905-.34-.536-.91-1.974.62-2.14-1.036z"/><path fill="#151515" d="M72.02 31.357c1.255-1.783-.374-3.423-.338-5.174.015-.73-.61-.23-.67.34l.345.98.09 4.18c.144-.19.296-.367.572-.326z"/><path fill="#151515" d="M72.02 31.357c-.277-.04-.43.136-.574.327.19-.11.382-.218.573-.327z"/><path fill="#1C1C1C" d="M88.31 58.432v.37h5.33v-.37h-5.33zM89.093 64.69c-.463.168-1.075-.33-1.67.633l5.696-.283c-.238-.612-.573-.69-.95-.695l-.825.354c-.497-.153-1.36.47-1.393-.66l-.03-.75c-.117-.036-.234-.072-.35-.11-.076.53.205 1.172-.48 1.51z"/><path fill="#4B4A4B" d="M77.273 34.446c-1.288-.47-.18-1.31-.333-1.947l-.203.023c-.385.383-.826.726-1.14 1.16-.48.66.27.794.577 1.08.302.282.66.623 1.117.29.22-.16.23-.517-.017-.607z"/><path fill="#333" d="M91.754 59.572c-.208-.08-.48.013-.725.027-.006.11-.002.223.01.335.615.12.758.59.84 1.106.704-.136 1.764-.228 1.7-.96-.08-.926-1.204-.272-1.826-.508zM91.886 61.083l-.007-.042-.03.006.036.037z"/><path fill="#282828" d="M87.472 38.653l.003-.02-.01.013.004.005c0-.006.004-.015.002-.013v.016z"/><path fill="#282828" d="M85.508 36.623c.583.562-.763 1.705.173 1.587.817-.103.997 1.61 1.786.438-.528-.762-.88-1.69-1.958-2.025z"/><path fill="#252525" d="M91.84 61.05c-.75-.537-1.358-.118-1.964.322.498.323.35.625-.07.872.07.065.124.26.162.26h3.198c.004 0 .008-.193.012-.273-.78-.09-1.56-.198-2.596-.32.592-.396.927-.636 1.257-.86z"/><path fill="#252525" d="M91.847 61.045c-.002 0-.006.003-.008.006.014.012.03.02.044.033.002 0-.04-.04-.037-.038zM89.018 43.822c1.437.568 1.512.843.547 1.988 1.018.096 1.34-.534 1.136-1.34-.32-1.26-1.367-.87-2.24-.793.09.077.18.154.272.23l.286-.085z"/><path fill="#252525" d="M89.018 43.822l-.285.086c.05.04.098.083.147.124 1.318.172 1.216.893.685 1.778.966-1.145.89-1.42-.547-1.988z"/><path fill="#313131" d="M83.832 35.04c.32-.632.05-1.232-.504-1.317-.874-.134-1.473.418-1.67 1.318l.357.042c.52-1.132 1.11-1.332 1.817-.042z"/><path fill="#313131" d="M82.014 35.082l.088.01c.545-1.02 1.142-.38 1.73-.053-.706-1.29-1.298-1.09-1.818.042z"/><path fill="#333" d="M79.725 31.58c.14-.18.43-.393.398-.53-.172-.723-.89-.896-1.478-1.37-.2.33-.596.757-.514.89.348.56 1.294.28 1.595 1.01z"/><path fill="#282828" d="M91.477 48.73c1.542-.298.447-1.283.25-1.65-.445-.834-.92.005-1.486.256.807.197 1.146.697 1.237 1.393z"/><path fill="#2B2B2B" d="M86.924 44.627c.022-.012.044-.02.066-.034l-.015-.14c-1.12.58-2.17 1.186-.896 2.594.13-.122.263-.243.395-.364-.813-.863-.116-1.447.45-2.056z"/><path fill="#2B2B2B" d="M87.015 44.826c-.008-.077-.017-.155-.024-.233-.02.012-.043.02-.065.034-.565.61-1.26 1.194-.45 2.056l.127-.116c-.62-.76.196-1.18.413-1.74z"/><path fill="#161616" d="M79.837 33.605c.547.063.543-2.09 1.502-.372l.422.015c.464-.717.017-1.206-.512-1.517-.783-.46-.735.553-1.152.793-.37.21-.55.638-.56 1.094.097-.043.198-.047.3-.012zM85.446 42.042l2.24-.345-.383-.317c-.463-.107-.354-.48-.373-.795-.072-.098-.15-.188-.237-.272-.507.48-1.04.94-1.247 1.73z"/><path fill="#2F2F30" d="M79.532 36.233c-.546 1.62-.16 1.964 1.874 1.688L81 37.263c-1.13.586-.766-.992-1.468-1.03zM79.51 36.23l.023.002.01-.03-.033.027z"/><path fill="#111" d="M81.667 37.31c-.083-.735.112-1.43.3-2.127.005-.01.01-.017.013-.025-.116.036-.223-.005-.32-.116-.22.74-.44 1.48-.657 2.222.324.104.478.312.405.66.12.01.24.02.36.033l.048-.594c-.05-.018-.097-.032-.15-.054z"/><path fill="#111" d="M82.103 35.092c-.042.03-.083.052-.123.065l-.012.025c-.19.697-.384 1.392-.3 2.126.05.022.1.036.147.053l.012-.145c.2-.693.466-1.38.276-2.123z"/><path fill="#111" d="M81.98 35.157c.01-.026.023-.05.035-.075l-.356-.042c.097.112.204.152.32.117z"/><path fill="#111" d="M82.014 35.082c-.01.025-.023.048-.035.075.04-.013.08-.034.122-.065l-.088-.01zM81.002 37.263l.405.66c.072-.348-.08-.557-.405-.66z"/><path fill="#232323" d="M67.506 29.43c-.31-.115-.544-.546-.833-.038-.062.107.03.352.12.486.217.322.543.513.93.394.703-.216 1.074-.733 1.18-1.45l-.42-.006c-.276.294-.478.802-.977.615z"/><path fill="#262626" d="M84.35 36.166l-.236-.212c-.027.023-.054.047-.083.07-.76.354-1 1.668-2.114 1.37.07.198.034.385-.15.56 1.307.048 1.708-1.215 2.585-1.788z"/><path fill="#262626" d="M81.827 37.216c.04.06.07.12.09.18 1.115.297 1.354-1.018 2.115-1.37.028-.023.055-.048.083-.07-.054-.05-.107-.097-.16-.144-.773.37-1.105 1.41-2.128 1.404zM81.917 37.396l-.102-.034-.048.594c.184-.176.22-.364.15-.56z"/><path fill="#262626" d="M81.815 37.36c.034.012.07.026.102.035-.02-.06-.05-.12-.09-.18l-.012.146z"/><path fill="#353535" d="M80.277 33.936L80 33.728l-.008.003c-.168.03-.32-.01-.456-.114-.33.854-.556 1.71-.005 2.562.255-.61.51-1.22.763-1.832l-.016-.41z"/><path fill="#353535" d="M79.543 36.202c-.004-.008-.007-.016-.012-.023l-.02.05.033-.028zM79.993 33.73c.002 0 .005 0 .007-.002l-.163-.123c-.1-.035-.202-.03-.3.01.135.107.288.146.456.116z"/><path fill="#272727" d="M76.94 32.5c.654-.142 1.143.82 1.85.265-1.188-1.677-1.188-1.677-2.052-.24l.096-.06.106.034z"/><path fill="#181818" d="M74.707 31.473c.003.617-.65 1.112-.332 1.788.166-.642 1.56-.826.694-1.855-.12 0-.24.003-.36.004 0 .02-.004.042-.003.063z"/><path fill="#181818" d="M74.707 31.473c0-.022.003-.042.004-.064-.082 0-.165 0-.248.002-.183.61-.903 1.193-.087 1.85-.317-.677.335-1.172.332-1.79z"/><path fill="#232323" d="M88.11 53.598l.35-.378c-.224-.732.392-1.02.76-1.437l-.39-.328c-1.007.457-1.822.978-.72 2.143z"/><path fill="#060606" d="M88.83 51.456c.178.05.306.163.39.328.952-.216 1.894-.577 2.892-.227l.024-.48c-1.146-.253-2.258-.22-3.307.38z"/><path fill="#060606" d="M88.83 51.456c.13.11.26.22.39.328-.084-.165-.21-.277-.39-.328z"/><path fill="#2A2A2A" d="M77.595 29.55c-.92.3-1.458.99-1.89 1.79.96-.26 1.462-.988 1.89-1.79z"/><path fill="#4F4F4F" d="M88.41 47.004c-.603-.035-1.217.01-1.795-.226-.01.273-.173.38-.537.27.788.508 1.567.517 2.333-.044z"/><path fill="#4F4F4F" d="M86.615 46.778c.578.235 1.193.19 1.796.226-.524-.468-1.23-.19-1.81-.438.015.08.018.15.015.212zM86.615 46.778l-.08-.03c-.023-.023-.04-.043-.06-.065l-.396.364c.362.11.525.004.535-.27z"/><path fill="#4F4F4F" d="M86.6 46.566l-.125.116c.02.022.038.042.06.064.026.013.054.02.08.03.003-.06 0-.13-.015-.21z"/><path fill="#181818" d="M71.013 26.523l-1.37 2.897c1.1-.673.873-1.707 1.714-1.917-.13-.32-.605-.522-.344-.98z"/><path fill="#181818" d="M71.356 27.503l-.344-.98c-.26.458.215.66.344.98z"/><path fill="#1D1D1D" d="M90.917 59.704c.037-.077.074-.11.113-.11-.888-.06-1.776-.13-2.664-.19.002.172.005.51.008.51h2.667c-.12 0-.16-.134-.123-.21z"/><path fill="#1D1D1D" d="M90.917 59.715c-.037.076.004.15.124.22-.01-.11-.015-.223-.01-.335-.04 0-.077.038-.113.115z"/><path fill="#2D2D2D" d="M90.37 63.99c.287-.004.536.075.725.28.06.005.12.012.18.02.294.073.608-.157.894.056-.66-.547-1.45-.812-2.25-1.056.17.164.242.39.36.584.027.043.058.08.09.115z"/><path fill="#2D2D2D" d="M91.274 64.29c-.06-.01-.12-.015-.18-.022.102.107.186.247.25.43l.825-.354c-.286-.212-.6.018-.896-.055zM90.37 63.99c-.032-.035-.063-.073-.09-.117-.118-.195-.19-.42-.36-.583l.03.75c.148-.033.288-.05.42-.05z"/><path fill="#373737" d="M67.502 24.695l-.453 1.916c.116.146.233.29.35.434.353-.708.946-1.402.102-2.35z"/><path fill="#3F3F3F" d="M89.215 48.37c.095-.065.163-.15.205-.26-.692-.33-1.386-.33-2.082-.008l.546.406 1.33-.138z"/><path fill="#151515" d="M89.215 48.37c.138.345-.187.895.42 1.02.142.027.418-.092.47-.214.29-.663-.515-.667-.685-1.065.004.143-.064.23-.205.26z"/><path fill="#151515" d="M89.215 48.37c.14-.03.208-.116.205-.26-.042.11-.11.195-.205.26z"/><path fill="#373737" d="M89.093 64.69c.615-.36.003-1.107.478-1.51l-.68-.38c-.27.025-.543.05-.814.077.427.554 1.72.622 1.017 1.812z"/><path fill="#373737" d="M89.093 64.69c.684-.337.404-.98.478-1.51-.475.403.138 1.15-.477 1.51z"/><path fill="#0A0A0A" d="M67.4 27.043c-.24-.043-.26-.268-.352-.433-.048.6-.687 1.126-.205 1.888.51-.407.495-.947.557-1.455z"/><path fill="#0A0A0A" d="M67.4 27.043c-.117-.145-.234-.29-.352-.433.093.165.11.39.352.433z"/><path fill="#8F8F8F" d="M89.787 62.21c-.457-.02-.954.098-1.278-.377-.564.174-.488.613-.435 1.043.254-.214.523-.265.814-.076.246-.458.753-.133 1.078-.36-.092-.06-.15-.136-.18-.23z"/><path fill="#8F8F8F" d="M89.787 62.21c.03.093.09.17.18.23-.037-.087-.09-.164-.16-.23-.006 0-.013.002-.02 0zM88.075 62.876l.814-.076c-.292-.19-.56-.137-.815.076z"/><path fill="#252525" d="M89.77 62.15c-.004-.03-.008-.06-.008-.09.006-.236.097-.457.115-.69-.455.155-.91.31-1.367.462.362.3.956-.184 1.26.317z"/><path fill="#252525" d="M89.77 62.15c.013.02.026.038.038.06.42-.247.567-.517.07-.84-.02.233-.11.454-.116.69 0 .03.004.06.01.09z"/><path fill="#252525" d="M89.787 62.21c-.007-.02-.013-.04-.017-.06-.305-.502-.898-.017-1.262-.317.326.475.822.357 1.28.378z"/><path fill="#252525" d="M89.787 62.21h.02c-.01-.023-.024-.04-.037-.06.005.02.01.04.017.06z"/><path fill="#494949" d="M68.483 28.815c.14-.122.28-.12.42.005.46-.407.416-1.002.566-1.525-.112-.136-.222-.272-.332-.41-.437.57-.54 1.253-.655 1.93z"/><path fill="#494949" d="M68.483 28.815c.14 0 .28.004.42.005-.14-.124-.28-.126-.42-.005z"/><path fill="#434343" d="M87.086 44.544c.444-.233.91-.408 1.386-.558-.027-.077-.027-.185-.013-.31-.58.098-1.174.166-1.486.775.052.03.088.063.112.094z"/><path fill="#434343" d="M87.117 44.69c-.03.09-.065.136-.102.136l1.865-.794c-.248.118-.363.08-.408-.045-.476.15-.942.324-1.386.558.036.045.048.093.03.144z"/><path fill="#434343" d="M88.472 43.987c.087-.027.174-.052.26-.08-.09-.076-.18-.154-.272-.23-.014.125-.014.233.012.31z"/><path fill="#434343" d="M88.88 44.032c-.05-.04-.098-.083-.147-.124-.086.026-.174.052-.26.08.044.123.16.16.407.044zM87.086 44.544c-.024-.032-.06-.063-.11-.092l.014.14c.032-.016.064-.03.096-.048z"/><path fill="#434343" d="M87.117 44.69c.017-.052.005-.1-.03-.146-.033.017-.065.03-.097.05.008.077.017.154.024.232.038 0 .072-.046.103-.137z"/><path fill="#333" d="M75.07 31.405c-.042-.523.788-1.02.047-1.564.024.51-.315.927-.394 1.41.115-.02.23.033.347.155z"/><path fill="#333" d="M74.462 31.412c.086-.098.173-.15.26-.164.08-.482.42-.9.395-1.408-.44.432-.71.934-.655 1.572zM74.723 31.25c-.008.052-.01.106-.012.16.12 0 .24-.003.36-.004-.117-.123-.232-.175-.347-.157z"/><path fill="#333" d="M74.723 31.25c-.087.013-.174.065-.26.163l.248-.003c.003-.055.005-.11.013-.16z"/><path fill="#2B2B2B" d="M86.93 40.585c.767-.478 1.417-.987.54-1.92.033.688-.74.997-.778 1.648.205-.02.278.076.237.272zM87.47 38.656v-.004l-.003.008.003.004v-.01.002zM87.472 38.653v-.015c.003-.002 0 .007-.002.014 0 0 0 .002.002.003v-.002z"/><path fill="#2B2B2B" d="M86.692 40.312c.085.084.165.175.237.272.04-.195-.033-.29-.238-.272z"/><path fill="#343434" d="M87.685 41.697c.448-.23 1.123-.01 1.543-.78-.816.013-1.442-.098-1.926.463.392-.213.42.015.383.317z"/><path fill="#343434" d="M87.302 41.38c.128.106.255.21.382.317.037-.302.01-.53-.382-.317z"/><path fill="#2E2E2E" d="M81.998 40.957c.825-.33 1.282-.546 1.364-1.38-.64.23-1.137.358-1.364 1.38z"/><path fill="#393939" d="M83.73 42.784c-.036.072.202.395.272.38.533-.097.98-.326 1.075-1.208-.613.284-1.118.36-1.348.828z"/><path fill="#272727" d="M81.343 33.38c-.054-.023-.104-.036-.155-.047l-.828.547c.017.02.036.04.05.063.052.16.017.297-.117.403.768.006 1.254-.365 1.47-1.1-.115.127-.254.17-.42.135z"/><path fill="#272727" d="M81.188 33.333c.05.01.1.024.155.048.166.036.305-.007.418-.132l-.422-.015-.15.1zM80.41 33.944c-.014-.023-.033-.042-.05-.063-.027.02-.056.038-.083.057l.016.41c.134-.106.17-.242.118-.403z"/><path fill="#454545" d="M73.026 31.212l.01-.02-.174-.202-.423.4c.284.246.446.077.586-.178z"/><path fill="#454545" d="M72.346 32.41c.73.227.564-.672.84-1.042l-.15-.177c-.003.008-.008.015-.01.022-.14.255-.302.424-.587.18.01.358-.678.837-.094 1.018z"/><path fill="#070707" d="M73.63 29.885c-.492.205-.8.536-.768 1.104.08.035.146.084.2.145.195-.417.43-.81.567-1.25z"/><path fill="#070707" d="M73.186 31.368c.162-.49.782-.843.443-1.482-.138.44-.373.833-.568 1.25.057.064.1.14.124.232z"/><path fill="#070707" d="M73.062 31.135c-.053-.06-.12-.11-.2-.146l.173.2c.01-.018.018-.036.027-.055z"/><path fill="#070707" d="M73.062 31.135c-.008.02-.02.037-.027.056l.15.178c-.024-.092-.066-.168-.123-.233z"/><path fill="#292929" d="M92.112 51.557c.75.23-.173 1.062.595 1.5.25-.904.765-1.675-.57-1.98.156.168.148.327-.025.48z"/><path fill="#292929" d="M92.136 51.077l-.024.48c.173-.153.18-.312.024-.48z"/><path fill="#282828" d="M75.335 28.855c.022.243-.043.466-.214.666 1.072.066.708-.962 1.086-1.424-.424.067-.463.672-.87.76z"/><path fill="#282828" d="M75.335 28.855c-.057.012-.12.015-.194.004-.005.22-.012.44-.02.66.17-.198.237-.42.215-.665z"/><path fill="#282828" d="M75.302 28.677l.007.01c.014.06.02.113.024.17.408-.09.447-.694.87-.76-.703-.37-.713.23-.902.58z"/><path fill="#282828" d="M75.31 28.688l-.008-.01c-.042.077-.092.142-.162.182.073.01.136.008.193-.004-.004-.056-.01-.11-.024-.168z"/><path fill="#555" d="M73.87 26.954c-.004-.086-.375-.26-.4-.233-.322.355-.545.75-.25 1.286.496-.198.664-.587.65-1.052z"/><path fill="#222" d="M77.572 35.876c.766 0 .872-.603 1.436-1.45-1.047.405-1.484.675-1.436 1.45z"/><path fill="#505050" d="M84.272 35.793c.085.06.1.196.08.373.25-.204.725-.227.677-.678-.038-.35-.332-.436-.657-.384.132.29.054.504-.1.69z"/><path fill="#505050" d="M84.272 35.793c.155-.185.233-.398.102-.69l-.42.71c.158-.064.256-.063.318-.02zM84.272 35.793c-.047.056-.1.11-.158.16l.237.213c.022-.177.008-.315-.078-.373z"/><path fill="#505050" d="M84.272 35.793c-.062-.042-.16-.044-.317.018l.16.144c.057-.052.11-.105.157-.16z"/><path fill="#1C1C1C" d="M69.562 25.945c-.566-.21-.285.603-.424.942.23.04.246.252.33.41-.106-.485.802-1.087.094-1.352z"/><path fill="#1C1C1C" d="M69.138 26.887l.33.41c-.084-.158-.1-.37-.33-.41z"/><path fill="#464646" d="M87.34 48.102c-.395.046-1.045.09-.75.602.344.595.872.02 1.295-.196-.376.125-.573.01-.546-.406z"/><path fill="#464646" d="M87.885 48.507l-.546-.406c-.028.418.17.533.545.407z"/><path fill="#444" d="M88.11 53.598c.38.49.838.594 1.51.23-.445-.234-.803-.42-1.16-.61.115.344.017.487-.35.38z"/><path fill="#444" d="M88.46 53.22l-.352.378c.37.107.467-.036.35-.378z"/><path fill="#494949" d="M88.81 57.63c.685.05 1.365.062 2.01-.228-.653.217-1.363-.053-2.01.228z"/><path fill="#494949" d="M88.81 57.548c.647-.28 1.357.143 2.01-.228-.686 0-1.393-.315-2.01.228z"/><path fill="#262626" d="M31.776 44.04c-.657.55-.998.343-1.09-.456-.05-.218-.17-.31-.392-.21l.012.24c-.808.777-1.824.222-2.72.426-.21.047-.52-.11-.6.2-.077.29-.038.623.265.783.37.193.768.326 1.153.485l.372-.297c-.096-.07-.195-.138-.285-.216-.023-.02-.016-.076-.022-.115 1.124-.062 2.248-.115 3.37-.188.244-.016.7.07.398-.434-.07-.123-.303-.15-.46-.217z"/><path fill="#1B1B1B" d="M27.726 62.872c-.63.27-1.3.348-1.963.29-.602-.054-1.284-.122-1.52-.827-.21-.637.233-1.022.692-1.36.028-.02.057-.034.085-.052l-.263-.213c-1.155.554-1.72 1.373-.432 2.23 1.026.68 2.29.95 3.4-.068z"/><path fill="#1B1B1B" d="M24.56 62.235c-.254-.586.357-.815.608-1.19-.05-.04-.1-.08-.147-.12-.027.017-.056.03-.084.05-.46.34-.902.724-.69 1.36.234.705.917.773 1.518.826.664.06 1.334-.02 1.964-.288-.6.01-1.2.022-1.8.03-.57.005-1.12-.094-1.37-.667z"/><path fill="#181818" d="M25.784 56.447c0-.03.054-.096.083-.096 1.106-.003 2.213.003 3.32.003-.002-.174-.005-.514-.01-.514h-5.815c.857.74 1.652 1.054 2.485 1.158l.003-.378c-.024-.057-.06-.115-.066-.173z"/><path fill="#232323" d="M43.67 26.51l.81 1.895.454.03c.59-.74.822.548 1.336.235.034-.06.076-.112.126-.16-.536-1.07-1.348-1.742-2.726-2z"/><path fill="#454545" d="M25.613 58.124l-1.587.567 5.057.43c-.558-.952-1.395-.567-2.084-.773-.48.032-.98.203-1.387-.223z"/><path fill="#2C2C2C" d="M35.42 36.552c-.295.025-.3-.113-.67-.366-.372.027-.614.053-.94.08.49.888.983 1.79 1.907 2.558.037-.633-.253-1.104.12-1.498-.34-.15-.38-.464-.416-.774z"/><path fill="#343434" d="M32.896 40.66c.002.12.002.242.002.363.58.645 1.306.658 1.915.195.606-.46.552-1.12-.268-2.196.383 2.155-.83 1.56-1.65 1.638z"/><path fill="#1C1C1C" d="M28.087 62.874c.81-.05 1.225-.537 1.148-1.29-.085-.843-.757-1.14-1.522-1.237l-.013.185c1.367.55 1.312 1.364.387 2.342z"/><path fill="#1C1C1C" d="M27.698 60.53l-.013.198c1.152.525.482 1.39.4 2.145.927-.977.982-1.79-.387-2.342z"/><path fill="#1B1B1B" d="M46.398 28.51l-.126.16c.37.765 1.014 1.177 2.125 1.747-.588-1.184-.14-2.794-2-1.906z"/><path fill="#1B1B1B" d="M46.398 28.51c-.05.047-.093.1-.126.16l.126-.16z"/><path fill="#333" d="M32.097 37.592c-.555-.626-1.005-.56-1.464-.102-.51.51-.48 1.006.32 2.096-.15-1.357.34-1.823 1.144-1.994z"/><path fill="#242424" d="M43.82 32.1c-.772.997-1.44.71-2.06-.166.442 1.315 1.1 1.93 2.315.706l-.242-.57c-.004.01-.007.02-.013.03z"/><path fill="#242424" d="M43.82 32.1c.006-.01.01-.02.014-.03l-.114-.27c-.576 1.196-1.287.378-1.96.133.62.875 1.288 1.163 2.06.168z"/><path fill="#1E1E1E" d="M40.798 28.98c1.08-1.17 1.637.228 2.425.494-.594-.97-1.19-1.935-2.54-1.012.01.186.018.374.114.522v-.005z"/><path fill="#1E1E1E" d="M40.798 28.98v.003c.042.067.103.128.192.176.878-.843 1.45.488 2.233.314-.788-.267-1.345-1.664-2.425-.495z"/><path fill="#191919" d="M36.202 31.838c-.655.3-1.275.655-1.478 1.427-.014.05.025.116.04.174.484-.55 1.893-.055 1.782-1.294-.012-.118-.285-.335-.344-.308z"/><path fill="#2E2E2E" d="M34.54 35.96c.092.015.18.038.264.066l-.066-.498c-.56-.277-1.018-.797-1.768-.742.077.66.473 1.072.877 1.48.166-.252.415-.312.694-.306z"/><path fill="#2E2E2E" d="M34.803 36.026c-.085-.03-.172-.052-.263-.066-.28-.006-.527.054-.693.305l.978-.08-.022-.16z"/><path fill="#343433" d="M25.524 50.91c-.365-.037-.835-.668-1.06-.062-.238.642.277.957.92.965l1.57-.712c-.476-.064-.95-.14-1.43-.19z"/><path fill="#383838" d="M27.367 51.694c.06-.05.13-.074.203-.09l.587-.258c-.36-.278-.772-.306-1.203-.245-.288.757-.91.777-1.57.713.203.368.997.294.747 1l.448.132v0l.03-.834c.074-.464.503-.282.76-.416z"/><path fill="#383838" d="M26.955 51.1c-.523.24-1.046.476-1.57.713.66.064 1.282.044 1.57-.712z"/><path fill="#3E3E3E" d="M26.035 57.965l.96-.202c.507-.138.832-.355.158-.71-.4-.21-.866-.295-1.302-.436.113.084.15.167.112.25-.038.084-.076.126-.114.126l-.5.615.426.332c.087.004.174.013.26.025z"/><path fill="#3E3E3E" d="M25.96 56.868c.04-.083.002-.167-.11-.25l-.003.374c.038 0 .076-.04.114-.124zM26.035 57.965c-.086-.012-.174-.02-.262-.026l.082.063.18-.038z"/><path fill="#1C1C1C" d="M26.132 52.814c-.416.01-.832.006-1.246.03-.41.023-.986.004-.885.582.108.614.704.082 1.043.243.4-.147.718-.54 1.21-.414l.18.004.164-.073c-.005-.077-.01-.155-.017-.232-.175.068-.326.025-.448-.14z"/><path fill="#1C1C1C" d="M26.58 52.957v-.01l-.448-.132c.122.165.273.208.448.142z"/><path fill="#1A1A1A" d="M27.57 60.503c.002-.012.004-.025.01-.038.045-.08.088-.12.13-.12-1.025-.21-2.028-.236-2.953.365.112.055.243.087.328.175.772-.455 1.62-.456 2.484-.382z"/><path fill="#1A1A1A" d="M25.168 61.043c.825-.22 1.646-.467 2.517-.315-.098-.08-.134-.154-.116-.225-.864-.075-1.713-.073-2.485.382.04.04.07.088.083.158z"/><path fill="#1A1A1A" d="M25.086 60.886c-.084-.087-.216-.12-.328-.175.087.073.175.144.263.214.022-.014.044-.026.066-.038z"/><path fill="#1A1A1A" d="M25.086 60.886c-.02.013-.043.024-.065.038l.148.12c-.012-.07-.044-.12-.082-.158zM27.58 60.466c-.006.012-.008.025-.01.038l.078.006.05.022c.006-.062.01-.123.014-.185-.043 0-.086.04-.13.12z"/><path fill="#1A1A1A" d="M27.685 60.73c.005-.067.01-.132.013-.198l-.05-.022-.08-.006c-.017.07.02.145.117.225z"/><path fill="#323232" d="M25.498 57.934l.1.002c-.1-.094-.19-.198-.253-.328-.504.118-1.06.143-1.498.38-.452.246-.435.605.178.704.18-.863.945-.58 1.473-.758z"/><path fill="#323232" d="M25.77 58.083c-.06-.047-.117-.096-.172-.147-.033 0-.065-.004-.1-.002-.527.18-1.293-.104-1.472.758l1.587-.567c.062.004.112-.014.157-.042z"/><path fill="#323232" d="M25.597 57.936c.06 0 .117 0 .175.004-.142-.11-.285-.22-.427-.332.062.13.153.233.252.328z"/><path fill="#323232" d="M25.855 58.003c-.028-.02-.055-.042-.083-.064-.058-.003-.116-.005-.175-.005.055.052.113.1.172.147.03-.02.06-.042.085-.08z"/><path fill="#2C2C2C" d="M26.645 52.933c-.022.012-.043.015-.065.023.01.077.015.154.016.232.474-.035 1.025.21 1.435-.43l-1.42-.647c.213.266.21.54.035.823z"/><path fill="#2C2C2C" d="M26.58 52.957c.02-.01.042-.012.065-.023.175-.282.177-.557-.036-.822-.01.278-.022.556-.03.833v.012z"/><path fill="#3D3D3D" d="M25.206 65.127c-.964.558-1.608 1.145-.16 1.93.024-.156.05-.314.072-.472-.263-.508.178-.96.088-1.458z"/><path fill="#464646" d="M25.042 53.67c.716.404 1.506.55 2.31.65.003-.14.008-.28.013-.418-.218-.477-.957-.06-1.112-.646-.348.302-.7.592-1.21.414z"/><path fill="#464646" d="M25.042 53.67c.51.178.862-.113 1.21-.413-.492-.125-.81.267-1.21.413z"/><path fill="#010101" d="M28.985 40.603c.782.902 1.526 1.353 2.425 1.553l.005-.256c-.63-.592-1.292-1.123-2.43-1.297z"/><path fill="#3D3D3D" d="M38.12 30.477c.267.634.474 1.3 1.18 1.623l.164-.094c-.03-.855-.54-1.306-1.345-1.53z"/><path fill="#424242" d="M43.92 31.827c.437.107.183.508.156.812.703-.992.057-1.806-.347-2.652-.118.62.322 1.216.19 1.84z"/><path fill="#424242" d="M43.72 31.8c.08.004.143.014.198.027.134-.623-.307-1.22-.19-1.84-.47.602.024 1.21-.01 1.814zM43.92 31.827c-.018.08-.046.16-.086.243l.242.57c.026-.306.28-.706-.157-.813z"/><path fill="#424242" d="M43.834 32.07c.04-.082.068-.162.085-.243-.057-.013-.12-.022-.2-.025l.114.268z"/><path fill="#323233" d="M40.74 29.13c-.346-.08-.27-.345-.057-.67-.733 1.01-.633 1.9.375 2.665-.352-.634-.586-1.283-.318-1.994z"/><path fill="#323233" d="M40.99 29.158c-.104 0-.182-.012-.25-.027-.268.71-.034 1.36.318 1.995.104-.66-.41-1.298-.068-1.967zM40.74 29.13c.02-.05.033-.098.057-.148-.096-.148-.104-.335-.114-.522-.212.326-.29.59.057.67z"/><path fill="#323233" d="M40.797 28.982c-.023.05-.038.1-.057.15.068.014.146.026.25.026-.09-.047-.15-.108-.193-.176z"/><path fill="#2F2F2F" d="M26.953 66.88l.01.4c.737.054 1.385-.15 1.928-.66l-.415-.347c-.506.202-1.014.405-1.522.606z"/><path fill="#404040" d="M39.464 32.006c-.04.056-.095.087-.165.094.1.71.524 1.165 1.144 1.47l.126-.064c.014-.783-.383-1.262-1.106-1.5z"/><path fill="#030303" d="M29.126 65.19c.018.5-.33.784-.65 1.083.17.077.378.11.417.346.792-.43 1.387-.923.61-1.865-.127.144-.252.29-.377.434z"/><path fill="#030303" d="M28.476 66.273c.14.115.277.23.416.346-.038-.237-.246-.27-.416-.347z"/><path fill="#353535" d="M32.802 40.782c.03-.08.062-.122.093-.122-.53-.456-.96-1.105-1.983-1.027.624.74 1.145 1.288 1.985 1.39-.094-.08-.126-.16-.095-.24z"/><path fill="#353535" d="M32.802 40.782c-.03.08 0 .16.096.24 0-.12 0-.24-.002-.362-.032 0-.063.04-.094.122z"/><path fill="#1D1D1D" d="M29.73 48.533c.002.003-.067.005-.066.008l-.1.006h.068l.064-.003c.83.355-.84 1.09.2 1.335.43.1.803-.284.822-.773.03-.812-.368-.906-.987-.572z"/><path fill="#525252" d="M28.45 47.34c-.504-.576-1.118-.58-1.77-.43.537.455 1.1.77 1.79.715.035-.098.027-.193-.02-.284z"/><path fill="#616161" d="M46.72 26.913c.265-.557.035-.96-.26-1.328-.032-.04-.41.082-.423.162-.086.512.124.89.684 1.166z"/><path fill="#1D1D1D" d="M31.65 46.602c-.78-.354-1.24-.563-1.7-.77l-.358.32c.546.196 1.01.714 2.058.45z"/><path fill="#505050" d="M46.02 31.5c.18-.89-.208-1.414-.546-1.952l-.44.025c.153.663.265 1.348.986 1.927z"/><path fill="#0A0A0A" d="M27.57 51.604l-.203.09c.516.12 1.037.22 1.545.367.257.075.514.09.606-.153.147-.388-.134-.51-.468-.528-.297-.017-.595-.024-.893-.034-.123.25-.372.215-.587.258z"/><path fill="#0A0A0A" d="M28.157 51.346l-.587.258c.215-.043.464-.008.587-.258z"/><path fill="#1F1F1F" d="M37.176 33.956c.282.72.6 1.4 1.91 1.84-.728-.99-1.095-1.615-1.91-1.84z"/><path fill="#222" d="M27.474 54.185c-.042.09-.083.135-.123.135.563-.022 1.12.696 1.82.07-.616-.482-1.232-.4-1.805-.486.116.096.152.19.11.28z"/><path fill="#222" d="M27.474 54.185c.043-.09.007-.185-.11-.282l-.013.417c.04 0 .082-.046.124-.135z"/><path fill="#111" d="M30.294 43.372c-.53-.32-1-.81-1.804-.677.55.578 1.12.88 1.816.92-.05-.08-.054-.16-.012-.243z"/><path fill="#161616" d="M35.872 36.205l-.31.26c.224.238.305.533.303.86l.698-.194c.01-.175.02-.35.032-.524-.24-.134-.482-.268-.723-.4z"/><path fill="#161616" d="M35.46 36.552c.035.31.067.623.405.774 0-.327-.08-.623-.302-.86-.035.028-.07.056-.104.086z"/><path fill="#424242" d="M40.57 33.505l-.126.064c-.013.515.188.91.69 1.076.073.024.345-.22.327-.293-.11-.457-.286-.89-.89-.848z"/><path fill="#3C3C3C" d="M26.222 48.5l-.518.39 1.65.604.447-.378-1.578-.616z"/><path fill="#3A3A3A" d="M29.5 64.755c-.446-.568-.96-.752-1.747-.357l1.373.792c-.125-.36.017-.49.375-.435z"/><path fill="#3A3A3A" d="M29.126 65.19l.375-.435c-.357-.056-.5.074-.374.434z"/><path fill="#555" d="M44.48 28.405c.156.402.153.88.554 1.168.14-.134.285-.148.44-.025-.01-.453-.19-.824-.54-1.114-.16.122-.31.12-.454-.03z"/><path fill="#555" d="M44.48 28.405c.143.148.295.15.455.03v-.002c-.153-.01-.304-.02-.455-.028zM45.034 29.573c.146-.01.293-.018.44-.025-.154-.123-.3-.11-.44.025z"/><path fill="#4B4B4B" d="M34.884 36.06c.2.078.39.187.572.303.018-.197.12-.295.416-.16l-1.134-.675c.173.16.22.338.146.53z"/><path fill="#4B4B4B" d="M35.456 36.363c-.184-.117-.372-.225-.572-.304-.016.04-.03.082-.058.125.134.253.336.392.633.366-.008-.068-.01-.13-.004-.187z"/><path fill="#4B4B4B" d="M34.884 36.06c.074-.194.028-.372-.146-.532l.065.498c.028.01.053.023.08.033z"/><path fill="#4B4B4B" d="M34.884 36.06c-.027-.01-.052-.024-.08-.034.007.053.015.106.02.16h.002c.028-.043.042-.085.058-.127zM35.456 36.363c.014.01.027.017.04.025.027.023.044.05.067.075l.31-.26c-.298-.135-.4-.037-.417.16z"/><path fill="#4B4B4B" d="M35.456 36.363c-.004.056-.004.12.003.188l.103-.086c-.022-.025-.04-.052-.066-.076-.014-.008-.028-.015-.04-.025z"/><path fill="#353535" d="M36.595 36.606c.154.185.143.36-.032.525.348.254.83.94 1.103.332.274-.617-.644-.623-1.07-.856z"/><path fill="#353535" d="M36.595 36.606c-.01.175-.02.35-.032.525.175-.164.186-.34.032-.524z"/><path fill="#0A0A0A" d="M26.836 67.016c.038-.09.078-.137.117-.137-.632.03-1.255.002-1.834-.295.164.187.14.345-.073.473.594.462 1.26.3 1.917.223-.123-.086-.165-.174-.128-.264z"/><path fill="#0A0A0A" d="M25.12 66.585c-.024.158-.05.316-.073.473.213-.128.237-.286.072-.473zM26.836 67.016c-.038.09.005.178.128.265l-.01-.4c-.04 0-.08.045-.118.136z"/><path fill="#1E1E1E" d="M27.8 49.117c-.056.233-.29.26-.445.378.512.09.952.618 1.608.23-.19-.61-.72-.535-1.162-.608z"/><path fill="#1E1E1E" d="M27.8 49.117l-.445.378c.155-.12.388-.144.446-.378z"/><path fill="#282828" d="M28.45 47.34c.13.055.178.115.14.18-.038.07-.078.105-.12.105.324.42 1.01.343 1.248.885.424-1.274-.568-1.07-1.268-1.17z"/><path fill="#282828" d="M29.718 48.51l-.01.035c.007-.004.015-.007.022-.012-.003-.008-.008-.015-.012-.023z"/><path fill="#282828" d="M29.736 48.54l-.004-.007-.024.012c-.005.002.032-.005.028-.004zM28.59 47.52c.04-.066-.008-.125-.14-.18.047.092.055.188.02.285.042 0 .082-.035.12-.104z"/><path fill="#555" d="M28.404 45.506c.296.4.75.51 1.188.646-.064-.31-.03-.513.357-.322l-1.175-.62c.05.315-.018.485-.37.296z"/><path fill="#555" d="M28.776 45.21l-.372.295c.353.19.42.02.372-.296zM29.592 46.152l.357-.322c-.388-.19-.422.012-.358.322z"/><path d="M31.414 41.9c0 .085-.003.17-.004.255.194.508.652.63 1.108.75l.007-.393c-.29-.347-.63-.607-1.11-.613z"/><path fill="#343434" d="M26.222 48.5c-.354-.054-.712-.656-1.035-.162-.3.457.135.554.517.552.053-.288.308-.31.518-.39z"/><path fill="#343434" d="M25.703 48.89l.518-.39c-.208.08-.463.102-.517.39z"/><path fill="#141414" d="M31.776 44.04c-.363-.15-.727-.303-1.09-.456.292.32.595.617 1.09.457z"/><path fill="#141414" d="M31.776 44.04c-.494.162-.797-.134-1.09-.456.092.8.432 1.004 1.09.457z"/><path fill="#010101" d="M32.635 42.778c-.04.085-.08.13-.118.13.216.165.432.33.648.497l.292-.417-.934-.474c.116.09.153.176.112.264z"/><path fill="#010101" d="M32.635 42.778c.04-.087.004-.175-.11-.264l-.008.393c.04 0 .08-.044.118-.13z"/><path fill="#767676" d="M48.408 89.56c.03-.082.088-.16.152-.233-.106-.07-.21-.145-.31-.227 0 0-.003 0-.004.002-.005.136-.013.272-.018.41.062.006.12.026.18.05z"/><path fill="#767676" d="M48.23 89.51l.018-.41c-.27.085-.464.234-.453.553.147-.137.292-.166.435-.143z"/><path fill="#767676" d="M48.408 89.56c-.06-.022-.12-.04-.18-.05 0 .086-.005.173 0 .26.007.01.013.023.018.035l.188.063c-.062-.116-.06-.215-.026-.307z"/><path fill="#767676" d="M48.23 89.77c-.007-.087-.003-.174 0-.26-.144-.022-.29.007-.437.143l.453.15c-.005-.01-.01-.022-.017-.033zM48.408 89.56c.084.034.168.076.253.117.005.002.006.005.01.007l.198-.155c-.102-.07-.206-.135-.308-.203-.064.074-.12.15-.152.234z"/><path fill="#767676" d="M48.408 89.56c-.034.093-.036.192.026.307.08-.06.157-.123.236-.183l-.01-.007c-.083-.04-.168-.083-.252-.116zM48.787 89.072c-.065-.153-.2-.206-.536.028.1.083.204.156.31.227l.007-.008c.075-.083.147-.166.22-.248z"/><path fill="#767676" d="M48.567 89.32l-.006.007c.103.068.208.134.31.202-.022-.162-.03-.34-.082-.458l-.22.247z"/></svg><svg width="81" height="37" viewBox="0 0 81 37" id="nextStop_blcok" x="117.936"><path fill="#499210" d="M61.66 0H0l8.514 16.818L0 37h58.622L81 18.875"/></svg><svg width="81" height="37" viewBox="0 0 81 37" id="year_block" x="117.936" y="37"><path fill="#499210" d="M61.66 0H0l8.514 16.818L0 37h81V0"/></svg></svg>